<svg xmlns="http://www.w3.org/2000/svg" xmlns:xlink="http://www.w3.org/1999/xlink" width="500" zoomAndPan="magnify" viewBox="0 0 375 374.999991" height="500" preserveAspectRatio="xMidYMid meet" version="1.0"><defs><clipPath id="0292f3af14"><path d="M 112.5 115 L 262.5 115 L 262.5 259.71875 L 112.5 259.71875 Z M 112.5 115 " clip-rule="nonzero"/></clipPath></defs><g clip-path="url(#0292f3af14)"><path fill="#fefae0" d="M 190.292969 122.390625 C 193.675781 125.082031 196.15625 128.195312 197.929688 132.066406 C 201 124.847656 205.257812 118.804688 212.34375 115.015625 C 212.816406 115.832031 212.855469 116.632812 212.878906 117.410156 C 212.976562 120.683594 212.851562 123.929688 211.890625 127.109375 C 210.210938 132.671875 208.375 138.164062 205.226562 143.109375 C 203.792969 145.359375 202.140625 147.460938 200.152344 149.25 C 199.300781 150.011719 198.707031 150.941406 198.371094 152.039062 C 197.542969 154.515625 197.269531 157.085938 196.699219 160.089844 C 201.09375 156.335938 205.351562 153.128906 210.953125 152.101562 C 211.445312 154.410156 211.132812 156.550781 210.578125 158.671875 C 208.03125 168.394531 201.972656 175.335938 193.414062 180.265625 C 192.238281 180.941406 191.53125 181.769531 191.101562 183.0625 C 189.976562 186.457031 188.710938 189.808594 187.398438 193.472656 C 189.34375 192.238281 190.992188 191.082031 192.742188 190.105469 C 194.832031 188.941406 196.996094 187.886719 199.378906 187.425781 C 200.570312 187.199219 201.671875 186.746094 202.679688 186.066406 C 204.839844 184.617188 206.957031 183.113281 208.90625 181.378906 C 209.578125 180.785156 209.832031 180.175781 209.773438 179.292969 C 209.371094 173.347656 212.195312 168.75 216.15625 164.761719 C 218.777344 162.117188 221.574219 159.601562 225.332031 158.554688 C 226.425781 158.246094 227.492188 157.925781 228.617188 158.195312 C 229.203125 159.21875 228.480469 160.0625 228.375 160.945312 C 227.511719 168.3125 223.425781 173.730469 217.714844 178.089844 C 216.222656 179.226562 214.457031 179.96875 212.660156 180.441406 C 211.03125 180.867188 209.816406 181.792969 208.632812 182.863281 C 208.199219 183.257812 207.746094 183.636719 207.050781 184.238281 C 209.15625 184.132812 210.769531 183.289062 212.488281 182.914062 C 214.570312 182.464844 216.636719 181.945312 218.757812 181.746094 C 220.335938 181.578125 221.714844 180.972656 222.898438 179.917969 C 226.820312 176.554688 231.453125 175.464844 236.445312 175.421875 C 237.308594 175.414062 237.894531 175.132812 238.515625 174.496094 C 242.683594 170.265625 247.621094 167.363281 253.484375 166.148438 C 256.441406 165.53125 259.40625 165.441406 262.507812 166.21875 C 261.75 173.394531 256.464844 176.859375 251.1875 180.503906 C 252.0625 181.707031 253.402344 182.4375 254.238281 183.761719 C 253.273438 185.816406 251.308594 186.710938 249.375 187.542969 C 244.332031 189.730469 239.117188 189.914062 233.710938 189.085938 C 229.285156 188.410156 225.75 186.175781 222.367188 183.5625 C 221.261719 182.707031 220.253906 182.507812 218.910156 182.636719 C 214.839844 183.042969 210.96875 184.226562 207.089844 185.414062 C 206.03125 185.734375 204.960938 186.132812 203.851562 187.09375 C 206.457031 187.320312 208.570312 188.40625 211.050781 188.304688 C 213.703125 188.1875 216.3125 188.480469 218.871094 189.183594 C 221.429688 189.886719 223.820312 190.964844 226.039062 192.421875 C 230.648438 195.433594 234.023438 199.609375 236.03125 204.804688 C 236.121094 205.054688 236.1875 205.3125 236.234375 205.574219 C 236.246094 205.707031 236.246094 205.839844 236.234375 205.972656 C 236.039062 206.4375 235.628906 206.671875 235.195312 206.835938 C 231.257812 208.304688 227.347656 208.171875 223.527344 206.46875 C 218.898438 204.402344 214.878906 201.507812 211.769531 197.445312 C 210.179688 195.371094 208.816406 193.148438 208.160156 190.601562 C 207.851562 189.386719 207.1875 188.863281 206.019531 188.609375 C 202.296875 187.808594 198.765625 188.203125 195.355469 189.9375 C 193.214844 191.015625 191.121094 192.140625 189.214844 193.628906 C 187.339844 195.074219 185.894531 196.867188 184.882812 199.007812 C 181.644531 205.828125 177.429688 212.054688 173.242188 218.292969 C 171.027344 221.59375 168.3125 224.519531 165.679688 227.542969 C 166.191406 227.722656 166.535156 227.480469 166.894531 227.335938 C 170.980469 225.714844 175.023438 224.007812 179.292969 222.878906 C 181.050781 222.417969 182.472656 221.242188 183.804688 220.019531 C 184.28125 219.578125 184.378906 218.980469 184.492188 218.394531 C 185.476562 213.210938 188.257812 209.238281 192.589844 206.296875 C 195.804688 204.113281 199.144531 202.21875 203.003906 201.386719 C 204.960938 200.964844 206.917969 200.648438 209.023438 200.824219 C 209.234375 202.164062 208.617188 203.246094 208.074219 204.242188 C 203.871094 212.003906 197.484375 217.132812 189.160156 219.90625 C 188.015625 220.289062 186.84375 220.574219 185.632812 220.5625 C 184.734375 220.554688 184.117188 220.921875 183.4375 221.683594 C 185.078125 222.011719 186.578125 221.65625 188.023438 221.484375 C 191.878906 221.023438 195.722656 220.859375 199.582031 221.222656 C 200.542969 221.324219 201.425781 221.101562 202.222656 220.558594 C 206.828125 217.535156 211.921875 217.398438 217.058594 218.335938 C 222.128906 219.261719 226.636719 221.574219 230.550781 224.949219 C 232.265625 226.429688 233.6875 228.1875 234.921875 229.945312 C 234.792969 230.667969 234.304688 230.785156 233.902344 230.988281 C 231.421875 232.222656 228.800781 232.914062 226.035156 233.066406 C 222.242188 233.285156 218.429688 233.175781 214.75 232.023438 C 209.648438 230.429688 205.042969 228.023438 201.746094 223.632812 C 201.097656 222.765625 200.359375 222.34375 199.257812 222.246094 C 193.570312 221.746094 187.976562 222.332031 182.386719 223.355469 C 176.03125 224.523438 170.113281 226.945312 164.433594 229.875 C 161.707031 231.28125 158.984375 232.894531 156.398438 235.273438 C 159.351562 235.230469 161.941406 235.953125 164.542969 234.4375 C 169.820312 231.363281 175.652344 231.042969 181.417969 232.328125 C 187.21875 233.617188 192.355469 236.441406 196.402344 241.058594 C 195.910156 242.378906 194.832031 243.035156 193.6875 243.554688 C 189.9375 245.285156 186.015625 246.421875 181.921875 246.960938 C 181.984375 247.824219 182.761719 248.265625 183.097656 249.066406 C 182.851562 249.992188 182.171875 250.703125 181.335938 251.269531 C 175.910156 254.90625 169.964844 255.921875 163.589844 254.859375 C 159.539062 254.1875 156.105469 252.175781 152.757812 249.96875 C 151.816406 249.351562 150.785156 248.84375 150.046875 247.945312 C 149.304688 247.050781 148.398438 247.019531 147.328125 247.261719 C 143.96875 248.003906 140.933594 249.46875 138.015625 251.246094 C 135.828125 252.574219 134.023438 254.339844 132.210938 256.097656 C 130.84375 257.425781 129.550781 258.832031 127.898438 259.96875 C 127.785156 259.148438 128.300781 258.773438 128.695312 258.367188 C 130.230469 256.792969 131.765625 255.21875 133.335938 253.683594 C 134.3125 252.730469 135.0625 251.664062 135.4375 250.34375 C 135.652344 249.585938 135.667969 248.839844 134.976562 248.335938 C 132.621094 246.628906 131.453125 244.023438 129.957031 241.6875 C 126.191406 235.804688 125.886719 229.578125 128.4375 223.15625 C 129.105469 221.472656 130.289062 220.085938 131.089844 218.574219 C 132.015625 218.3125 132.378906 219.019531 132.878906 219.402344 C 137.746094 223.132812 140.117188 228.125 140.34375 234.214844 C 140.429688 236.554688 140.390625 238.859375 139.882812 241.15625 C 139.480469 242.996094 138.777344 244.710938 137.773438 246.300781 C 137.074219 247.410156 136.386719 248.546875 136.703125 250.203125 C 137.9375 249.480469 138.707031 248.503906 139.53125 247.609375 C 140.070312 247.019531 140.53125 246.335938 141.15625 245.851562 C 144.40625 243.316406 145.136719 239.636719 145.542969 235.910156 C 145.871094 232.871094 145.867188 229.792969 145.90625 226.730469 C 145.980469 220.847656 144.867188 215.214844 142.238281 209.902344 C 141.675781 208.765625 141.09375 207.855469 139.660156 207.832031 C 139.214844 207.832031 138.75 207.605469 138.34375 207.390625 C 137.601562 206.996094 136.921875 207.015625 136.074219 207.152344 C 132.804688 207.679688 129.503906 207.460938 126.398438 206.382812 C 121.503906 204.675781 116.992188 202.28125 113.8125 197.949219 C 113.296875 197.25 112.800781 196.5625 112.5 195.550781 C 116.921875 193.257812 121.625 193.089844 126.621094 193.566406 C 126.3125 192.054688 126.058594 190.59375 125.695312 189.160156 C 124.953125 186.246094 124.898438 183.378906 125.960938 180.519531 C 126.464844 179.167969 126.628906 178.808594 127.941406 177.367188 C 128.574219 177.242188 129.113281 177.5625 129.636719 177.828125 C 134.628906 180.320312 138.929688 183.679688 141.714844 188.5625 C 143.445312 191.59375 144.167969 195.042969 143.941406 198.574219 C 143.785156 201.101562 143.421875 203.621094 142.484375 205.996094 C 142.160156 206.816406 142.269531 207.460938 142.613281 208.261719 C 144.375 212.367188 145.980469 216.519531 146.519531 221.015625 C 146.746094 222.929688 146.707031 224.859375 146.886719 226.988281 C 147.988281 226.007812 148.664062 225.058594 148.761719 223.726562 C 148.960938 220.96875 149.636719 218.335938 150.792969 215.828125 C 151.277344 214.851562 151.460938 213.824219 151.351562 212.742188 C 150.628906 205.929688 152.695312 199.875 156.40625 194.261719 C 158.03125 191.804688 159.757812 189.457031 162.148438 187.660156 C 162.792969 187.136719 163.515625 186.777344 164.324219 186.582031 C 165.402344 192.003906 164.992188 197.390625 164.230469 202.9375 C 166.78125 202.371094 169.191406 201.984375 171.621094 202.300781 C 172.128906 202.96875 171.855469 203.628906 171.695312 204.253906 C 170.078125 210.550781 167.085938 215.875 161.785156 219.96875 C 158.15625 222.773438 154.300781 224.722656 149.878906 225.707031 C 148.027344 226.121094 147.597656 227.796875 147.050781 229.238281 C 146.527344 230.609375 146.445312 232.105469 146.527344 233.578125 C 146.660156 235.945312 146.191406 238.21875 145.574219 240.480469 C 145.460938 240.902344 145.132812 241.3125 145.378906 241.820312 C 145.933594 241.984375 146.234375 241.542969 146.546875 241.257812 C 149.40625 238.632812 152.597656 236.464844 155.742188 234.214844 C 157.636719 232.855469 159.726562 231.746094 161.488281 230.261719 C 163.457031 228.59375 165.132812 226.558594 166.875 224.644531 C 171.777344 219.230469 175.457031 212.949219 179.398438 206.863281 C 180.375 205.355469 181.171875 203.730469 182.011719 202.144531 C 183.320312 199.675781 183.402344 198.03125 182.410156 195.164062 C 176.976562 194.765625 173.613281 191.359375 170.835938 187.058594 C 168.757812 183.832031 167.207031 180.386719 166.480469 176.617188 C 165.988281 173.980469 165.871094 171.328125 166.128906 168.65625 C 166.257812 167.203125 166.675781 165.835938 167.390625 164.5625 C 169.800781 164.984375 171.96875 165.953125 173.890625 167.464844 C 179.890625 172.191406 183.765625 178.21875 184.246094 186.070312 C 184.359375 187.886719 184.054688 189.6875 183.640625 191.417969 C 183.144531 193.476562 183.742188 195.308594 184.1875 197.574219 C 185.304688 195.832031 185.8125 194.179688 186.492188 192.636719 C 188.058594 189.03125 189.292969 185.296875 190.527344 181.5625 C 190.710938 181.003906 190.636719 180.546875 190.507812 180.019531 C 189.039062 174.121094 190.5625 168.804688 193.828125 163.902344 C 194.878906 162.332031 195.574219 160.621094 195.921875 158.769531 C 196.132812 157.660156 196.167969 156.503906 196.472656 155.425781 C 196.9375 153.820312 196.460938 152.703125 195.03125 151.945312 C 190.96875 149.804688 189.347656 145.929688 187.964844 141.917969 C 186.042969 136.339844 186.65625 130.894531 188.914062 125.550781 C 189.324219 124.582031 189.550781 123.53125 190.292969 122.390625 Z M 128.136719 178.320312 C 126.640625 180.542969 126.027344 182.925781 126.222656 185.417969 C 126.472656 188.675781 127.160156 191.855469 128.601562 194.851562 C 130.109375 198.007812 131.910156 200.941406 134.441406 203.378906 C 135.917969 204.804688 137.554688 206.003906 139.945312 206.601562 C 138.625 202.683594 137.785156 198.929688 135.859375 195.558594 C 135.167969 194.34375 134.527344 193.097656 133.882812 191.855469 C 133.632812 191.382812 133.511719 190.894531 134.234375 190.40625 C 135.507812 193.078125 137.148438 195.417969 138.246094 198.046875 C 139.328125 200.648438 139.898438 203.445312 141.191406 206.148438 C 146.070312 194.261719 140.53125 183.527344 128.136719 178.320312 Z M 150.773438 246.441406 C 150.652344 247.15625 151.128906 247.476562 151.492188 247.742188 C 152.785156 248.683594 154.082031 249.617188 155.4375 250.460938 C 157.761719 251.910156 160.210938 253.066406 162.914062 253.6875 C 167.464844 254.730469 171.917969 254.371094 176.277344 252.828125 C 178.324219 252.097656 180.277344 251.105469 181.691406 249.363281 C 174.945312 240.015625 158.109375 238.136719 150.988281 245.359375 C 153.042969 246.097656 155.132812 246.394531 157.195312 246.804688 C 160.863281 247.53125 164.609375 247.550781 168.289062 248.136719 C 168.6875 248.199219 169.226562 248.066406 169.53125 248.957031 C 163.175781 248.882812 156.921875 248.046875 150.773438 246.441406 Z M 222.691406 182.265625 C 231.628906 191.664062 247.84375 189.363281 252.78125 184.027344 C 246.199219 175.453125 230.136719 173.640625 223.15625 181.304688 C 226.257812 182.386719 229.59375 181.808594 232.6875 182.769531 C 232.535156 183.117188 232.339844 183.164062 232.148438 183.164062 C 229.09375 183.144531 226.085938 182.671875 222.691406 182.265625 Z M 182.152344 192.777344 C 186.546875 180.804688 175.574219 166.566406 167.988281 166.003906 C 167.242188 167.609375 166.953125 170.375 167.105469 173.027344 C 167.394531 178.167969 169.355469 182.714844 172.078125 186.953125 C 173.703125 189.484375 175.71875 191.722656 178.507812 193.078125 C 179.234375 193.433594 179.980469 193.914062 180.988281 193.59375 C 180.488281 192.171875 179.808594 190.835938 178.945312 189.59375 C 176.851562 186.664062 175.144531 183.507812 173.621094 180.253906 C 172.609375 178.09375 171.648438 175.890625 171.171875 173.523438 C 171.066406 172.996094 170.960938 172.414062 171.945312 172.425781 C 173.667969 179.992188 178.140625 186.207031 182.152344 192.777344 Z M 218.742188 226.601562 C 218.722656 226.742188 218.703125 226.878906 218.6875 227.019531 C 217.382812 227.125 216.097656 226.890625 214.832031 226.597656 C 211.054688 225.738281 207.378906 224.582031 203.910156 222.832031 C 203.585938 222.667969 203.199219 222.414062 202.875 222.878906 C 206.609375 230.75 226.242188 235.28125 233.285156 229.886719 C 233.207031 229.703125 233.113281 229.53125 233 229.367188 C 226.535156 221.703125 218.46875 217.917969 208.339844 219.308594 C 206.488281 219.5625 204.53125 219.816406 202.9375 221.441406 C 205.609375 222.507812 208.007812 223.808594 210.636719 224.535156 C 213.328125 225.28125 216.042969 225.917969 218.742188 226.601562 Z M 195.089844 241.34375 C 186.160156 231.523438 171.222656 230.5625 163.496094 236.304688 C 170.75 239.140625 178.175781 240.078125 185.960938 239.375 C 185.597656 240.234375 185.035156 240.148438 184.542969 240.21875 C 178.417969 241.015625 172.464844 240.136719 166.59375 238.40625 C 165.917969 238.207031 165.277344 237.855469 164.382812 238.085938 C 165.292969 238.96875 165.960938 240.035156 167.144531 240.152344 C 171.382812 240.574219 175.109375 242.257812 178.5 244.691406 C 180.109375 245.851562 181.769531 245.984375 183.589844 245.730469 C 186.648438 245.308594 189.558594 244.375 192.386719 243.175781 C 193.347656 242.765625 194.347656 242.351562 195.089844 241.34375 Z M 210.070312 153.621094 C 209.808594 153.546875 209.675781 153.46875 209.566406 153.484375 C 209.238281 153.546875 208.917969 153.632812 208.605469 153.742188 C 202.714844 155.851562 197.960938 159.445312 194.488281 164.65625 C 192.171875 168.121094 190.875 171.910156 191.03125 176.125 C 191.046875 176.558594 191.003906 177.007812 191.40625 177.386719 C 194.710938 171.324219 200.082031 164.007812 202.003906 162.9375 C 201.949219 163.757812 201.320312 164.210938 200.867188 164.765625 C 198.132812 168.125 195.605469 171.632812 193.535156 175.445312 C 192.882812 176.648438 192.214844 177.875 192.277344 179.34375 C 193.105469 179.570312 193.621094 179.085938 194.179688 178.773438 C 195.636719 177.949219 196.910156 176.886719 198.191406 175.828125 C 203.910156 171.121094 207.886719 165.296875 209.722656 158.070312 C 210.121094 156.609375 210.238281 155.125 210.070312 153.621094 Z M 228.308594 203.175781 C 227.808594 203.679688 227.476562 203.496094 227.203125 203.355469 C 223.324219 201.300781 219.429688 199.273438 216.132812 196.308594 C 214.199219 194.570312 212.367188 192.71875 210.285156 191.148438 C 210.066406 190.984375 209.890625 190.546875 209.488281 190.964844 C 209.488281 191.855469 209.941406 192.597656 210.332031 193.363281 C 211.410156 195.46875 212.886719 197.277344 214.515625 198.949219 C 218.0625 202.589844 222.183594 205.335938 227.167969 206.625 C 229.90625 207.332031 232.515625 206.820312 235.253906 205.875 C 232.9375 199.90625 229.214844 195.300781 223.785156 192.328125 C 219.070312 189.746094 212.675781 188.722656 210.207031 189.828125 C 213.378906 192.046875 215.789062 194.929688 218.765625 197.160156 C 221.742188 199.390625 225.078125 201.183594 228.308594 203.175781 Z M 150.421875 224.3125 C 160.648438 222.820312 170.765625 211.167969 170.449219 203.257812 C 160.207031 202.164062 149.28125 215.082031 150.109375 222.832031 C 152.027344 220.789062 153.417969 218.417969 155.414062 216.558594 C 157.410156 214.699219 159.042969 212.460938 161.648438 211.335938 C 157.820312 215.488281 153.488281 219.179688 150.421875 224.316406 Z M 133.492188 229.363281 C 133.648438 231.300781 133.925781 233.1875 134.222656 235.070312 C 134.53125 237.046875 134.851562 239.015625 135.207031 240.984375 C 135.535156 242.8125 135.3125 244.757812 136.222656 246.589844 C 142.21875 238.773438 139.671875 224.164062 131.683594 219.875 C 131.53125 219.976562 131.316406 220.054688 131.222656 220.207031 C 127.273438 226.339844 126.660156 232.730469 129.953125 239.320312 C 130.988281 241.398438 132.3125 243.332031 133.53125 245.316406 C 133.753906 245.679688 133.992188 246.121094 134.722656 246.117188 C 134.746094 244.109375 134.273438 242.179688 134.027344 240.238281 C 133.648438 237.269531 133.199219 234.308594 132.847656 231.335938 C 132.765625 230.679688 132.507812 229.890625 133.492188 229.363281 Z M 192.667969 136.410156 C 194.113281 138.136719 193.441406 139.90625 193.929688 141.394531 C 194.445312 142.960938 194.515625 144.652344 195.292969 146.167969 C 196.03125 147.605469 196.332031 149.253906 197.417969 150.617188 C 201.332031 142.683594 197.683594 128.828125 190.636719 124.25 C 190.480469 124.441406 190.238281 124.609375 190.15625 124.835938 C 189.777344 125.902344 189.445312 126.984375 189.078125 128.054688 C 186.714844 134.984375 187.976562 141.417969 191.695312 147.542969 C 192.695312 149.191406 194.25 150.101562 196.195312 151.296875 C 195.160156 148.613281 194.140625 146.390625 193.460938 144.070312 C 192.78125 141.75 192.507812 139.320312 192.667969 136.410156 Z M 207.75 123.519531 C 208.234375 123.984375 208.136719 124.292969 208.035156 124.613281 C 206.539062 129.269531 204.320312 133.578125 201.789062 137.738281 C 200.757812 139.4375 199.691406 141.054688 200.105469 143.265625 C 200.308594 144.328125 199.898438 145.503906 199.773438 146.628906 C 199.730469 147.054688 199.386719 147.515625 199.882812 147.898438 C 205.257812 144.46875 214.054688 123.851562 211.558594 116.816406 C 210.824219 116.816406 210.371094 117.367188 209.847656 117.742188 C 205.328125 121.035156 202.171875 125.375 199.75 130.394531 C 198.386719 133.210938 198.929688 135.71875 199.890625 138.585938 C 201.957031 136.328125 202.8125 133.625 204.226562 131.257812 C 205.679688 128.835938 206.152344 125.957031 207.75 123.519531 Z M 207.683594 201.984375 C 205.984375 201.675781 204.382812 202.15625 202.816406 202.550781 C 198.277344 203.6875 194.414062 206.074219 190.875 209.089844 C 188.355469 211.242188 186.824219 213.964844 185.835938 217.050781 C 185.714844 217.425781 185.398438 217.90625 186.019531 218.359375 C 188.222656 216.042969 190.863281 214.222656 193.359375 212.238281 C 195.804688 210.300781 198.160156 208.191406 201.183594 206.546875 C 201.132812 207.515625 200.667969 207.773438 200.257812 208.074219 C 198.925781 209.066406 197.585938 210.050781 196.261719 211.054688 C 193.722656 212.988281 191.421875 215.222656 188.820312 217.089844 C 188.0625 217.632812 187.230469 218.242188 186.929688 219.304688 C 195.523438 217.933594 205.332031 209.699219 207.683594 201.988281 Z M 220.144531 167.578125 C 218.050781 171.738281 214.707031 175.054688 212.355469 179.21875 C 218.949219 178.261719 227.269531 168.789062 227.375 159.304688 C 225.996094 159.597656 224.65625 159.753906 223.375 160.429688 C 219.53125 162.464844 216.480469 165.367188 213.941406 168.832031 C 212.640625 170.609375 211.636719 172.578125 211.144531 174.746094 C 210.851562 176.054688 210.519531 177.390625 211.128906 178.902344 C 212.6875 176.84375 214.128906 174.953125 215.550781 173.042969 C 216.972656 171.132812 218.238281 169.101562 220.144531 167.582031 Z M 245.835938 177.414062 C 246.855469 177.957031 247.675781 178.273438 248.355469 178.777344 C 249.410156 179.558594 250.390625 179.4375 251.515625 178.949219 C 253.585938 178.050781 255.117188 176.460938 256.777344 175.035156 C 258.578125 173.492188 259.84375 171.550781 260.800781 169.398438 C 261.121094 168.671875 261.375 167.941406 261.1875 167.164062 C 253.726562 165.292969 242.375 170.683594 239.28125 175.515625 C 240.574219 175.699219 241.832031 175.945312 242.945312 176.507812 C 244.113281 177.097656 244.953125 176.730469 245.839844 176.015625 C 248.492188 173.890625 251.394531 172.132812 254.257812 170.308594 C 254.742188 170 255.203125 169.582031 256.269531 169.785156 C 254.335938 171.085938 252.625 172.183594 250.976562 173.363281 C 249.28125 174.589844 247.390625 175.597656 245.835938 177.414062 Z M 157.703125 206.640625 C 159.21875 205.765625 160.386719 204.996094 161.636719 204.394531 C 162.796875 203.839844 163.265625 202.953125 163.449219 201.761719 C 164.109375 197.59375 164.226562 193.410156 163.796875 189.210938 C 163.757812 188.820312 163.773438 188.386719 163.265625 188.246094 C 156.195312 192.808594 150.425781 205.957031 152.492188 212.628906 C 153.734375 211.179688 154.949219 209.785156 156.136719 208.367188 C 156.300781 208.152344 156.386719 207.90625 156.394531 207.636719 C 156.472656 205.886719 157.078125 204.242188 157.445312 202.5625 C 157.960938 200.28125 158.707031 198.074219 159.679688 195.945312 C 159.925781 195.390625 160.109375 194.742188 161.277344 194.621094 C 159.351562 198.480469 158.488281 202.34375 157.703125 206.640625 Z M 131.046875 201.28125 C 129.859375 199.679688 128.851562 197.96875 128.027344 196.152344 C 127.550781 195.132812 126.710938 194.703125 125.679688 194.527344 C 122.132812 193.910156 118.660156 194.277344 115.238281 195.308594 C 114.746094 195.460938 114.175781 195.527344 113.933594 196.109375 C 117.765625 203.097656 129.359375 207.585938 135.617188 206.074219 C 134.425781 204.953125 133.277344 203.878906 132.136719 202.792969 C 131.878906 202.546875 131.589844 202.515625 131.246094 202.484375 C 128.40625 202.195312 125.941406 200.855469 123.441406 199.632812 C 123.121094 199.476562 122.632812 199.347656 123.023438 198.542969 C 125.628906 199.171875 127.824219 201.222656 131.046875 201.28125 Z M 164.25 239.894531 C 162.101562 236.683594 162.101562 236.683594 158.792969 236.363281 C 158.660156 236.347656 158.527344 236.316406 158.394531 236.3125 C 156.300781 236.269531 154.308594 236.546875 152.535156 237.824219 C 148.917969 240.425781 145.566406 243.34375 142.207031 246.25 C 141.535156 246.832031 141.003906 247.578125 140.246094 248.425781 C 140.710938 248.351562 140.902344 248.359375 141.070312 248.285156 C 143.34375 247.332031 145.621094 246.40625 148.078125 246.019531 C 148.757812 245.890625 149.332031 245.570312 149.796875 245.0625 C 152.527344 242.304688 155.914062 240.917969 159.664062 240.226562 C 161.097656 239.960938 162.554688 240.03125 164.25 239.894531 Z M 164.25 239.894531 " fill-opacity="1" fill-rule="nonzero"/></g></svg>