<?xml version="1.0" encoding="utf-8"?>
<!DOCTYPE svg PUBLIC "-//W3C//DTD SVG 1.1//EN" "http://www.w3.org/Graphics/SVG/1.1/DTD/svg11.dtd">
<!-- exported from Silhouette Studio® Business Edition V4.5.735ssbe -->
<svg version="1.1" xmlns="http://www.w3.org/2000/svg" xmlns:xlink="http://www.w3.org/1999/xlink" width="61mm" height="25mm" viewBox="0 0 61 25">
<defs>
<path id="path_883bd0093dc0d0d2aaf43ce351e18e71" d="M 49.47541 5.912479 C 49.99393 6.385771 51.85778 9.581423 52.67694 12.71902 C 52.8223 13.27579 53.53631 15.82296 52.8929 18.3441 C 52.89268 18.34347 52.86269 18.39389 52.81975 18.32592 C 52.78999 18.27881 52.8691 18.30785 52.95446 17.28995 C 53.0103 16.62407 52.99672 16.02176 52.98506 15.75609 C 52.92713 14.4366 52.65585 13.29476 52.51559 12.76029 C 51.48441 8.830826 49.68515 6.579571 49.47541 5.912479 Z" fill-rule="evenodd" fill="#FEFAE0" fill-opacity="1" stroke="none" stroke-opacity="1" stroke-width="0.4703704" stroke-linecap="butt" stroke-linejoin="miter"/>
<path id="path_07cd92f95b85c91bd8a9b934c738847b" d="M 45.93776 5.10174 C 45.99327 4.759319 46.70788 4.731058 46.99528 4.613138 C 47.36678 4.46072 47.52618 4.131664 47.8871 4.128162 C 48.45063 4.122694 49.2192 5.260254 49.68148 6.220621 C 49.62697 6.222221 49.15279 6.200277 48.45628 6.154297 C 47.96763 6.12204 47.78886 5.919573 47.4843 5.785847 C 46.9544 5.55319 45.84874 5.650755 45.93776 5.10174 Z M 47.88845 4.256144 C 47.60757 4.256809 47.33073 4.641876 46.90637 4.77076 C 46.63263 4.853897 46.08977 4.909531 46.05538 5.119255 C 45.99155 5.508492 47.00381 5.479534 47.37855 5.602633 C 47.73263 5.718946 47.92988 5.927111 48.29622 5.995665 C 48.81472 6.092693 48.66084 5.905704 49.52728 6.109838 C 48.92398 5.15122 48.35031 4.255049 47.88845 4.256144 Z" fill-rule="evenodd" fill="#FEFAE0" fill-opacity="1" stroke="none" stroke-opacity="1" stroke-width="0.4703704" stroke-linecap="butt" stroke-linejoin="miter"/>
<path id="path_e2b5c2b990b2b47df6fb6faa8893fc5b" d="M 48.12219 4.245369 C 48.1296 4.229202 48.12893 4.208996 48.12354 4.184071 C 48.11747 4.156454 48.09525 4.126818 48.0912 4.105936 C 48.08177 4.058786 48.08178 4.010962 48.08717 3.963812 C 48.09255 3.915983 48.104 3.868162 48.12354 3.823706 C 48.14442 3.772512 48.17675 3.728727 48.21447 3.689663 C 48.27711 3.623652 48.35255 3.567745 48.41924 3.507122 C 48.51691 3.420229 48.66038 3.218828 48.80385 3.146755 C 48.87727 3.109709 48.94665 3.126549 49.00525 3.242405 C 49.04095 3.313129 49.06588 3.389246 49.08474 3.467381 C 49.13189 3.659351 49.14603 3.864794 49.19184 4.050703 C 49.25179 4.293192 49.35282 4.514126 49.41883 4.749208 C 49.4451 4.844181 49.46666 4.941177 49.47541 5.043562 C 49.49225 5.22341 49.48956 5.403255 49.50034 5.583101 C 49.50505 5.662582 49.51112 5.741394 49.52324 5.820202 C 49.53604 5.880821 49.54076 5.952221 49.55759 6.016211 C 49.56635 6.047871 49.57645 6.078184 49.59194 6.104452 C 49.60003 6.122641 49.62159 6.130049 49.6391 6.121967 C 49.65661 6.112535 49.66402 6.092331 49.65594 6.074141 C 49.64448 6.043829 49.64045 6.010151 49.6391 5.975124 C 49.63573 5.917196 49.63977 5.858593 49.63707 5.805384 C 49.62831 5.729939 49.62428 5.65383 49.62225 5.578384 C 49.61821 5.396519 49.62428 5.214651 49.6135 5.032785 C 49.60609 4.920971 49.58521 4.814541 49.55692 4.710814 C 49.49361 4.477077 49.39122 4.257492 49.33059 4.016348 C 49.28411 3.830439 49.26795 3.625 49.22013 3.433699 C 49.19789 3.34479 49.16893 3.259918 49.12785 3.179762 C 49.04836 3.025511 48.95002 2.982401 48.85369 2.991833 C 48.76883 3.000589 48.67991 3.057171 48.59639 3.133957 C 48.49603 3.226912 48.4024 3.347481 48.33235 3.411474 C 48.26364 3.474791 48.1855 3.533392 48.12219 3.602772 C 48.07436 3.653963 48.03395 3.710545 48.007 3.776556 C 47.98478 3.833136 47.96928 3.892412 47.96457 3.951683 C 47.95985 4.012306 47.96592 4.072931 47.98141 4.132204 C 47.98814 4.157127 48.00566 4.196196 48.02519 4.225159 C 48.03125 4.233917 48.04338 4.233917 48.0454 4.241325 C 48.04406 4.262207 48.06021 4.281071 48.08177 4.281742 C 48.10265 4.282413 48.12084 4.266249 48.12219 4.245369 Z" fill-rule="evenodd" fill="#FEFAE0" fill-opacity="1" stroke="none" stroke-opacity="1" stroke-width="0.4703704" stroke-linecap="butt" stroke-linejoin="miter"/>
<path id="path_a676ee0479143ed2c1a03b56b75a7eaa" d="M 49.55532 2.767351 C 49.71666 3.037821 49.46911 2.683479 49.87956 4.464956 C 50.04203 5.170088 49.7827 5.887972 49.62293 6.177876 C 49.57581 5.616367 49.88891 5.376467 49.76884 4.675621 C 49.64713 3.965181 49.52822 4.091127 49.49842 3.514208 C 49.4916 3.382139 49.53129 3.010542 49.4342 2.841015 C 49.3841 2.753521 48.74099 2.2833 48.49712 2.201893 C 48.08025 2.715897 48.39962 2.857605 48.36358 3.435555 C 47.99435 3.105204 48.11332 2.148808 48.47667 2.063976 C 48.66615 2.019735 49.50254 2.678877 49.55532 2.767351 Z M 48.36064 3.356241 L 48.35659 3.354221 C 48.35773 3.354088 48.35466 3.357775 48.3539 3.356915 C 48.3535 3.356466 48.36075 3.355967 48.36064 3.356241 Z M 48.34245 3.362303 L 48.35255 3.35759 C 48.35253 3.358433 48.34254 3.362352 48.34245 3.362303 Z M 48.33168 3.368368 L 48.33235 3.371059 C 48.33196 3.374466 48.34183 3.359848 48.34043 3.362978 C 48.33983 3.364313 48.32888 3.361803 48.33168 3.368368 Z" fill-rule="evenodd" fill="#FEFAE0" fill-opacity="1" stroke="none" stroke-opacity="1" stroke-width="0.4703704" stroke-linecap="butt" stroke-linejoin="miter"/>
<path id="path_8009509aff705b27db97b804af2664be" d="M 48.22997 2.436131 C 48.23333 2.438822 48.23737 2.440845 48.24209 2.442192 C 48.26162 2.449602 48.28386 2.438824 48.29058 2.419291 C 48.30473 2.411207 48.28453 2.402449 48.2879 2.386286 C 48.28857 2.378202 48.27644 2.382244 48.26971 2.369446 C 48.26634 2.361362 48.25961 2.357325 48.23805 2.345869 C 48.20908 2.330378 48.14981 2.334419 48.14308 2.333746 C 48.08448 2.333073 48.02452 2.339808 47.96592 2.353279 C 47.90799 2.366751 47.85142 2.386957 47.7982 2.41188 C 47.74364 2.43815 47.70255 2.475872 47.6682 2.51898 C 47.62442 2.573542 47.59343 2.638203 47.5537 2.697477 C 47.51193 2.760124 47.45871 2.817377 47.41358 2.879347 C 47.39136 2.909658 47.37182 2.941313 47.35498 2.974323 C 47.3112 3.063906 47.31861 3.152147 47.35835 3.23904 C 47.42302 3.381838 47.58871 3.517902 47.64193 3.640493 C 47.69177 3.753654 47.6911 3.875572 47.72882 3.987389 C 47.74162 4.025782 47.75509 4.064848 47.78203 4.097183 C 47.79416 4.111328 47.80695 4.120756 47.82312 4.132883 C 47.8339 4.149046 47.85613 4.152416 47.8723 4.141636 C 47.88778 4.130186 47.89183 4.108633 47.88105 4.092466 C 47.87634 4.07563 47.87634 4.061483 47.8723 4.045317 C 47.86556 4.023088 47.85881 4.002207 47.85209 3.981327 C 47.82649 3.889046 47.81638 3.794071 47.79483 3.69977 C 47.78674 3.662722 47.77597 3.626348 47.76048 3.589975 C 47.70996 3.466709 47.54763 3.32728 47.48498 3.182459 C 47.46478 3.135305 47.45737 3.086809 47.4823 3.038986 C 47.49577 3.012712 47.51193 2.988468 47.52944 2.964891 C 47.57726 2.902248 47.6325 2.84432 47.67628 2.780331 C 47.714 2.723076 47.7423 2.661104 47.78271 2.608568 C 47.80426 2.581621 47.82784 2.556702 47.86219 2.539862 C 47.9053 2.517633 47.95111 2.499447 47.99893 2.486649 C 48.04607 2.474522 48.09525 2.466438 48.14375 2.465765 C 48.14914 2.465096 48.19157 2.46644 48.22121 2.459705 C 48.2293 2.457687 48.23535 2.444883 48.23805 2.450951 C 48.24007 2.454315 48.24074 2.442192 48.2394 2.443541 C 48.23333 2.445559 48.23333 2.438148 48.22997 2.436131 Z M 48.22525 2.43074 C 48.22592 2.432762 48.22593 2.435457 48.22862 2.435457 L 48.22997 2.436131 C 48.22862 2.434109 48.2266 2.432762 48.22525 2.43074 Z M 48.21717 2.413902 C 48.21515 2.421312 48.2138 2.427374 48.2239 2.429396 L 48.22458 2.429396 C 48.22121 2.42535 48.21851 2.419964 48.21717 2.413902 Z" fill-rule="evenodd" fill="#FEFAE0" fill-opacity="1" stroke="none" stroke-opacity="1" stroke-width="0.4703704" stroke-linecap="butt" stroke-linejoin="miter"/>
<path id="path_5abea56ae4fa90d7ff89de95a9e5f9c8" d="M 47.36979 3.249811 C 47.37585 3.256548 47.38461 3.261261 47.39471 3.261934 C 47.4156 3.264629 47.43379 3.249138 47.4358 3.228258 C 47.44119 3.224213 47.43311 3.220848 47.43647 3.216805 C 47.44793 3.201984 47.423 3.204679 47.41964 3.187166 C 47.41829 3.178413 47.40818 3.187166 47.40145 3.177738 C 47.39539 3.168982 47.39 3.173697 47.37249 3.169655 C 47.35295 3.164938 47.32399 3.18178 47.32062 3.182453 C 47.28829 3.19862 47.25731 3.218151 47.22834 3.240379 C 47.20005 3.261934 47.17446 3.285511 47.14953 3.309757 L 46.83362 3.643181 C 46.74807 3.730747 46.58103 3.845932 46.48269 3.97526 C 46.42812 4.046659 46.39378 4.122097 46.3931 4.198889 C 46.3931 4.264898 46.41062 4.328215 46.43756 4.390182 C 46.47932 4.485832 46.54263 4.580135 46.58574 4.675108 C 46.59046 4.686562 46.5945 4.698009 46.60056 4.70879 C 46.60932 4.721588 46.61942 4.726299 46.62885 4.738428 C 46.63289 4.756613 46.65176 4.768738 46.66994 4.764023 C 46.6888 4.759981 46.70025 4.741795 46.69554 4.723608 C 46.69891 4.700033 46.70227 4.6805 46.69823 4.656923 C 46.67196 4.496611 46.51367 4.358524 46.51704 4.200233 C 46.51906 4.130854 46.56621 4.067539 46.62347 4.005571 C 46.72181 3.901163 46.85451 3.808882 46.92725 3.734787 L 47.24046 3.399347 C 47.26067 3.377792 47.28223 3.356911 47.3058 3.338047 C 47.32735 3.319862 47.35026 3.303022 47.37519 3.289551 C 47.37653 3.288877 47.39135 3.262609 47.39741 3.27002 C 47.40145 3.274733 47.39135 3.261263 47.38866 3.264631 C 47.38596 3.265974 47.38528 3.259912 47.38259 3.261261 C 47.37249 3.267323 47.37249 3.258566 47.36979 3.249811 Z M 47.36037 3.230274 C 47.35902 3.232969 47.35767 3.235666 47.36104 3.237011 L 47.36305 3.238358 L 47.36171 3.235666 C 47.36171 3.234993 47.36171 3.232969 47.36104 3.231623 L 47.36037 3.230274 Z" fill-rule="evenodd" fill="#FEFAE0" fill-opacity="1" stroke="none" stroke-opacity="1" stroke-width="0.4703704" stroke-linecap="butt" stroke-linejoin="miter"/>
<path id="path_c8a2f4b5dc571fd6852051fb1ada23ea" d="M 58.37073 8.364317 C 57.85109 8.728607 55.98384 9.109182 54.51582 12.2758 C 53.30583 14.88586 53.12849 17.90604 52.88177 18.3441 C 52.81216 17.86239 53.28777 14.19508 54.58372 11.71458 C 55.87408 9.244795 57.83414 8.418711 58.37073 8.364317 Z" fill-rule="evenodd" fill="#FEFAE0" fill-opacity="1" stroke="none" stroke-opacity="1" stroke-width="0.4703704" stroke-linecap="butt" stroke-linejoin="miter"/>
<path id="path_ea0a9de20aeddda35858fcced5b5ca6f" d="M 57.53549 13.88566 C 57.50047 13.92002 57.47016 13.9537 57.45803 13.96178 C 57.27549 14.08976 57.08958 14.211 56.90974 14.34168 C 56.78917 14.42991 56.67061 14.52287 56.55678 14.62121 C 56.16206 14.95666 55.88186 15.40594 55.52419 15.77304 C 55.37735 15.92392 55.21702 16.06133 55.02909 16.1691 C 54.88023 16.25599 54.72128 16.32605 54.55962 16.38937 C 54.31241 16.48704 54.05645 16.56989 53.81059 16.66217 C 53.66578 16.7174 53.49063 16.78341 53.34245 16.87704 C 53.30136 16.90263 53.26094 16.92823 53.22659 16.95989 C 53.17135 17.01041 53.12892 17.06901 53.09659 17.133 C 53.08514 17.14984 53.08986 17.17206 53.1067 17.18285 C 53.12354 17.1943 53.14576 17.18958 53.15653 17.17274 C 53.19089 17.13367 53.23333 17.10403 53.27644 17.0717 C 53.33774 17.0259 53.40509 16.98279 53.47716 16.94709 C 53.60447 16.88444 53.74189 16.83797 53.85976 16.79823 C 54.10966 16.71269 54.36967 16.64129 54.62024 16.54833 C 54.79268 16.48501 54.95904 16.41092 55.11666 16.32066 C 55.31806 16.20345 55.48983 16.05459 55.6461 15.89024 C 55.99703 15.52314 56.27051 15.07655 56.65984 14.74111 C 56.74269 14.66971 56.8289 14.60303 56.91647 14.53769 C 57.12259 14.38209 57.33611 14.2366 57.54626 14.08571 C 57.57388 14.06551 57.70456 13.9894 57.76788 13.9281 C 57.81031 13.88634 57.82513 13.84188 57.82109 13.81157 C 57.81638 13.77587 57.77193 13.72872 57.68705 13.72468 C 57.58332 13.71861 57.39606 13.75027 57.37248 13.75364 C 57.1758 13.78193 56.97911 13.81224 56.7831 13.84862 C 56.58709 13.88499 56.39107 13.92608 56.19775 13.97727 C 55.70335 14.10794 55.215 14.33427 54.77583 14.63199 C 54.3353 14.93039 53.94396 15.30086 53.64488 15.71915 C 53.54049 15.86532 53.44012 16.01755 53.35188 16.17651 C 53.29261 16.28159 53.24006 16.39139 53.19022 16.50118 C 53.1397 16.61771 53.10198 16.77937 53.0528 16.90331 C 53.04877 16.91408 53.0427 16.92419 53.04404 16.93497 C 53.04607 16.95719 53.04674 16.93699 53.05819 16.95518 C 53.04607 16.97201 53.05011 16.99559 53.06762 17.00772 C 53.08446 17.01984 53.10804 17.01579 53.12017 16.99896 C 53.14307 17.00569 53.11949 17.00704 53.14307 17.00434 C 53.14846 17.00367 53.15115 17.0003 53.15519 16.99627 C 53.17607 16.97808 53.18887 16.95114 53.20301 16.92487 C 53.26161 16.81641 53.29193 16.67361 53.34312 16.57325 C 53.40711 16.44325 53.47919 16.31594 53.55463 16.19065 C 53.62939 16.06537 53.7082 15.94211 53.79173 15.82288 C 54.07597 15.41941 54.44981 15.06106 54.8708 14.77075 C 55.29247 14.47976 55.76195 14.25748 56.23817 14.12748 C 56.42745 14.07629 56.61808 14.03318 56.81139 13.99613 C 57.00403 13.95909 57.19869 13.9281 57.39336 13.89846 C 57.40482 13.89711 57.46881 13.89105 57.53549 13.88566 Z" fill-rule="evenodd" fill="#FEFAE0" fill-opacity="1" stroke="none" stroke-opacity="1" stroke-width="0.4703704" stroke-linecap="butt" stroke-linejoin="miter"/>
<path id="path_06f200171788ae2eaed0a6a77215d35f" d="M 48.27644 10.34262 C 48.33034 10.35947 48.38287 10.379 48.43541 10.39921 C 48.49603 10.42346 48.55598 10.44972 48.61526 10.47734 C 48.88132 10.59792 49.1393 10.74274 49.3892 10.90035 C 49.63977 11.05865 49.88227 11.23175 50.11533 11.40756 C 50.37128 11.60088 50.60905 11.80969 50.83471 12.03129 C 51.06103 12.25358 51.27456 12.48866 51.4827 12.73317 C 51.81073 13.11509 52.09228 13.47815 52.32063 13.87017 C 52.54696 14.25815 52.72074 14.6751 52.83255 15.16951 C 52.84265 15.21397 52.8568 15.26381 52.87498 15.31703 C 52.91675 15.43895 52.96862 15.57838 53.0124 15.69895 C 53.03328 15.75889 53.05752 15.80874 53.06628 15.85656 C 53.06628 15.87745 53.08312 15.89429 53.104 15.89429 C 53.12556 15.89429 53.14172 15.87745 53.14172 15.85656 C 53.15184 15.80807 53.15654 15.75283 53.15048 15.68952 C 53.14846 15.66729 53.1424 15.64506 53.13769 15.62216 C 53.10063 15.45376 53.0326 15.26381 53.00835 15.12977 C 52.89384 14.61583 52.71535 14.18137 52.47892 13.77722 C 52.24452 13.37711 51.95353 13.00731 51.61472 12.61866 C 51.39984 12.37348 51.17958 12.13839 50.94653 11.91611 C 50.71279 11.69316 50.46693 11.483 50.20289 11.28968 C 49.96376 11.11523 49.71589 10.94414 49.45992 10.78719 C 49.20329 10.6289 48.93857 10.48408 48.66577 10.36418 L 48.29059 10.21667 C 48.28183 10.21397 48.20976 10.18636 48.16934 10.18568 C 48.12219 10.18501 48.09525 10.21061 48.08649 10.24226 C 48.07638 10.27662 48.09053 10.32713 48.13364 10.379 C 48.21111 10.46993 48.38287 10.58646 48.41722 10.61475 C 48.65229 10.81144 48.89277 11.00206 49.11774 11.2102 C 49.26459 11.34627 49.40537 11.48974 49.53133 11.64803 C 49.8661 12.06834 49.91931 12.59508 50.14967 13.04638 C 50.20962 13.16493 50.28169 13.27877 50.37196 13.38452 C 50.53968 13.58053 50.72222 13.77857 50.91284 13.96852 C 51.10414 14.15846 51.30285 14.34033 51.50155 14.50603 C 51.84441 14.79029 52.18861 15.06713 52.48363 15.38708 C 52.63923 15.55615 52.77597 15.74003 52.90058 15.94009 C 52.93089 15.98926 52.9639 16.03708 52.99354 16.08828 C 53.00364 16.1105 53.03058 16.12061 53.05281 16.10983 C 53.07504 16.09973 53.08514 16.07278 53.07504 16.05056 C 53.05416 15.99263 53.03395 15.93605 53.00835 15.88149 C 52.90125 15.65853 52.75576 15.46521 52.59612 15.28537 C 52.30312 14.95329 51.94746 14.67712 51.59989 14.38816 C 51.40455 14.22515 51.20922 14.04598 51.02197 13.8594 C 50.83404 13.67281 50.65351 13.47815 50.48849 13.28483 C 50.4063 13.18851 50.34097 13.08478 50.28574 12.97701 C 50.05066 12.51762 49.99071 11.98212 49.6492 11.5544 C 49.51718 11.39072 49.37101 11.24118 49.21609 11.10176 C 48.98774 10.89496 48.74121 10.70704 48.50142 10.51304 C 48.47918 10.49486 48.39634 10.43962 48.3209 10.37967 C 48.30541 10.36688 48.29059 10.35475 48.27644 10.34262 Z" fill-rule="evenodd" fill="#FEFAE0" fill-opacity="1" stroke="none" stroke-opacity="1" stroke-width="0.4703704" stroke-linecap="butt" stroke-linejoin="miter"/>
<path id="path_af4c9aeae6306cf6f83e3e22a54bb731" d="M 58.35323 8.334013 L 58.33504 8.343443 C 58.32561 8.342094 58.31618 8.344788 58.30877 8.350853 C 58.30001 8.356915 58.2953 8.366344 58.29395 8.376448 C 58.28991 8.386553 58.28991 8.398678 58.2953 8.408783 L 58.29327 8.411474 C 58.2468 8.451891 58.2926 8.381834 58.29799 8.423599 C 58.30001 8.439089 58.32224 8.435722 58.32965 8.436398 C 58.34447 8.437071 58.35592 8.433027 58.3667 8.424944 C 58.36939 8.422928 58.37276 8.420231 58.37545 8.416189 C 58.41722 8.395979 58.45898 8.374426 58.50209 8.355566 C 58.53442 8.342094 58.56742 8.330641 58.6011 8.321215 C 58.75401 8.284166 58.91027 8.278105 59.06453 8.251833 C 59.13323 8.240383 59.20058 8.22489 59.26795 8.201988 C 59.32116 8.183128 59.36899 8.158205 59.41344 8.129913 C 59.51179 8.067945 59.59733 7.988464 59.70308 7.935251 C 59.80075 7.886753 59.98598 7.894163 60.11464 7.844992 C 60.19209 7.816027 60.25069 7.768204 60.27562 7.692762 C 60.28572 7.661106 60.28909 7.629446 60.28707 7.597111 C 60.2837 7.539186 60.26283 7.479912 60.26552 7.42333 C 60.26686 7.390322 60.27562 7.359341 60.28775 7.329702 C 60.30728 7.279184 60.33624 7.231358 60.3605 7.182861 C 60.37666 7.153896 60.39754 7.112808 60.39687 7.075762 C 60.39687 7.052185 60.39013 7.029957 60.37262 7.010424 C 60.35713 6.991564 60.3349 6.978764 60.31132 6.970684 C 60.28437 6.961927 60.2534 6.958555 60.2278 6.956539 C 60.18267 6.952494 60.13821 6.951149 60.09443 6.950474 C 60.02909 6.950474 59.96442 6.953169 59.89841 6.955191 C 59.80546 6.957209 59.71318 6.957209 59.62225 6.969336 C 59.55893 6.977419 59.49628 6.991564 59.43499 7.014463 C 59.34608 7.048145 59.26458 7.095966 59.18846 7.151199 C 59.07867 7.230682 58.9783 7.325661 58.87592 7.411879 C 58.80721 7.472502 58.73177 7.528408 58.66239 7.588358 C 58.63073 7.615301 58.59975 7.642918 58.57079 7.672554 C 58.50949 7.733177 58.45628 7.801882 58.41115 7.875303 C 58.3667 7.949394 58.331 8.028877 58.30607 8.111731 L 58.27374 8.29023 L 58.27307 8.349504 C 58.27307 8.358261 58.28048 8.386553 58.28048 8.386553 C 58.28048 8.386553 58.28654 8.356915 58.28923 8.352869 C 58.30203 8.331316 58.32224 8.324581 58.34716 8.330643 C 58.34918 8.331318 58.3512 8.332664 58.35323 8.334013 Z M 58.38286 8.352869 C 58.40509 8.338051 58.41856 8.327278 58.38286 8.344118 L 58.38286 8.345463 C 58.38286 8.347483 58.38286 8.350178 58.38286 8.352869 Z M 58.38421 8.31852 C 58.41183 8.304375 58.43944 8.29023 58.46773 8.278105 C 58.50411 8.261938 58.54183 8.247791 58.58022 8.237688 C 58.7338 8.197947 58.89277 8.189192 59.04836 8.160902 C 59.11168 8.149452 59.17432 8.134632 59.23629 8.112404 C 59.28142 8.095564 59.32251 8.073334 59.36158 8.048414 C 59.46194 7.983076 59.54951 7.901573 59.65796 7.845665 C 59.75697 7.794474 59.94624 7.799185 60.07691 7.747324 C 60.12271 7.729809 60.15977 7.704884 60.17391 7.659758 C 60.18064 7.640894 60.18132 7.621363 60.18065 7.60183 C 60.17795 7.540531 60.16112 7.477215 60.16582 7.416595 C 60.16919 7.372812 60.18132 7.33172 60.19816 7.292656 C 60.22106 7.240116 60.2534 7.190269 60.28168 7.140425 C 60.28775 7.128302 60.2965 7.114157 60.30257 7.098663 C 60.3066 7.088558 60.312 7.077784 60.30459 7.069025 C 60.29717 7.060942 60.28573 7.057573 60.27428 7.05488 C 60.25609 7.050837 60.23655 7.049492 60.21972 7.048145 L 59.90179 7.052185 C 59.8122 7.056231 59.72328 7.057573 59.63639 7.070374 C 59.58116 7.078457 59.5266 7.091255 59.47271 7.112135 C 59.39323 7.143793 59.32116 7.188923 59.25313 7.239441 C 59.1467 7.318924 59.04971 7.413225 58.95069 7.499445 L 58.64421 7.745975 C 58.59033 7.801208 58.54317 7.863178 58.50478 7.930536 C 58.46773 7.997221 58.43944 8.069294 58.41991 8.143387 L 58.38556 8.302353 L 58.38421 8.31852 Z" fill-rule="evenodd" fill="#FEFAE0" fill-opacity="1" stroke="none" stroke-opacity="1" stroke-width="0.4703704" stroke-linecap="butt" stroke-linejoin="miter"/>
<path id="path_57a606555e4d7759573643b05224c553" d="M 58.24924 8.385456 C 58.54313 8.480124 60.144 9.245821 60.7478 9.000181 C 60.4539 8.594896 60.54149 8.797806 60.44469 8.641836 C 60.3654 8.514086 60.38231 8.371679 60.30862 8.324579 C 60.1692 8.235462 60.16805 8.504183 59.25822 8.156816 C 59.72604 8.078972 59.62714 8.183178 59.87551 8.218828 C 60.16668 8.26062 60.21983 8.118731 60.38069 8.225563 C 60.53164 8.325802 60.41587 8.390381 60.6023 8.638466 C 60.89278 9.025005 60.75684 8.553864 60.83158 9.064171 C 60.4698 9.308186 60.61101 9.223122 59.50841 8.965828 C 58.08018 8.632547 58.2566 8.395342 58.24924 8.385456 Z M 58.30203 8.393955 L 58.30876 8.412819 C 58.30858 8.412827 58.30188 8.394039 58.30203 8.393955 Z" fill-rule="evenodd" fill="#FEFAE0" fill-opacity="1" stroke="none" stroke-opacity="1" stroke-width="0.4703704" stroke-linecap="butt" stroke-linejoin="miter"/>
<path id="path_0a2964ef2f2d9a0dee60fa98f77cdffd" d="M 60.32008 7.208454 C 60.33624 7.19768 60.34299 7.1768 60.33491 7.157936 C 60.32547 7.138403 60.3019 7.128971 60.28169 7.138403 C 60.26687 7.117521 60.28237 7.149179 60.26957 7.137054 C 60.2561 7.124931 60.27563 7.143114 60.26081 7.140423 C 60.24734 7.138403 60.25137 7.157936 60.24667 7.166019 C 60.24397 7.170732 60.24599 7.176798 60.24599 7.181511 C 60.24599 7.190268 60.25003 7.199028 60.2561 7.208454 C 60.25946 7.213842 60.2891 7.227318 60.30055 7.235397 L 60.3376 7.265709 C 60.35646 7.2812 60.37532 7.298042 60.39216 7.316227 C 60.40899 7.334417 60.42382 7.353949 60.43594 7.373482 C 60.45211 7.399754 60.46087 7.429392 60.46693 7.4597 C 60.47905 7.515612 60.48242 7.573534 60.49522 7.628096 L 60.54776 7.787735 C 60.55719 7.847681 60.54439 7.891466 60.51677 7.925819 C 60.45076 8.009346 60.31739 8.042347 60.22443 8.111055 C 60.19547 8.132608 60.17257 8.15753 60.15237 8.184477 C 60.13957 8.196602 60.13889 8.216806 60.15102 8.229605 C 60.16314 8.243076 60.18335 8.243076 60.19614 8.230951 C 60.22039 8.216133 60.24667 8.208723 60.27428 8.1966 C 60.39283 8.14406 60.53226 8.094215 60.61107 8.003956 C 60.66024 7.947374 60.68652 7.87328 60.67439 7.770895 L 60.61848 7.599806 C 60.60232 7.535143 60.59894 7.465092 60.57941 7.401772 C 60.56931 7.368767 60.55584 7.337109 60.53698 7.308144 C 60.51947 7.283224 60.49926 7.258972 60.47703 7.236071 C 60.45547 7.213842 60.4319 7.193636 60.409 7.175449 L 60.35646 7.143791 C 60.34838 7.13975 60.32008 7.132339 60.32008 7.132339 C 60.32008 7.132339 60.33962 7.151199 60.34232 7.155918 C 60.34771 7.166019 60.34703 7.1768 60.34568 7.186899 C 60.34501 7.193636 60.33625 7.198351 60.33625 7.206434 C 60.3376 7.219906 60.31874 7.197006 60.32615 7.213173 C 60.33019 7.221926 60.32479 7.213842 60.32008 7.208454 Z" fill-rule="evenodd" fill="#FEFAE0" fill-opacity="1" stroke="none" stroke-opacity="1" stroke-width="0.4703704" stroke-linecap="butt" stroke-linejoin="miter"/>
<path id="path_103867d29feab3356f6b6b08622cde3d" d="M 60.66428 8.787998 C 60.73749 8.385389 60.76529 8.520824 60.75784 8.346468 C 60.73971 7.922644 60.7004 8.39278 60.59583 7.835306 C 61.14295 8.292789 60.717 8.726959 60.66428 8.787998 Z M 60.6461 7.880684 C 60.64975 7.883886 60.65443 7.879141 60.65014 7.877991 C 60.64514 7.876652 60.64558 7.880232 60.6461 7.880684 Z" fill-rule="evenodd" fill="#FEFAE0" fill-opacity="1" stroke="none" stroke-opacity="1" stroke-width="0.4703704" stroke-linecap="butt" stroke-linejoin="miter"/>
<path id="path_077a90773b20f49443fddd976646d171" d="M 60.56931 7.864521 L 60.56796 7.864521 C 60.5705 7.865128 60.56062 7.859009 60.55979 7.861486 C 60.55885 7.864328 60.56916 7.867514 60.56931 7.864521 Z" fill-rule="evenodd" fill="#FEFAE0" fill-opacity="1" stroke="none" stroke-opacity="1" stroke-width="0.4703704" stroke-linecap="butt" stroke-linejoin="miter"/>
<path id="path_9a0fec3a63790d013b4b2a2a4d69ad61" d="M 2.924969 23.484 L 2.924969 23.39239 L 3.118959 23.32503 C 3.242899 23.28192 3.322382 23.22534 3.358755 23.15529 C 3.396475 23.08389 3.415337 22.98285 3.415337 22.85352 L 3.415337 18.00105 C 3.415337 17.87711 3.397823 17.78011 3.364143 17.71006 C 3.329792 17.63866 3.254351 17.58073 3.137821 17.53762 L 2.924969 17.4541 L 2.924969 17.36249 L 5.576187 17.36249 C 6.307022 17.36249 6.867443 17.4999 7.257446 17.77472 C 7.646776 18.04954 7.842115 18.43146 7.842115 18.91981 C 7.842115 19.19328 7.739731 19.46608 7.534962 19.73888 C 7.330193 20.01034 7.008221 20.21982 6.570393 20.36666 L 7.858282 22.92627 C 7.913515 23.0327 7.977505 23.11757 8.04958 23.18223 C 8.120979 23.24689 8.215281 23.30482 8.332483 23.35467 L 8.453728 23.40047 L 8.453728 23.484 L 6.791328 23.484 L 5.419916 20.56065 L 4.789444 20.56065 L 4.789442 22.85352 C 4.789442 22.97073 4.806955 23.06638 4.84333 23.14182 C 4.88105 23.21591 4.959185 23.27114 5.077736 23.30886 L 5.298672 23.39239 L 5.298672 23.484 L 2.924969 23.484 Z M 4.789444 20.37744 L 5.234007 20.37744 C 5.679245 20.37744 6.000544 20.25822 6.198576 20.01909 C 6.395935 19.78065 6.494953 19.42634 6.494953 18.95753 C 6.494953 18.48198 6.401999 18.12768 6.217436 17.89597 C 6.032202 17.6629 5.71966 17.5457 5.27981 17.5457 L 4.789444 17.5457 L 4.789444 20.37744 Z" fill-rule="evenodd" fill="#FEFAE0" fill-opacity="1" stroke="none" stroke-opacity="1" stroke-width="0.4703704" stroke-linecap="butt" stroke-linejoin="miter"/>
<path id="path_3f653b59d934283596ceb502be96e1b1" d="M 11.05885 18.88208 C 11.46097 18.88208 11.80383 18.96494 12.08808 19.12996 C 12.37368 19.29364 12.59192 19.5166 12.7428 19.79815 C 12.89368 20.07837 12.96912 20.39832 12.96912 20.75734 C 12.96912 20.82605 12.96508 20.89609 12.95835 20.96749 C 12.95296 21.03754 12.94083 21.10086 12.92332 21.15609 L 10.15894 21.15609 C 10.16568 21.82429 10.28557 22.3059 10.51729 22.60025 C 10.749 22.89326 11.09387 23.03943 11.55191 23.03943 C 11.86041 23.03943 12.11031 22.99026 12.30093 22.89124 C 12.4929 22.7929 12.67275 22.64741 12.8398 22.45477 L 12.9341 22.53828 C 12.74145 22.87777 12.48549 23.14383 12.16621 23.3358 C 11.84828 23.52777 11.46636 23.6241 11.02113 23.6241 C 10.58262 23.6241 10.19262 23.5298 9.851788 23.34119 C 9.512302 23.15259 9.246235 22.88248 9.054264 22.5302 C 8.86364 22.17657 8.768665 21.75558 8.768665 21.26656 C 8.768665 20.76003 8.879808 20.32894 9.102764 19.97329 C 9.325047 19.61764 9.610645 19.34753 9.95956 19.16229 C 10.30982 18.97571 10.67625 18.88208 11.05885 18.88208 Z M 11.0319 19.06799 C 10.85206 19.06799 10.69848 19.12323 10.57117 19.23235 C 10.44521 19.34012 10.3462 19.53142 10.2748 19.80624 C 10.20474 20.08106 10.16568 20.46904 10.15894 20.97019 L 11.7459 20.97019 C 11.80652 20.2966 11.7816 19.81163 11.67046 19.51525 C 11.55864 19.21753 11.34579 19.06799 11.0319 19.06799 Z" fill-rule="evenodd" fill="#FEFAE0" fill-opacity="1" stroke="none" stroke-opacity="1" stroke-width="0.4703704" stroke-linecap="butt" stroke-linejoin="miter"/>
<path id="path_958ff27cf9441578ba2e66a3f479fe25" d="M 13.43348 23.484 L 13.43348 23.39239 L 13.5628 23.35467 C 13.7797 23.29203 13.88882 23.14047 13.88882 22.89933 L 13.88882 19.99485 C 13.88882 19.86013 13.86592 19.76044 13.82146 19.69577 C 13.77835 19.62976 13.6955 19.58463 13.57358 19.56106 L 13.43348 19.52334 L 13.43348 19.42904 L 15.02044 18.89286 L 15.11204 18.98447 L 15.18748 19.5422 C 15.40303 19.35023 15.64619 19.19194 15.91765 19.068 C 16.19045 18.94406 16.45988 18.88209 16.72594 18.88209 C 17.13346 18.88209 17.44668 18.9939 17.66626 19.21619 C 17.8872 19.43914 17.99767 19.7793 17.99767 20.23734 L 17.99767 22.91011 C 17.99767 23.15125 18.11487 23.30213 18.35062 23.36275 L 18.43415 23.39239 L 18.43415 23.484 L 16.24366 23.484 L 16.24366 23.39239 L 16.3649 23.35467 C 16.58045 23.28664 16.68822 23.13508 16.68822 22.89933 L 16.68822 19.94096 C 16.68822 19.54422 16.49019 19.34551 16.09547 19.34551 C 15.82402 19.34551 15.52697 19.48225 15.20365 19.75505 L 15.20365 22.91011 C 15.20365 23.15125 15.3121 23.30213 15.52966 23.36275 L 15.61319 23.39239 L 15.61319 23.484 L 13.43348 23.484 Z" fill-rule="evenodd" fill="#FEFAE0" fill-opacity="1" stroke="none" stroke-opacity="1" stroke-width="0.4703704" stroke-linecap="butt" stroke-linejoin="miter"/>
<path id="path_64c17d57a1d660fd90030ffe749b6abf" d="M 20.55663 23.62411 C 20.16124 23.62411 19.85342 23.52509 19.63248 23.32774 C 19.41289 23.12835 19.30377 22.81244 19.30377 22.37933 L 19.30377 19.20811 L 18.66522 19.20811 L 18.66522 19.11381 L 18.88615 19.07878 C 19.07812 19.03432 19.24315 18.97235 19.38191 18.89287 C 19.52201 18.81204 19.6601 18.70359 19.79683 18.56686 L 20.55663 17.72353 L 20.64824 17.72353 L 20.6213 19.0222 L 21.66131 19.0222 L 21.66131 19.20811 L 20.61322 19.20811 L 20.61321 22.54638 C 20.61321 22.76395 20.66037 22.9283 20.75602 23.03944 C 20.85099 23.15126 20.97291 23.20649 21.12244 23.20649 C 21.25177 23.20649 21.3656 23.17416 21.46462 23.10949 C 21.56499 23.04348 21.66468 22.95457 21.76369 22.84275 L 21.8553 22.93706 C 21.73136 23.14721 21.56027 23.31426 21.34338 23.4382 C 21.12783 23.56214 20.86513 23.62411 20.55663 23.62411 Z" fill-rule="evenodd" fill="#FEFAE0" fill-opacity="1" stroke="none" stroke-opacity="1" stroke-width="0.4703704" stroke-linecap="butt" stroke-linejoin="miter"/>
<path id="path_c6a177de65b119346c7f44de70d51c8c" d="M 22.3288 21.25848 L 22.3288 21.00791 L 24.66478 21.00791 L 24.66478 21.25848 L 22.3288 21.25848 Z" fill-rule="evenodd" fill="#FEFAE0" fill-opacity="1" stroke="none" stroke-opacity="1" stroke-width="0.4703704" stroke-linecap="butt" stroke-linejoin="miter"/>
<path id="path_648f2e9968bd5a4e4260557af5b35124" d="M 26.57751 23.6241 C 26.21782 23.6241 25.91605 23.52171 25.67222 23.31694 C 25.42771 23.11217 25.30579 22.8185 25.30579 22.4359 C 25.30579 22.14491 25.45398 21.8775 25.75035 21.63299 C 26.04673 21.38915 26.51352 21.20459 27.1514 21.08065 C 27.24974 21.06314 27.36156 21.04293 27.4855 21.02138 C 27.60944 20.99982 27.73944 20.97692 27.87617 20.95132 L 27.87617 20.21847 C 27.87617 19.79815 27.82499 19.5038 27.7226 19.33473 C 27.62022 19.16431 27.4599 19.07877 27.24301 19.07877 C 27.09549 19.07877 26.97762 19.12659 26.89005 19.22157 C 26.80383 19.31722 26.7486 19.48225 26.7257 19.71732 L 26.70684 19.81971 C 26.69404 20.08577 26.6287 20.28044 26.51015 20.40438 C 26.39295 20.52832 26.2488 20.59029 26.07636 20.59029 C 25.91471 20.59029 25.78066 20.54111 25.67491 20.4421 C 25.57051 20.34376 25.51864 20.21039 25.51864 20.04334 C 25.51864 19.78872 25.60621 19.57452 25.78268 19.40209 C 25.95849 19.22965 26.19222 19.10032 26.48321 19.01411 C 26.7742 18.92654 27.08943 18.88208 27.42892 18.88208 C 27.97991 18.88208 28.40561 19.0168 28.70603 19.28623 C 29.00577 19.55566 29.15598 19.99349 29.15598 20.59837 L 29.15598 22.64875 C 29.15598 22.92762 29.28531 23.06637 29.54396 23.06637 L 29.74873 23.06637 L 29.83226 23.14182 C 29.71506 23.28933 29.58707 23.40316 29.44697 23.48399 C 29.30821 23.56482 29.11287 23.60524 28.85961 23.60524 C 28.58613 23.60524 28.37058 23.54192 28.21297 23.41663 C 28.05468 23.28933 27.95162 23.12026 27.90312 22.9101 C 27.71789 23.10814 27.52726 23.27653 27.33192 23.41663 C 27.13793 23.55472 26.88601 23.6241 26.57751 23.6241 Z M 27.14332 23.05829 C 27.26524 23.05829 27.38042 23.02865 27.48819 22.96938 C 27.59731 22.9101 27.72664 22.8185 27.87617 22.69456 L 27.87617 21.13723 C 27.81286 21.15003 27.75022 21.16283 27.68757 21.17496 C 27.62628 21.18775 27.55623 21.1992 27.47742 21.20998 C 27.19182 21.28542 26.96347 21.41138 26.79306 21.58719 C 26.62399 21.76366 26.53979 21.99942 26.53979 22.2958 C 26.53979 22.54906 26.59772 22.73968 26.71492 22.86699 C 26.83347 22.99497 26.97627 23.05829 27.14332 23.05829 Z" fill-rule="evenodd" fill="#FEFAE0" fill-opacity="1" stroke="none" stroke-opacity="1" stroke-width="0.4703704" stroke-linecap="butt" stroke-linejoin="miter"/>
<path id="path_a28e4004d0f853eff4bd27477324f47e" d="M 30.21273 21.25848 L 30.21273 21.00791 L 32.54871 21.00791 L 32.54871 21.25848 L 30.21273 21.25848 Z" fill-rule="evenodd" fill="#FEFAE0" fill-opacity="1" stroke="none" stroke-opacity="1" stroke-width="0.4703704" stroke-linecap="butt" stroke-linejoin="miter"/>
<path id="path_92880a642bb5c17a07915befc14f40c4" d="M 33.12507 23.484 L 33.12507 23.39239 L 33.31098 23.32503 C 33.4329 23.28933 33.51373 23.23477 33.55347 23.16068 C 33.59456 23.08524 33.61544 22.98555 33.61544 22.86161 L 33.61544 18.00105 C 33.61544 17.87711 33.59389 17.77876 33.55078 17.70467 C 33.50767 17.63125 33.42414 17.57265 33.3002 17.52954 L 33.12507 17.4541 L 33.12507 17.36249 L 35.37753 17.36249 C 36.29899 17.36249 36.96516 17.53156 37.37672 17.86902 C 37.7876 18.20514 37.99372 18.64768 37.99372 19.19732 C 37.99372 19.55163 37.90818 19.87562 37.73776 20.16998 C 37.5687 20.46298 37.28915 20.69537 36.89983 20.86781 C 36.50982 21.04025 35.98443 21.12646 35.32364 21.12646 L 35.00841 21.12646 L 35.00841 22.83466 C 35.00841 23.07581 35.1283 23.23343 35.36945 23.30886 L 35.64697 23.39239 L 35.64697 23.484 L 33.12507 23.484 Z M 35.00841 20.94325 L 35.36136 20.94325 C 35.66312 20.94325 35.90966 20.89408 36.1023 20.79506 C 36.29427 20.69469 36.4364 20.52158 36.52801 20.27505 C 36.62096 20.02718 36.66811 19.68432 36.66811 19.24582 C 36.66811 18.80058 36.61692 18.45369 36.51453 18.20581 C 36.41214 17.95794 36.26194 17.78684 36.06458 17.6912 C 35.86655 17.5942 35.62002 17.5457 35.32364 17.5457 L 35.00841 17.5457 L 35.00841 20.94325 Z" fill-rule="evenodd" fill="#FEFAE0" fill-opacity="1" stroke="none" stroke-opacity="1" stroke-width="0.4703704" stroke-linecap="butt" stroke-linejoin="miter"/>
<path id="path_6ba60a7eba4b08532b16bf9bf23af807" d="M 38.37365 23.484 L 38.37365 23.39239 L 38.48682 23.35467 C 38.70775 23.27923 38.81822 23.12498 38.81822 22.89125 L 38.81821 17.9283 C 38.81821 17.80436 38.79262 17.71006 38.74277 17.64539 C 38.69427 17.57938 38.60873 17.53088 38.48681 17.4999 L 38.36557 17.47295 L 38.36557 17.38135 L 40.063 16.97989 L 40.17346 17.06342 L 40.13574 18.36208 L 40.13574 21.536 C 40.13574 21.76434 40.1371 21.99134 40.14114 22.21766 C 40.1445 22.44399 40.14652 22.66896 40.14652 22.89125 C 40.14652 23.01519 40.17077 23.11622 40.21927 23.19301 C 40.26912 23.27047 40.35264 23.32705 40.46984 23.36275 L 40.59108 23.39239 L 40.59108 23.484 L 38.37365 23.484 Z" fill-rule="evenodd" fill="#FEFAE0" fill-opacity="1" stroke="none" stroke-opacity="1" stroke-width="0.4703704" stroke-linecap="butt" stroke-linejoin="miter"/>
<path id="path_fcf9fc7e54759db669f9192f062ed639" d="M 42.35463 23.6241 C 41.99494 23.6241 41.69317 23.52171 41.44934 23.31694 C 41.20483 23.11217 41.08291 22.8185 41.08291 22.4359 C 41.08291 22.14491 41.2311 21.8775 41.52747 21.63299 C 41.82385 21.38915 42.29064 21.20459 42.92852 21.08065 C 43.02687 21.06314 43.13868 21.04293 43.26262 21.02138 C 43.38656 20.99982 43.51656 20.97692 43.6533 20.95132 L 43.6533 20.21847 C 43.6533 19.79815 43.60211 19.5038 43.49973 19.33473 C 43.39734 19.16431 43.23702 19.07877 43.02013 19.07877 C 42.87262 19.07877 42.75474 19.12659 42.66717 19.22157 C 42.58096 19.31722 42.52572 19.48225 42.50282 19.71732 L 42.48396 19.81971 C 42.47116 20.08577 42.40582 20.28044 42.28727 20.40438 C 42.17007 20.52832 42.02592 20.59029 41.85349 20.59029 C 41.69183 20.59029 41.55779 20.54111 41.45203 20.4421 C 41.34763 20.34376 41.29576 20.21039 41.29576 20.04334 C 41.29576 19.78872 41.38333 19.57452 41.5598 19.40209 C 41.73561 19.22965 41.96935 19.10032 42.26033 19.01411 C 42.55132 18.92654 42.86655 18.88208 43.20604 18.88208 C 43.75703 18.88208 44.18273 19.0168 44.48315 19.28623 C 44.78289 19.55566 44.9331 19.99349 44.9331 20.59837 L 44.9331 22.64875 C 44.9331 22.92762 45.06243 23.06637 45.32109 23.06637 L 45.52586 23.06637 L 45.60938 23.14182 C 45.49218 23.28933 45.3642 23.40316 45.22409 23.48399 C 45.08533 23.56482 44.88999 23.60524 44.63673 23.60524 C 44.36325 23.60524 44.14771 23.54192 43.99009 23.41663 C 43.8318 23.28933 43.72874 23.12026 43.68024 22.9101 C 43.49501 23.10814 43.30438 23.27653 43.10904 23.41663 C 42.91505 23.55472 42.66313 23.6241 42.35463 23.6241 Z M 42.92044 23.05829 C 43.04236 23.05829 43.15754 23.02865 43.26532 22.96938 C 43.37444 22.9101 43.50376 22.8185 43.6533 22.69456 L 43.6533 21.13723 C 43.58998 21.15003 43.52734 21.16283 43.46469 21.17496 C 43.4034 21.18775 43.33335 21.1992 43.25454 21.20998 C 42.96894 21.28542 42.74059 21.41138 42.57018 21.58719 C 42.40111 21.76366 42.31691 21.99942 42.31691 22.2958 C 42.31691 22.54906 42.37484 22.73968 42.49204 22.86699 C 42.61059 22.99497 42.75339 23.05829 42.92044 23.05829 Z" fill-rule="evenodd" fill="#FEFAE0" fill-opacity="1" stroke="none" stroke-opacity="1" stroke-width="0.4703704" stroke-linecap="butt" stroke-linejoin="miter"/>
<path id="path_7b674c2c3a7c9fda2106fb8a59412911" d="M 45.80397 23.484 L 45.80397 23.39239 L 45.9333 23.35467 C 46.15019 23.29203 46.25931 23.14047 46.25931 22.89933 L 46.25931 19.99485 C 46.25931 19.86013 46.2364 19.76044 46.19195 19.69577 C 46.14884 19.62976 46.06599 19.58463 45.94407 19.56106 L 45.80397 19.52334 L 45.80397 19.42904 L 47.39093 18.89286 L 47.48253 18.98447 L 47.55798 19.5422 C 47.77352 19.35023 48.01668 19.19194 48.28814 19.068 C 48.56094 18.94406 48.83037 18.88209 49.09644 18.88209 C 49.50395 18.88209 49.81717 18.9939 50.03676 19.21619 C 50.25769 19.43914 50.36816 19.7793 50.36816 20.23734 L 50.36816 22.91011 C 50.36816 23.15125 50.48536 23.30213 50.72112 23.36275 L 50.80464 23.39239 L 50.80464 23.484 L 48.61415 23.484 L 48.61415 23.39239 L 48.73539 23.35467 C 48.95094 23.28664 49.05872 23.13508 49.05872 22.89933 L 49.05872 19.94096 C 49.05872 19.54422 48.86068 19.34551 48.46596 19.34551 C 48.19451 19.34551 47.89746 19.48225 47.57414 19.75505 L 47.57414 22.91011 C 47.57414 23.15125 47.68259 23.30213 47.90015 23.36275 L 47.98368 23.39239 L 47.98368 23.484 L 45.80397 23.484 Z" fill-rule="evenodd" fill="#FEFAE0" fill-opacity="1" stroke="none" stroke-opacity="1" stroke-width="0.4703704" stroke-linecap="butt" stroke-linejoin="miter"/>
<path id="path_e9496414c6797a438fbf8ca3d81429a0" d="M 52.92713 23.62411 C 52.53174 23.62411 52.22391 23.52509 52.00298 23.32774 C 51.78339 23.12835 51.67427 22.81244 51.67427 22.37933 L 51.67427 19.20811 L 51.03571 19.20811 L 51.03571 19.11381 L 51.25665 19.07878 C 51.44862 19.03432 51.61365 18.97235 51.7524 18.89287 C 51.89251 18.81204 52.03059 18.70359 52.16733 18.56686 L 52.92713 17.72353 L 53.01874 17.72353 L 52.99179 19.0222 L 54.03181 19.0222 L 54.03181 19.20811 L 52.98371 19.20811 L 52.98371 22.54638 C 52.98371 22.76395 53.03086 22.9283 53.12651 23.03944 C 53.22149 23.15126 53.34341 23.20649 53.49294 23.20649 C 53.62227 23.20649 53.73611 23.17416 53.83512 23.10949 C 53.93549 23.04348 54.03518 22.95457 54.13419 22.84275 L 54.2258 22.93706 C 54.10186 23.14721 53.93077 23.31426 53.71387 23.4382 C 53.49833 23.56214 53.23563 23.62411 52.92713 23.62411 Z" fill-rule="evenodd" fill="#FEFAE0" fill-opacity="1" stroke="none" stroke-opacity="1" stroke-width="0.4703704" stroke-linecap="butt" stroke-linejoin="miter"/>
</defs>
<g>
<g>
<use xlink:href="#path_883bd0093dc0d0d2aaf43ce351e18e71"/>
</g>
<g>
<use xlink:href="#path_07cd92f95b85c91bd8a9b934c738847b"/>
</g>
<g>
<use xlink:href="#path_e2b5c2b990b2b47df6fb6faa8893fc5b"/>
</g>
<g>
<use xlink:href="#path_a676ee0479143ed2c1a03b56b75a7eaa"/>
</g>
<g>
<use xlink:href="#path_8009509aff705b27db97b804af2664be"/>
</g>
<g>
<use xlink:href="#path_5abea56ae4fa90d7ff89de95a9e5f9c8"/>
</g>
<g>
<use xlink:href="#path_c8a2f4b5dc571fd6852051fb1ada23ea"/>
</g>
<g>
<use xlink:href="#path_ea0a9de20aeddda35858fcced5b5ca6f"/>
</g>
<g>
<use xlink:href="#path_06f200171788ae2eaed0a6a77215d35f"/>
</g>
<g>
<use xlink:href="#path_af4c9aeae6306cf6f83e3e22a54bb731"/>
</g>
<g>
<use xlink:href="#path_57a606555e4d7759573643b05224c553"/>
</g>
<g>
<use xlink:href="#path_0a2964ef2f2d9a0dee60fa98f77cdffd"/>
</g>
<g>
<g>
<use xlink:href="#path_103867d29feab3356f6b6b08622cde3d"/>
</g>
<g>
<use xlink:href="#path_077a90773b20f49443fddd976646d171"/>
</g>
</g>
<g>
<g>
<g>
<g>
<use xlink:href="#path_9a0fec3a63790d013b4b2a2a4d69ad61"/>
</g>
</g>
</g>
</g>
<g>
<g>
<g>
<g>
<use xlink:href="#path_3f653b59d934283596ceb502be96e1b1"/>
</g>
</g>
</g>
</g>
<g>
<g>
<g>
<g>
<use xlink:href="#path_958ff27cf9441578ba2e66a3f479fe25"/>
</g>
</g>
</g>
</g>
<g>
<g>
<g>
<g>
<use xlink:href="#path_64c17d57a1d660fd90030ffe749b6abf"/>
</g>
</g>
</g>
</g>
<g>
<g>
<g>
<g>
<use xlink:href="#path_c6a177de65b119346c7f44de70d51c8c"/>
</g>
</g>
</g>
</g>
<g>
<g>
<g>
<g>
<use xlink:href="#path_648f2e9968bd5a4e4260557af5b35124"/>
</g>
</g>
</g>
</g>
<g>
<g>
<g>
<g>
<use xlink:href="#path_a28e4004d0f853eff4bd27477324f47e"/>
</g>
</g>
</g>
</g>
<g>
<g>
<g>
<g>
<use xlink:href="#path_92880a642bb5c17a07915befc14f40c4"/>
</g>
</g>
</g>
</g>
<g>
<g>
<g>
<g>
<use xlink:href="#path_6ba60a7eba4b08532b16bf9bf23af807"/>
</g>
</g>
</g>
</g>
<g>
<g>
<g>
<g>
<use xlink:href="#path_fcf9fc7e54759db669f9192f062ed639"/>
</g>
</g>
</g>
</g>
<g>
<g>
<g>
<g>
<use xlink:href="#path_7b674c2c3a7c9fda2106fb8a59412911"/>
</g>
</g>
</g>
</g>
<g>
<g>
<g>
<g>
<use xlink:href="#path_e9496414c6797a438fbf8ca3d81429a0"/>
</g>
</g>
</g>
</g>
</g>
</svg>