<?xml version="1.0" encoding="utf-8"?>
<!DOCTYPE svg PUBLIC "-//W3C//DTD SVG 1.1//EN" "http://www.w3.org/Graphics/SVG/1.1/DTD/svg11.dtd">
<!-- exported from Silhouette Studio® Business Edition V4.5.735ssbe -->
<svg version="1.1" xmlns="http://www.w3.org/2000/svg" xmlns:xlink="http://www.w3.org/1999/xlink" width="168mm" height="68mm" viewBox="0 0 168 68">
<defs>
<path id="path_3dccbc0cdc4b93a47380d8e92a095a13" d="M 133.9646 15.48572 C 135.379 16.77675 140.4631 25.49382 142.6976 34.05251 C 143.0941 35.57125 145.0418 42.51934 143.2867 49.39648 C 143.2861 49.39476 143.2043 49.53231 143.0872 49.34688 C 143.006 49.21838 143.2218 49.2976 143.4547 46.52098 C 143.607 44.70462 143.5699 43.06165 143.5381 42.33697 C 143.3801 38.73768 142.6401 35.62299 142.2575 34.16508 C 139.4446 23.44633 134.5367 17.3054 133.9646 15.48572 Z" fill-rule="evenodd" fill="#FEFAE0" fill-opacity="1" stroke="none" stroke-opacity="1" stroke-width="0.4703704" stroke-linecap="butt" stroke-linejoin="miter"/>
<path id="path_8cba2f6aa885a2c33ea5bf9979eeef26" d="M 124.3146 13.2742 C 124.4661 12.34015 126.4154 12.26305 127.1993 11.94141 C 128.2127 11.52563 128.6475 10.62804 129.632 10.61849 C 131.1692 10.60357 133.2657 13.70658 134.5267 16.32626 C 134.378 16.33062 133.0845 16.27076 131.1846 16.14534 C 129.8517 16.05735 129.364 15.50506 128.5333 15.14029 C 127.0878 14.50565 124.0718 14.77179 124.3146 13.2742 Z M 129.6357 10.96759 C 128.8695 10.96941 128.1143 12.01979 126.9568 12.37135 C 126.2101 12.59813 124.7293 12.7499 124.6355 13.32197 C 124.4614 14.38372 127.2226 14.30474 128.2448 14.64052 C 129.2107 14.9578 129.7487 15.52563 130.748 15.71263 C 132.1624 15.9773 131.7426 15.46724 134.106 16.02407 C 132.4604 13.40917 130.8956 10.96461 129.6357 10.96759 Z" fill-rule="evenodd" fill="#FEFAE0" fill-opacity="1" stroke="none" stroke-opacity="1" stroke-width="0.4703704" stroke-linecap="butt" stroke-linejoin="miter"/>
<path id="path_23a1882d5dd3354fe6c80dd9662abd1e" d="M 130.2733 10.9382 C 130.2935 10.8941 130.2917 10.83898 130.277 10.77099 C 130.2604 10.69566 130.1998 10.61482 130.1888 10.55786 C 130.1631 10.42924 130.1631 10.29879 130.1777 10.17017 C 130.1924 10.03971 130.2237 9.909267 130.277 9.788002 C 130.3339 9.648357 130.4221 9.528923 130.525 9.422356 C 130.6959 9.24229 130.9017 9.08979 131.0836 8.924427 C 131.35 8.687401 131.7414 8.138023 132.1327 7.941425 C 132.333 7.84037 132.5222 7.886303 132.6821 8.202339 C 132.7795 8.39526 132.8475 8.602882 132.8989 8.816017 C 133.0275 9.339672 133.0661 9.900078 133.1911 10.40719 C 133.3546 11.06866 133.6302 11.67132 133.8102 12.31257 C 133.8819 12.57164 133.9407 12.83622 133.9646 13.1155 C 134.0105 13.60608 134.0032 14.09666 134.0326 14.58725 C 134.0455 14.80406 134.062 15.01903 134.0951 15.234 C 134.13 15.39937 134.1428 15.59413 134.1888 15.76868 C 134.2126 15.85504 134.2402 15.93772 134.2825 16.00938 C 134.3045 16.05899 134.3633 16.0792 134.4111 16.05716 C 134.4589 16.03143 134.4791 15.9763 134.457 15.92669 C 134.4258 15.84401 134.4148 15.75214 134.4111 15.6566 C 134.4019 15.49858 134.4129 15.33873 134.4056 15.19358 C 134.3817 14.98779 134.3707 14.78017 134.3651 14.57438 C 134.3541 14.07829 134.3707 13.58219 134.3412 13.0861 C 134.321 12.78109 134.2641 12.49079 134.1869 12.20783 C 134.0142 11.57026 133.7349 10.97128 133.5695 10.31349 C 133.4428 9.80637 133.3987 9.245968 133.2682 8.724148 C 133.2076 8.481617 133.1286 8.250103 133.0165 8.031456 C 132.7997 7.610695 132.5314 7.493099 132.2687 7.518826 C 132.0372 7.542717 131.7946 7.697056 131.5668 7.906513 C 131.293 8.160072 131.0376 8.488964 130.8466 8.663521 C 130.6591 8.836235 130.446 8.996086 130.2733 9.185341 C 130.1428 9.324978 130.0326 9.479317 129.9591 9.659382 C 129.8985 9.813717 129.8562 9.97541 129.8434 10.1371 C 129.8305 10.30247 129.847 10.46783 129.8893 10.62952 C 129.9077 10.69751 129.9554 10.80407 130.0087 10.88308 C 130.0252 10.90696 130.0583 10.90696 130.0638 10.92717 C 130.0602 10.98413 130.1042 11.03558 130.1631 11.03742 C 130.22 11.03926 130.2696 10.99516 130.2733 10.9382 Z" fill-rule="evenodd" fill="#FEFAE0" fill-opacity="1" stroke="none" stroke-opacity="1" stroke-width="0.4703704" stroke-linecap="butt" stroke-linejoin="miter"/>
<path id="path_c0d684cd955f57d874a83692a90e92f7" d="M 134.1826 6.906494 C 134.6227 7.644279 133.9474 6.677704 135.067 11.53719 C 135.5102 13.46063 134.8028 15.41887 134.367 16.20966 C 134.2385 14.67798 135.0925 14.02359 134.765 12.11183 C 134.433 10.17392 134.1086 10.51747 134.0273 8.943756 C 134.0087 8.583504 134.117 7.569866 133.8522 7.107433 C 133.7155 6.868771 131.9613 5.586102 131.296 5.36404 C 130.1589 6.766129 131.0301 7.152679 130.9318 8.729202 C 129.9246 7.828072 130.2491 5.219234 131.2402 4.987835 C 131.7571 4.867153 134.0386 6.665157 134.1826 6.906494 Z M 130.9237 8.512859 L 130.9127 8.507339 C 130.9158 8.506981 130.9074 8.517036 130.9054 8.51469 C 130.9043 8.513458 130.924 8.5121 130.9237 8.512859 Z M 130.8741 8.529388 L 130.9017 8.516537 C 130.9016 8.518837 130.8744 8.529522 130.8741 8.529388 Z M 130.8447 8.545929 L 130.8466 8.55328 C 130.8455 8.562572 130.8724 8.52269 130.8686 8.531231 C 130.867 8.534874 130.8371 8.52803 130.8447 8.545929 Z" fill-rule="evenodd" fill="#FEFAE0" fill-opacity="1" stroke="none" stroke-opacity="1" stroke-width="0.4703704" stroke-linecap="butt" stroke-linejoin="miter"/>
<path id="path_f90d615b9c8f1bf216ffeedf36d756d4" d="M 130.5673 6.002983 C 130.5765 6.010334 130.5875 6.015846 130.6004 6.01952 C 130.6537 6.03973 130.7143 6.010334 130.7327 5.95705 C 130.7712 5.935001 130.7161 5.911114 130.7253 5.867016 C 130.7271 5.844967 130.6941 5.855995 130.6757 5.821083 C 130.6665 5.799034 130.6481 5.788017 130.5894 5.756771 C 130.5103 5.714516 130.3486 5.725536 130.3303 5.723701 C 130.1704 5.721867 130.0069 5.740238 129.847 5.776985 C 129.689 5.813732 129.5347 5.868855 129.3895 5.936836 C 129.2407 6.008495 129.1286 6.111393 129.0349 6.228981 C 128.9155 6.377811 128.831 6.554203 128.7226 6.715889 C 128.6086 6.886768 128.4635 7.042942 128.3404 7.211983 C 128.2798 7.294666 128.2265 7.381023 128.1805 7.471062 C 128.0611 7.715431 128.0813 7.956127 128.1897 8.193153 C 128.3661 8.582672 128.8181 8.953823 128.9633 9.288223 C 129.0992 9.596905 129.0974 9.929474 129.2003 10.23448 C 129.2352 10.33921 129.2719 10.44578 129.3454 10.53397 C 129.3785 10.57256 129.4134 10.59828 129.4575 10.63136 C 129.4869 10.67545 129.5475 10.68464 129.5916 10.65524 C 129.6339 10.624 129.6449 10.56521 129.6155 10.52111 C 129.6027 10.47517 129.6027 10.43659 129.5916 10.39249 C 129.5733 10.33186 129.5549 10.2749 129.5365 10.21794 C 129.4667 9.966217 129.4391 9.70715 129.3803 9.449917 C 129.3583 9.348858 129.3289 9.249645 129.2866 9.150421 C 129.1488 8.814178 128.706 8.433849 128.5352 8.038811 C 128.48 7.910194 128.4598 7.777901 128.5278 7.647442 C 128.5645 7.575783 128.6086 7.509647 128.6564 7.445335 C 128.7869 7.274456 128.9375 7.116436 129.057 6.941887 C 129.1599 6.785709 129.237 6.616676 129.3473 6.473354 C 129.4061 6.39986 129.4704 6.331875 129.5641 6.285942 C 129.6817 6.225307 129.8066 6.175697 129.9371 6.140785 C 130.0657 6.107716 130.1998 6.08567 130.3321 6.083828 C 130.3468 6.081993 130.4626 6.08567 130.5434 6.067299 C 130.5655 6.061779 130.582 6.026867 130.5894 6.043407 C 130.5949 6.052593 130.5967 6.019524 130.593 6.023201 C 130.5765 6.028713 130.5765 6.008495 130.5673 6.002983 Z M 130.5544 5.988289 C 130.5563 5.993801 130.5563 6.001148 130.5636 6.001148 L 130.5673 6.002983 C 130.5636 5.997471 130.5581 5.993801 130.5544 5.988289 Z M 130.5324 5.942348 C 130.5269 5.962563 130.5232 5.979099 130.5508 5.984612 L 130.5526 5.984612 C 130.5434 5.973583 130.5361 5.958885 130.5324 5.942348 Z" fill-rule="evenodd" fill="#FEFAE0" fill-opacity="1" stroke="none" stroke-opacity="1" stroke-width="0.4703704" stroke-linecap="butt" stroke-linejoin="miter"/>
<path id="path_2066d6f72a75625ae09270578cda74f1" d="M 128.221 8.222546 C 128.2375 8.240925 128.2614 8.253784 128.289 8.255619 C 128.3459 8.26297 128.3955 8.220707 128.401 8.163754 C 128.4157 8.152725 128.3937 8.143543 128.4028 8.132519 C 128.4341 8.092091 128.3661 8.099442 128.3569 8.05167 C 128.3532 8.027786 128.3257 8.05167 128.3073 8.025944 C 128.2908 8.00206 128.2761 8.014927 128.2283 8.003902 C 128.175 7.991043 128.096 8.036976 128.0868 8.038815 C 127.9986 8.082912 127.9141 8.136196 127.8351 8.196827 C 127.7579 8.255627 127.6881 8.319927 127.6201 8.386074 L 126.7584 9.295589 C 126.525 9.534451 126.0694 9.848637 125.8011 10.20142 C 125.6523 10.39618 125.5586 10.60196 125.5567 10.81143 C 125.5567 10.99149 125.6045 11.16421 125.678 11.33324 C 125.7919 11.59415 125.9646 11.85138 126.0822 12.11046 C 126.0951 12.14169 126.1061 12.17293 126.1227 12.20232 C 126.1466 12.23724 126.1741 12.2501 126.1998 12.28317 C 126.2109 12.33278 126.2623 12.36585 126.3119 12.35299 C 126.3634 12.34196 126.3946 12.29236 126.3817 12.24275 C 126.3909 12.17844 126.4001 12.12516 126.3891 12.06084 C 126.3174 11.62355 125.8856 11.24689 125.8948 10.8151 C 125.9003 10.62585 126.0289 10.45314 126.1851 10.2841 C 126.4534 9.999302 126.8154 9.747578 127.0138 9.545467 L 127.8682 8.630451 C 127.9233 8.571651 127.9821 8.514694 128.0464 8.463245 C 128.1052 8.413639 128.1677 8.367706 128.2357 8.330959 C 128.2393 8.329121 128.2798 8.257462 128.2963 8.277676 C 128.3073 8.290531 128.2798 8.253788 128.2724 8.262974 C 128.2651 8.266647 128.2632 8.250111 128.2559 8.253788 C 128.2283 8.270325 128.2283 8.246433 128.221 8.222546 Z M 128.1952 8.169262 C 128.1916 8.176609 128.1879 8.183964 128.1971 8.187641 L 128.2026 8.191311 L 128.1989 8.183964 C 128.1989 8.182125 128.1989 8.176609 128.1971 8.172939 L 128.1952 8.169262 Z" fill-rule="evenodd" fill="#FEFAE0" fill-opacity="1" stroke="none" stroke-opacity="1" stroke-width="0.4703704" stroke-linecap="butt" stroke-linejoin="miter"/>
<path id="path_4e39a797062b677b0796deb06057c530" d="M 158.229 22.17379 C 156.8116 23.1675 151.7181 24.20562 147.7137 32.84348 C 144.4131 39.96313 143.9294 48.20154 143.2564 49.39647 C 143.0665 48.08246 144.3638 38.07885 147.8989 31.31259 C 151.4188 24.57554 156.7654 22.32217 158.229 22.17379 Z" fill-rule="evenodd" fill="#FEFAE0" fill-opacity="1" stroke="none" stroke-opacity="1" stroke-width="0.4703704" stroke-linecap="butt" stroke-linejoin="miter"/>
<path id="path_c3fac36f5f8d15e1acb8accb53c9c8ab" d="M 155.9507 37.23483 C 155.8552 37.32853 155.7725 37.42041 155.7394 37.44246 C 155.2415 37.79156 154.7344 38.12227 154.2438 38.47873 C 153.9149 38.71943 153.5915 38.97298 153.281 39.24125 C 152.2043 40.15627 151.44 41.3818 150.4643 42.38317 C 150.0638 42.79475 149.6264 43.16957 149.1138 43.46355 C 148.7077 43.70058 148.2741 43.89167 147.8332 44.06438 C 147.1588 44.3308 146.4606 44.5568 145.79 44.80852 C 145.395 44.95919 144.9173 45.13926 144.513 45.39464 C 144.4009 45.46447 144.2907 45.53429 144.197 45.62065 C 144.0463 45.75846 143.9306 45.91831 143.8424 46.09285 C 143.8111 46.13878 143.824 46.19942 143.8699 46.22883 C 143.9159 46.26006 143.9765 46.2472 144.0059 46.20127 C 144.0996 46.09468 144.2153 46.01384 144.3329 45.92565 C 144.5001 45.80071 144.6839 45.68312 144.8805 45.58574 C 145.2278 45.41486 145.6026 45.28807 145.9241 45.17968 C 146.6058 44.94633 147.315 44.75157 147.9985 44.498 C 148.4689 44.32529 148.9227 44.12318 149.3527 43.87696 C 149.9021 43.55726 150.3706 43.1512 150.7969 42.70288 C 151.7541 41.7015 152.5001 40.48332 153.5621 39.5683 C 153.7881 39.37354 154.0233 39.19164 154.2622 39.01342 C 154.8244 38.58898 155.4069 38.1921 155.9801 37.78053 C 156.0555 37.72541 156.4119 37.51779 156.5846 37.35058 C 156.7004 37.23667 156.7408 37.1154 156.7298 37.03271 C 156.7169 36.93533 156.5957 36.80671 156.3641 36.7957 C 156.0812 36.77916 155.5704 36.86551 155.5061 36.8747 C 154.9696 36.95187 154.4331 37.03456 153.8984 37.13377 C 153.3637 37.233 152.829 37.34507 152.3017 37.48471 C 150.953 37.84117 149.621 38.45852 148.423 39.27065 C 147.2213 40.08461 146.1538 41.09517 145.338 42.23619 C 145.0532 42.6349 144.7794 43.05015 144.5387 43.48378 C 144.377 43.7704 144.2337 44.0699 144.0978 44.3694 C 143.96 44.68727 143.8571 45.12822 143.7229 45.46632 C 143.7119 45.49572 143.6954 45.52327 143.6991 45.55266 C 143.7046 45.61329 143.7064 45.55819 143.7376 45.6078 C 143.7046 45.65373 143.7156 45.71804 143.7634 45.75111 C 143.8093 45.78418 143.8736 45.77315 143.9067 45.72721 C 143.9691 45.74559 143.9048 45.74927 143.9691 45.74192 C 143.9838 45.74006 143.9912 45.73088 144.0022 45.71987 C 144.0592 45.67026 144.0941 45.59676 144.1327 45.5251 C 144.2925 45.22928 144.3752 44.83976 144.5148 44.56599 C 144.6894 44.21138 144.886 43.86411 145.0918 43.52235 C 145.2957 43.1806 145.5107 42.84436 145.7385 42.51914 C 146.5139 41.41855 147.5337 40.44106 148.682 39.64914 C 149.8322 38.8554 151.1129 38.24906 152.4119 37.89444 C 152.9282 37.7548 153.4482 37.63722 153.9755 37.53616 C 154.501 37.4351 155.032 37.35058 155.563 37.26974 C 155.5943 37.26606 155.7688 37.24952 155.9507 37.23483 Z" fill-rule="evenodd" fill="#FEFAE0" fill-opacity="1" stroke="none" stroke-opacity="1" stroke-width="0.4703704" stroke-linecap="butt" stroke-linejoin="miter"/>
<path id="path_e3e0029b1ff9586eb440544d4610833d" d="M 130.694 27.57018 C 130.841 27.61612 130.9843 27.66939 131.1277 27.72451 C 131.293 27.79066 131.4566 27.86232 131.6183 27.93765 C 132.344 28.26654 133.0477 28.66158 133.7294 29.09153 C 134.4129 29.52332 135.0744 29.99552 135.7101 30.47509 C 136.4083 31.00241 137.0569 31.57199 137.6724 32.17649 C 138.2898 32.78283 138.8722 33.42408 139.44 34.09105 C 140.3348 35.13285 141.1028 36.1232 141.7257 37.19256 C 142.343 38.25089 142.8171 39.38823 143.1221 40.73687 C 143.1497 40.85813 143.1882 40.9941 143.2379 41.13926 C 143.3518 41.47182 143.4932 41.85216 143.6127 42.18105 C 143.6696 42.34458 143.7358 42.48053 143.7597 42.611 C 143.7597 42.66796 143.8056 42.71389 143.8625 42.71389 C 143.9214 42.71389 143.9655 42.66796 143.9655 42.611 C 143.993 42.4787 144.0059 42.32804 143.9893 42.15532 C 143.9838 42.09469 143.9673 42.03406 143.9544 41.97158 C 143.8534 41.51224 143.6678 40.9941 143.6017 40.62846 C 143.2893 39.22654 142.8024 38.04142 142.1575 36.93899 C 141.5181 35.84759 140.7243 34.83886 139.8001 33.77869 C 139.214 33.10988 138.6131 32.46864 137.9774 31.8623 C 137.3398 31.25413 136.6692 30.68087 135.949 30.15354 C 135.2967 29.67765 134.6205 29.21096 133.9223 28.78286 C 133.2223 28.35106 132.5002 27.95603 131.756 27.62897 L 130.7326 27.22658 C 130.7087 27.21923 130.5121 27.14391 130.4019 27.14206 C 130.2733 27.14022 130.1998 27.21005 130.1759 27.29641 C 130.1483 27.39011 130.1869 27.52791 130.3045 27.66939 C 130.5158 27.91744 130.9843 28.23531 131.0781 28.31247 C 131.7193 28.849 132.3752 29.36898 132.9889 29.93673 C 133.3895 30.30788 133.7735 30.69924 134.1171 31.13103 C 135.0303 32.27755 135.1754 33.71438 135.8038 34.94543 C 135.9673 35.26881 136.1639 35.57933 136.4102 35.86779 C 136.8677 36.40248 137.3656 36.94267 137.8855 37.46081 C 138.4073 37.97895 138.9494 38.47505 139.4914 38.92704 C 140.4267 39.70242 141.3655 40.45758 142.1703 41.33034 C 142.5948 41.79152 142.9677 42.29313 143.3077 42.83884 C 143.3904 42.97297 143.4804 43.10341 143.5612 43.24306 C 143.5888 43.30369 143.6623 43.33126 143.7229 43.30185 C 143.7835 43.27428 143.8111 43.20079 143.7835 43.14017 C 143.7266 42.98215 143.6715 42.82782 143.6017 42.67899 C 143.3095 42.0708 142.9126 41.54348 142.4772 41.05289 C 141.6779 40.14707 140.7078 39.39373 139.7597 38.6055 C 139.2268 38.16085 138.694 37.67212 138.1832 37.16316 C 137.6706 36.6542 137.1782 36.1232 136.728 35.59587 C 136.5038 35.33312 136.3256 35.05017 136.175 34.75618 C 135.5337 33.50309 135.3702 32.04236 134.4386 30.87563 C 134.0785 30.42914 133.6798 30.02124 133.2572 29.6409 C 132.6343 29.07683 131.9618 28.5642 131.3077 28.03503 C 131.2471 27.98542 131.0211 27.83476 130.8153 27.67123 C 130.773 27.63632 130.7326 27.60325 130.694 27.57018 Z" fill-rule="evenodd" fill="#FEFAE0" fill-opacity="1" stroke="none" stroke-opacity="1" stroke-width="0.4703704" stroke-linecap="butt" stroke-linejoin="miter"/>
<path id="path_361f95e33ed7227bce22915482bdd209" d="M 158.1813 22.09112 L 158.1317 22.11685 C 158.106 22.11317 158.0802 22.12052 158.06 22.13706 C 158.0361 22.15359 158.0233 22.17932 158.0196 22.20687 C 158.0086 22.23445 158.0086 22.26751 158.0233 22.29507 L 158.0178 22.30243 C 157.891 22.41267 158.0159 22.22157 158.0306 22.33549 C 158.0361 22.37776 158.0968 22.36856 158.117 22.3704 C 158.1574 22.37224 158.1887 22.36122 158.218 22.33917 C 158.2254 22.33366 158.2346 22.32631 158.2419 22.31528 C 158.3559 22.26016 158.4698 22.20137 158.5874 22.14991 C 158.6756 22.11317 158.7656 22.08194 158.8575 22.05621 C 159.2745 21.95515 159.7008 21.93862 160.1216 21.86696 C 160.309 21.83573 160.4927 21.79347 160.6765 21.731 C 160.8216 21.67955 160.9521 21.61157 161.0733 21.53439 C 161.3416 21.36536 161.575 21.14854 161.8634 21.00339 C 162.1298 20.8711 162.6351 20.89131 162.9861 20.75718 C 163.1974 20.67817 163.3572 20.54772 163.4252 20.34193 C 163.4528 20.25557 163.4619 20.16922 163.4564 20.08102 C 163.4472 19.92301 163.3903 19.76132 163.3976 19.60698 C 163.4013 19.51695 163.4252 19.43243 163.4583 19.35158 C 163.5116 19.21378 163.5905 19.08332 163.6567 18.95103 C 163.7008 18.87202 163.7578 18.75994 163.7559 18.65889 C 163.7559 18.59458 163.7375 18.53395 163.6898 18.48066 C 163.6475 18.42921 163.5869 18.39431 163.5226 18.37226 C 163.4491 18.34837 163.3646 18.33918 163.2947 18.33368 C 163.1716 18.32265 163.0504 18.31897 162.9309 18.31713 C 162.7527 18.31713 162.5763 18.32448 162.3963 18.33 C 162.1427 18.33551 161.891 18.33551 161.6429 18.36858 C 161.4702 18.39063 161.2993 18.42921 161.1321 18.49169 C 160.8896 18.58356 160.6673 18.71401 160.4597 18.86467 C 160.1602 19.08149 159.8864 19.34056 159.6071 19.57574 C 159.4197 19.74111 159.2139 19.89361 159.0247 20.05714 C 158.9383 20.13063 158.8538 20.20597 158.7748 20.28681 C 158.6076 20.45218 158.4624 20.63959 158.3393 20.83986 C 158.218 21.04198 158.1207 21.25879 158.0527 21.48479 L 157.9645 21.97169 L 157.9626 22.13338 C 157.9626 22.15727 157.9828 22.23444 157.9828 22.23444 C 157.9828 22.23444 157.9994 22.15359 158.0067 22.14257 C 158.0417 22.08377 158.0968 22.0654 158.1648 22.08194 C 158.1703 22.08378 158.1758 22.08744 158.1813 22.09112 Z M 158.2621 22.14257 C 158.3228 22.10215 158.3595 22.07275 158.2621 22.11868 L 158.2621 22.12236 C 158.2621 22.12786 158.2621 22.13522 158.2621 22.14257 Z M 158.2658 22.04886 C 158.3412 22.01028 158.4165 21.97169 158.4937 21.93862 C 158.5929 21.89452 158.6958 21.85594 158.8005 21.82838 C 159.2194 21.71997 159.653 21.69609 160.0775 21.61892 C 160.2502 21.58768 160.4211 21.54726 160.5901 21.48662 C 160.7132 21.44069 160.8253 21.38005 160.9319 21.31207 C 161.2056 21.13385 161.4445 20.91153 161.7403 20.75902 C 162.0104 20.61938 162.5267 20.63224 162.8832 20.49076 C 163.0081 20.44299 163.1092 20.375 163.1477 20.2519 C 163.1661 20.20045 163.168 20.14717 163.1661 20.09389 C 163.1588 19.92669 163.1129 19.75397 163.1257 19.58861 C 163.1349 19.46918 163.168 19.3571 163.2139 19.25053 C 163.2764 19.10721 163.3646 18.97124 163.4417 18.83528 C 163.4583 18.8022 163.4821 18.76362 163.4987 18.72136 C 163.5097 18.6938 163.5244 18.6644 163.5042 18.64051 C 163.484 18.61847 163.4528 18.60928 163.4215 18.60193 C 163.3719 18.59091 163.3186 18.58723 163.2727 18.58356 L 162.4055 18.59458 C 162.1611 18.60561 161.9185 18.60928 161.6815 18.64419 C 161.5309 18.66624 161.382 18.70115 161.235 18.75811 C 161.0182 18.84447 160.8216 18.96757 160.636 19.10537 C 160.3457 19.32219 160.0811 19.57942 159.8111 19.81461 L 158.975 20.48709 C 158.8281 20.63776 158.6994 20.80679 158.5947 20.99053 C 158.4937 21.17243 158.4165 21.36903 158.3632 21.57114 L 158.2695 22.00476 L 158.2658 22.04886 Z" fill-rule="evenodd" fill="#FEFAE0" fill-opacity="1" stroke="none" stroke-opacity="1" stroke-width="0.4703704" stroke-linecap="butt" stroke-linejoin="miter"/>
<path id="path_61e4281663084d249c6146216a26cc52" d="M 157.8977 22.23145 C 158.6994 22.48969 163.0662 24.57834 164.7132 23.90829 C 163.9115 22.80276 164.1505 23.35625 163.8864 22.93081 C 163.6701 22.58233 163.7162 22.19388 163.5152 22.0654 C 163.1349 21.82231 163.1318 22.55532 160.65 21.60778 C 161.9261 21.39544 161.6563 21.67968 162.3338 21.77693 C 163.1281 21.89092 163.273 21.50389 163.7118 21.7953 C 164.1236 22.06873 163.8078 22.2449 164.3163 22.92162 C 165.1087 23.97601 164.7379 22.69083 164.9417 24.08285 C 163.9549 24.74847 164.3401 24.51643 161.3324 23.81458 C 157.4365 22.90546 157.9177 22.25842 157.8977 22.23145 Z M 158.0417 22.25465 L 158.06 22.3061 C 158.0596 22.30611 158.0412 22.25488 158.0417 22.25465 Z" fill-rule="evenodd" fill="#FEFAE0" fill-opacity="1" stroke="none" stroke-opacity="1" stroke-width="0.4703704" stroke-linecap="butt" stroke-linejoin="miter"/>
<path id="path_0cfc3e3ca87659d34ad549d63185b6d2" d="M 163.5465 19.02087 C 163.5906 18.99147 163.609 18.93452 163.5869 18.88307 C 163.5612 18.82978 163.4969 18.80406 163.4418 18.82978 C 163.4014 18.77282 163.4436 18.85918 163.4087 18.82611 C 163.3719 18.79304 163.4252 18.84264 163.3848 18.83529 C 163.3481 18.82978 163.3591 18.88307 163.3463 18.90512 C 163.3389 18.91798 163.3444 18.93451 163.3444 18.94737 C 163.3444 18.97126 163.3554 18.99515 163.372 19.02087 C 163.3812 19.03557 163.462 19.07232 163.4932 19.09437 L 163.5943 19.17704 C 163.6457 19.21931 163.6972 19.26524 163.7431 19.31485 C 163.7891 19.36447 163.8295 19.41775 163.8625 19.47103 C 163.9066 19.54269 163.9305 19.62353 163.9471 19.70621 C 163.9801 19.85872 163.9893 20.01673 164.0242 20.16556 L 164.1676 20.60102 C 164.1933 20.76455 164.1584 20.88398 164.083 20.97768 C 163.903 21.20552 163.5392 21.29556 163.2856 21.48297 C 163.2066 21.54176 163.1441 21.60974 163.089 21.68324 C 163.0541 21.71632 163.0522 21.77143 163.0853 21.80635 C 163.1184 21.84309 163.1735 21.84309 163.2084 21.81002 C 163.2746 21.7696 163.3463 21.74939 163.4216 21.71632 C 163.745 21.57299 164.1253 21.43703 164.3403 21.19082 C 164.4744 21.03648 164.5461 20.83437 164.513 20.55508 L 164.3605 20.08839 C 164.3164 19.912 164.3072 19.72091 164.2539 19.5482 C 164.2263 19.45817 164.1896 19.37181 164.1382 19.2928 C 164.0904 19.22482 164.0353 19.15867 163.9746 19.0962 C 163.9158 19.03557 163.8515 18.98045 163.7891 18.93084 L 163.6458 18.84448 C 163.6237 18.83346 163.5465 18.81324 163.5465 18.81324 C 163.5465 18.81324 163.5998 18.86469 163.6071 18.87756 C 163.6219 18.90512 163.62 18.93452 163.6163 18.96207 C 163.6145 18.98045 163.5906 18.99331 163.5906 19.01536 C 163.5943 19.0521 163.5428 18.98964 163.563 19.03373 C 163.5741 19.05762 163.5594 19.03557 163.5465 19.02087 Z" fill-rule="evenodd" fill="#FEFAE0" fill-opacity="1" stroke="none" stroke-opacity="1" stroke-width="0.4703704" stroke-linecap="butt" stroke-linejoin="miter"/>
<path id="path_9fe50922ae8eb289e7c2bec1e3df97ed" d="M 164.4854 23.32953 C 164.6851 22.23129 164.7609 22.60072 164.7406 22.12512 C 164.6912 20.96902 164.5839 22.25146 164.2987 20.73078 C 165.7911 21.9787 164.6292 23.16302 164.4854 23.32953 Z M 164.4358 20.85456 C 164.4458 20.8633 164.4585 20.85036 164.4468 20.84722 C 164.4332 20.84356 164.4344 20.85332 164.4358 20.85456 Z" fill-rule="evenodd" fill="#FEFAE0" fill-opacity="1" stroke="none" stroke-opacity="1" stroke-width="0.4703704" stroke-linecap="butt" stroke-linejoin="miter"/>
<path id="path_9f256d0631d26f2fce5233f636a30f2e" d="M 164.2263 20.81047 L 164.2227 20.81047 C 164.2296 20.81213 164.2027 20.79544 164.2004 20.8022 C 164.1978 20.80995 164.226 20.81863 164.2263 20.81047 Z" fill-rule="evenodd" fill="#FEFAE0" fill-opacity="1" stroke="none" stroke-opacity="1" stroke-width="0.4703704" stroke-linecap="butt" stroke-linejoin="miter"/>
<path id="path_ca0b51536f3dca8e8f0e9e0bbf95bf7e" d="M 6.985123 63.41699 L 6.985123 63.16711 L 7.51429 62.98336 C 7.852371 62.86577 8.069183 62.71144 8.168396 62.52035 C 8.271294 62.32559 8.322739 62.04998 8.322739 61.6972 L 8.322739 48.46067 C 8.322739 48.1226 8.274956 47.85801 8.183083 47.66693 C 8.089378 47.47216 7.883591 47.31415 7.56572 47.19656 L 6.985107 46.96872 L 6.985107 46.71884 L 14.21706 46.71884 C 16.21062 46.71884 17.73933 47.09366 18.80317 47.84332 C 19.86518 48.59297 20.39802 49.63477 20.39802 50.96687 C 20.39802 51.71285 20.11874 52.457 19.56017 53.20114 C 19.00161 53.94159 18.12334 54.51303 16.92904 54.91358 L 20.44212 61.89564 C 20.59278 62.18595 20.76733 62.41745 20.96394 62.59384 C 21.1587 62.77023 21.41594 62.92825 21.73564 63.06422 L 22.06637 63.18916 L 22.06637 63.41699 L 17.5317 63.41699 L 13.79079 55.44274 L 12.071 55.44274 L 12.071 61.6972 C 12.071 62.0169 12.11877 62.27782 12.21799 62.48361 C 12.32088 62.68572 12.53402 62.83638 12.8574 62.93927 L 13.46006 63.16711 L 13.46006 63.41699 L 6.985123 63.41699 Z M 12.071 54.94297 L 13.28367 54.94297 C 14.49818 54.94297 15.37461 54.61775 15.9148 53.96548 C 16.45316 53.31504 16.72325 52.34858 16.72325 51.06976 C 16.72325 49.77257 16.4697 48.80611 15.96625 48.17405 C 15.46097 47.53832 14.60843 47.21861 13.40861 47.21861 L 12.071 47.21861 L 12.071 54.94297 Z" fill-rule="evenodd" fill="#FEFAE0" fill-opacity="1" stroke="none" stroke-opacity="1" stroke-width="0.4703704" stroke-linecap="butt" stroke-linejoin="miter"/>
<path id="path_12a66543f4e3b4f35ec13adbd662289a" d="M 29.17256 50.86398 C 30.26948 50.86398 31.20471 51.08998 31.98008 51.54013 C 32.75914 51.98662 33.35445 52.5948 33.76602 53.36282 C 34.1776 54.12717 34.38338 54.99994 34.38338 55.97926 C 34.38338 56.16667 34.37236 56.35776 34.35398 56.55252 C 34.33929 56.74361 34.30621 56.91632 34.25844 57.06699 L 26.71782 57.06699 C 26.73619 58.88968 27.06324 60.2034 27.6953 61.00634 C 28.32736 61.8056 29.2681 62.20431 30.51752 62.20431 C 31.35905 62.20431 32.04072 62.07019 32.5607 61.80009 C 33.08435 61.53183 33.57493 61.13496 34.03061 60.60946 L 34.28784 60.8373 C 33.76235 61.76334 33.06414 62.48911 32.19322 63.01276 C 31.32597 63.53642 30.28418 63.79917 29.06967 63.79917 C 27.87353 63.79917 26.80968 63.54193 25.87997 63.02746 C 24.95393 62.513 24.22816 61.7762 23.7045 60.81525 C 23.18452 59.85063 22.92545 58.70226 22.92545 57.36832 C 22.92545 55.98661 23.22862 54.81068 23.8368 53.84054 C 24.44313 52.8704 25.22218 52.13361 26.17395 51.62833 C 27.12939 51.11937 28.12893 50.86398 29.17256 50.86398 Z M 29.09906 51.3711 C 28.60848 51.3711 28.18956 51.52176 27.84229 51.81942 C 27.4987 52.1134 27.22861 52.63522 27.03384 53.38487 C 26.84276 54.13453 26.73619 55.19286 26.71782 56.55987 L 31.04669 56.55987 C 31.21206 54.72248 31.14407 53.39957 30.8409 52.59112 C 30.5359 51.779 29.95529 51.3711 29.09906 51.3711 Z" fill-rule="evenodd" fill="#FEFAE0" fill-opacity="1" stroke="none" stroke-opacity="1" stroke-width="0.4703704" stroke-linecap="butt" stroke-linejoin="miter"/>
<path id="path_5f12d88954d89c8eea51bac4a724259d" d="M 35.65004 63.41699 L 35.65004 63.16711 L 36.00282 63.06422 C 36.59445 62.89334 36.89211 62.47992 36.89211 61.82214 L 36.89211 53.89933 C 36.89211 53.53186 36.82964 53.25992 36.70837 53.08354 C 36.59078 52.90347 36.36478 52.78037 36.03221 52.71606 L 35.65004 52.61317 L 35.65004 52.35594 L 39.97891 50.89338 L 40.2288 51.14326 L 40.43459 52.66461 C 41.02255 52.14096 41.68584 51.70917 42.42631 51.37109 C 43.17045 51.03302 43.9054 50.86398 44.63117 50.86398 C 45.74279 50.86398 46.59717 51.16899 47.19616 51.77533 C 47.79882 52.3835 48.10015 53.31137 48.10015 54.56079 L 48.10015 61.85154 C 48.10015 62.50933 48.41986 62.9209 49.06294 63.08627 L 49.29078 63.16711 L 49.29078 63.41699 L 43.3156 63.41699 L 43.3156 63.16711 L 43.64633 63.06422 C 44.23429 62.87864 44.52827 62.46522 44.52827 61.82214 L 44.52827 53.75235 C 44.52827 52.67012 43.98808 52.12809 42.91138 52.12809 C 42.17091 52.12809 41.36063 52.50109 40.47868 53.24523 L 40.47868 61.85154 C 40.47868 62.50933 40.7745 62.9209 41.36797 63.08627 L 41.59581 63.16711 L 41.59581 63.41699 L 35.65004 63.41699 Z" fill-rule="evenodd" fill="#FEFAE0" fill-opacity="1" stroke="none" stroke-opacity="1" stroke-width="0.4703704" stroke-linecap="butt" stroke-linejoin="miter"/>
<path id="path_46d878436d4af327915d9ae5e53350fa" d="M 55.08047 63.79921 C 54.00193 63.79921 53.16224 63.5291 52.55958 62.99075 C 51.96059 62.44688 51.66293 61.58516 51.66293 60.40371 L 51.66293 51.7533 L 49.92109 51.7533 L 49.92109 51.49606 L 50.52375 51.40052 C 51.04741 51.27925 51.49757 51.11021 51.87608 50.8934 C 52.25825 50.67292 52.63491 50.37709 53.0079 50.00411 L 55.08047 47.7037 L 55.33035 47.7037 L 55.25686 51.24618 L 58.09378 51.24618 L 58.09378 51.7533 L 55.23481 51.7533 L 55.23481 60.85939 C 55.23481 61.45286 55.36343 61.90118 55.62434 62.20434 C 55.88341 62.50935 56.21597 62.66002 56.62387 62.66002 C 56.97665 62.66002 57.28717 62.57183 57.55726 62.39544 C 57.83103 62.21537 58.10297 61.97284 58.37307 61.66783 L 58.62295 61.92506 C 58.28487 62.49833 57.81818 62.954 57.22654 63.29208 C 56.63858 63.63015 55.92199 63.79921 55.08047 63.79921 Z" fill-rule="evenodd" fill="#FEFAE0" fill-opacity="1" stroke="none" stroke-opacity="1" stroke-width="0.4703704" stroke-linecap="butt" stroke-linejoin="miter"/>
<path id="path_a4889f05964b6b05bc4f4b52090e8914" d="M 59.91456 57.34628 L 59.91456 56.66277 L 66.28661 56.66277 L 66.28661 57.34628 L 59.91456 57.34628 Z" fill-rule="evenodd" fill="#FEFAE0" fill-opacity="1" stroke="none" stroke-opacity="1" stroke-width="0.4703704" stroke-linecap="butt" stroke-linejoin="miter"/>
<path id="path_9c87bba55ce8ef5fc490e1b93057af97" d="M 71.5041 63.79916 C 70.52293 63.79916 69.69978 63.51988 69.03465 62.96132 C 68.36768 62.40275 68.03511 61.60164 68.03511 60.55801 C 68.03511 59.76426 68.43934 59.03482 69.24779 58.36786 C 70.05624 57.70272 71.32954 57.19928 73.06955 56.8612 C 73.33781 56.81343 73.64281 56.7583 73.98089 56.6995 C 74.31897 56.64071 74.67358 56.57824 75.04657 56.50842 L 75.04657 54.50935 C 75.04657 53.36282 74.90693 52.55989 74.62765 52.09871 C 74.34837 51.63385 73.91106 51.40049 73.31943 51.40049 C 72.91704 51.40049 72.5955 51.53095 72.35664 51.79002 C 72.12146 52.05093 71.97079 52.50108 71.90832 53.14233 L 71.85687 53.42161 C 71.82196 54.14738 71.64374 54.67838 71.32036 55.01646 C 71.00066 55.35454 70.60745 55.52359 70.13708 55.52359 C 69.69611 55.52359 69.33047 55.38945 69.042 55.11935 C 68.7572 54.85109 68.61573 54.4873 68.61573 54.03163 C 68.61573 53.3371 68.85459 52.7528 69.33598 52.28244 C 69.81554 51.81206 70.45312 51.45929 71.24686 51.2241 C 72.04061 50.98524 72.90051 50.86398 73.82655 50.86398 C 75.32953 50.86398 76.49075 51.23146 77.31023 51.96641 C 78.12786 52.70137 78.5376 53.89566 78.5376 55.54564 L 78.5376 61.13862 C 78.5376 61.8993 78.89038 62.27781 79.59593 62.27781 L 80.1545 62.27781 L 80.38233 62.48359 C 80.06263 62.88597 79.71353 63.1965 79.33135 63.41699 C 78.95285 63.63748 78.42001 63.74771 77.72915 63.74771 C 76.98317 63.74771 76.39521 63.57499 75.96526 63.23324 C 75.53348 62.88597 75.25236 62.42479 75.12006 61.85153 C 74.61478 62.39172 74.0948 62.85106 73.56197 63.23324 C 73.0328 63.60991 72.34562 63.79916 71.5041 63.79916 Z M 73.0475 62.25576 C 73.38007 62.25576 73.69425 62.17492 73.98824 62.01323 C 74.28589 61.85154 74.63867 61.60165 75.04657 61.26358 L 75.04657 57.01554 C 74.87386 57.05045 74.70298 57.08536 74.5321 57.11843 C 74.3649 57.15335 74.17381 57.18457 73.95884 57.21397 C 73.17979 57.41976 72.55692 57.76336 72.09206 58.24292 C 71.63087 58.72431 71.4012 59.36739 71.4012 60.17584 C 71.4012 60.8667 71.55922 61.38668 71.87892 61.73394 C 72.2023 62.08305 72.59183 62.25576 73.0475 62.25576 Z" fill-rule="evenodd" fill="#FEFAE0" fill-opacity="1" stroke="none" stroke-opacity="1" stroke-width="0.4703704" stroke-linecap="butt" stroke-linejoin="miter"/>
<path id="path_2b8a41df05f6776dc37491237add83a8" d="M 81.42017 57.34628 L 81.42017 56.66277 L 87.79224 56.66277 L 87.79224 57.34628 L 81.42017 57.34628 Z" fill-rule="evenodd" fill="#FEFAE0" fill-opacity="1" stroke="none" stroke-opacity="1" stroke-width="0.4703704" stroke-linecap="butt" stroke-linejoin="miter"/>
<path id="path_5c2f23c5979d46f256b9c2b13ae25d22" d="M 89.36441 63.41698 L 89.36441 63.1671 L 89.87152 62.98336 C 90.20409 62.88597 90.42457 62.73715 90.53297 62.53504 C 90.64505 62.32925 90.70203 62.05732 90.70203 61.71923 L 90.70203 48.46067 C 90.70203 48.1226 90.64323 47.85434 90.52563 47.65223 C 90.40804 47.45195 90.18021 47.2921 89.84212 47.17451 L 89.36441 46.96872 L 89.36441 46.71884 L 95.50862 46.71884 C 98.02216 46.71884 99.83933 47.18002 100.962 48.10055 C 102.0828 49.01741 102.645 50.22457 102.645 51.72387 C 102.645 52.69033 102.4117 53.57412 101.9468 54.37706 C 101.4856 55.17631 100.7231 55.81021 99.6611 56.28058 C 98.59726 56.75095 97.16411 56.98614 95.36163 56.98614 L 94.50172 56.98614 L 94.50172 61.64574 C 94.50172 62.30352 94.82879 62.73347 95.48657 62.93926 L 96.24357 63.1671 L 96.24357 63.41698 L 89.36441 63.41698 Z M 94.50172 56.48637 L 95.46452 56.48637 C 96.28767 56.48637 96.96015 56.35224 97.48564 56.08214 C 98.00929 55.80838 98.39699 55.33617 98.64687 54.66368 C 98.90042 53.98753 99.02905 53.0523 99.02905 51.85617 C 99.02905 50.64164 98.88941 49.6954 98.61013 49.01925 C 98.33085 48.34308 97.9211 47.87639 97.38275 47.61548 C 96.84256 47.35089 96.17008 47.21861 95.36163 47.21861 L 94.50172 47.21861 L 94.50172 56.48637 Z" fill-rule="evenodd" fill="#FEFAE0" fill-opacity="1" stroke="none" stroke-opacity="1" stroke-width="0.4703704" stroke-linecap="butt" stroke-linejoin="miter"/>
<path id="path_9b067c7fada3da5448f941724a01f991" d="M 103.6814 63.417 L 103.6814 63.16711 L 103.9901 63.06422 C 104.5927 62.85843 104.8941 62.43767 104.8941 61.8001 L 104.8941 48.26225 C 104.8941 47.92418 104.8242 47.66694 104.6883 47.49055 C 104.556 47.31049 104.3226 47.1782 103.9901 47.09368 L 103.6593 47.02018 L 103.6593 46.7703 L 108.2896 45.67521 L 108.5909 45.90305 L 108.488 49.44553 L 108.488 58.10328 C 108.488 58.72615 108.4917 59.34536 108.5027 59.96271 C 108.5119 60.58007 108.5174 61.19376 108.5174 61.8001 C 108.5174 62.13818 108.5835 62.41378 108.7158 62.62325 C 108.8518 62.83455 109.0796 62.98889 109.3993 63.08627 L 109.7301 63.16711 L 109.7301 63.417 L 103.6814 63.417 Z" fill-rule="evenodd" fill="#FEFAE0" fill-opacity="1" stroke="none" stroke-opacity="1" stroke-width="0.4703704" stroke-linecap="butt" stroke-linejoin="miter"/>
<path id="path_543946909ca98053e9df2044d43d8e9f" d="M 114.5406 63.79916 C 113.5595 63.79916 112.7363 63.51988 112.0712 62.96132 C 111.4042 62.40275 111.0717 61.60164 111.0717 60.55801 C 111.0717 59.76426 111.4759 59.03482 112.2843 58.36786 C 113.0928 57.70272 114.3661 57.19928 116.1061 56.8612 C 116.3744 56.81343 116.6794 56.7583 117.0174 56.6995 C 117.3555 56.64071 117.7101 56.57824 118.0831 56.50842 L 118.0831 54.50935 C 118.0831 53.36282 117.9435 52.55989 117.6642 52.09871 C 117.3849 51.63385 116.9476 51.40049 116.356 51.40049 C 115.9536 51.40049 115.6321 51.53095 115.3932 51.79002 C 115.158 52.05093 115.0073 52.50108 114.9449 53.14233 L 114.8934 53.42161 C 114.8585 54.14738 114.6803 54.67838 114.3569 55.01646 C 114.0372 55.35454 113.644 55.52359 113.1736 55.52359 C 112.7327 55.52359 112.367 55.38945 112.0786 55.11935 C 111.7938 54.85109 111.6523 54.4873 111.6523 54.03163 C 111.6523 53.3371 111.8912 52.7528 112.3725 52.28244 C 112.8521 51.81206 113.4897 51.45929 114.2834 51.2241 C 115.0772 50.98524 115.9371 50.86398 116.8631 50.86398 C 118.3661 50.86398 119.5273 51.23146 120.3468 51.96641 C 121.1644 52.70137 121.5742 53.89566 121.5742 55.54564 L 121.5742 61.13862 C 121.5742 61.8993 121.9269 62.27781 122.6325 62.27781 L 123.1911 62.27781 L 123.4189 62.48359 C 123.0992 62.88597 122.7501 63.1965 122.3679 63.41699 C 121.9894 63.63748 121.4566 63.74771 120.7657 63.74771 C 120.0197 63.74771 119.4318 63.57499 119.0018 63.23324 C 118.57 62.88597 118.2889 62.42479 118.1566 61.85153 C 117.6514 62.39172 117.1314 62.85106 116.5985 63.23324 C 116.0694 63.60991 115.3822 63.79916 114.5406 63.79916 Z M 116.0841 62.25576 C 116.4166 62.25576 116.7308 62.17492 117.0248 62.01323 C 117.3224 61.85154 117.6752 61.60165 118.0831 61.26358 L 118.0831 57.01554 C 117.9104 57.05045 117.7395 57.08536 117.5687 57.11843 C 117.4015 57.15335 117.2104 57.18457 116.9954 57.21397 C 116.2163 57.41976 115.5935 57.76336 115.1286 58.24292 C 114.6674 58.72431 114.4378 59.36739 114.4378 60.17584 C 114.4378 60.8667 114.5958 61.38668 114.9155 61.73394 C 115.2389 62.08305 115.6284 62.25576 116.0841 62.25576 Z" fill-rule="evenodd" fill="#FEFAE0" fill-opacity="1" stroke="none" stroke-opacity="1" stroke-width="0.4703704" stroke-linecap="butt" stroke-linejoin="miter"/>
<path id="path_ccad783d240959bedd3427ed1bc5730a" d="M 123.9497 63.41699 L 123.9497 63.16711 L 124.3025 63.06422 C 124.8941 62.89334 125.1918 62.47992 125.1918 61.82214 L 125.1918 53.89933 C 125.1918 53.53186 125.1293 53.25992 125.008 53.08354 C 124.8904 52.90347 124.6644 52.78037 124.3319 52.71606 L 123.9497 52.61317 L 123.9497 52.35594 L 128.2786 50.89338 L 128.5284 51.14326 L 128.7342 52.66461 C 129.3222 52.14096 129.9855 51.70917 130.726 51.37109 C 131.4701 51.03302 132.205 50.86398 132.9308 50.86398 C 134.0424 50.86398 134.8968 51.16899 135.4958 51.77533 C 136.0985 52.3835 136.3998 53.31137 136.3998 54.56079 L 136.3998 61.85154 C 136.3998 62.50933 136.7195 62.9209 137.3626 63.08627 L 137.5904 63.16711 L 137.5904 63.41699 L 131.6153 63.41699 L 131.6153 63.16711 L 131.946 63.06422 C 132.534 62.87864 132.8279 62.46522 132.8279 61.82214 L 132.8279 53.75235 C 132.8279 52.67012 132.2877 52.12809 131.211 52.12809 C 130.4706 52.12809 129.6603 52.50109 128.7783 53.24523 L 128.7783 61.85154 C 128.7783 62.50933 129.0742 62.9209 129.6676 63.08627 L 129.8954 63.16711 L 129.8954 63.41699 L 123.9497 63.41699 Z" fill-rule="evenodd" fill="#FEFAE0" fill-opacity="1" stroke="none" stroke-opacity="1" stroke-width="0.4703704" stroke-linecap="butt" stroke-linejoin="miter"/>
<path id="path_15c38203dcd408f8ef3e3c61b29d9dc5" d="M 143.3801 63.79921 C 142.3016 63.79921 141.4619 63.5291 140.8592 62.99075 C 140.2602 62.44688 139.9626 61.58516 139.9626 60.40371 L 139.9626 51.7533 L 138.2207 51.7533 L 138.2207 51.49606 L 138.8234 51.40052 C 139.347 51.27925 139.7972 51.11021 140.1757 50.8934 C 140.5579 50.67292 140.9346 50.37709 141.3076 50.00411 L 143.3801 47.7037 L 143.63 47.7037 L 143.5565 51.24618 L 146.3934 51.24618 L 146.3934 51.7533 L 143.5345 51.7533 L 143.5345 60.85939 C 143.5345 61.45286 143.6631 61.90118 143.924 62.20434 C 144.183 62.50935 144.5156 62.66002 144.9235 62.66002 C 145.2763 62.66002 145.5868 62.57183 145.8569 62.39544 C 146.1307 62.21537 146.4026 61.97284 146.6727 61.66783 L 146.9226 61.92506 C 146.5845 62.49833 146.1178 62.954 145.5262 63.29208 C 144.9382 63.63015 144.2216 63.79921 143.3801 63.79921 Z" fill-rule="evenodd" fill="#FEFAE0" fill-opacity="1" stroke="none" stroke-opacity="1" stroke-width="0.4703704" stroke-linecap="butt" stroke-linejoin="miter"/>
</defs>
<g>
<g>
<use xlink:href="#path_3dccbc0cdc4b93a47380d8e92a095a13"/>
</g>
<g>
<use xlink:href="#path_8cba2f6aa885a2c33ea5bf9979eeef26"/>
</g>
<g>
<use xlink:href="#path_23a1882d5dd3354fe6c80dd9662abd1e"/>
</g>
<g>
<use xlink:href="#path_c0d684cd955f57d874a83692a90e92f7"/>
</g>
<g>
<use xlink:href="#path_f90d615b9c8f1bf216ffeedf36d756d4"/>
</g>
<g>
<use xlink:href="#path_2066d6f72a75625ae09270578cda74f1"/>
</g>
<g>
<use xlink:href="#path_4e39a797062b677b0796deb06057c530"/>
</g>
<g>
<use xlink:href="#path_c3fac36f5f8d15e1acb8accb53c9c8ab"/>
</g>
<g>
<use xlink:href="#path_e3e0029b1ff9586eb440544d4610833d"/>
</g>
<g>
<use xlink:href="#path_361f95e33ed7227bce22915482bdd209"/>
</g>
<g>
<use xlink:href="#path_61e4281663084d249c6146216a26cc52"/>
</g>
<g>
<use xlink:href="#path_0cfc3e3ca87659d34ad549d63185b6d2"/>
</g>
<g>
<g>
<use xlink:href="#path_9fe50922ae8eb289e7c2bec1e3df97ed"/>
</g>
<g>
<use xlink:href="#path_9f256d0631d26f2fce5233f636a30f2e"/>
</g>
</g>
<g>
<g>
<g>
<g>
<use xlink:href="#path_ca0b51536f3dca8e8f0e9e0bbf95bf7e"/>
</g>
</g>
</g>
</g>
<g>
<g>
<g>
<g>
<use xlink:href="#path_12a66543f4e3b4f35ec13adbd662289a"/>
</g>
</g>
</g>
</g>
<g>
<g>
<g>
<g>
<use xlink:href="#path_5f12d88954d89c8eea51bac4a724259d"/>
</g>
</g>
</g>
</g>
<g>
<g>
<g>
<g>
<use xlink:href="#path_46d878436d4af327915d9ae5e53350fa"/>
</g>
</g>
</g>
</g>
<g>
<g>
<g>
<g>
<use xlink:href="#path_a4889f05964b6b05bc4f4b52090e8914"/>
</g>
</g>
</g>
</g>
<g>
<g>
<g>
<g>
<use xlink:href="#path_9c87bba55ce8ef5fc490e1b93057af97"/>
</g>
</g>
</g>
</g>
<g>
<g>
<g>
<g>
<use xlink:href="#path_2b8a41df05f6776dc37491237add83a8"/>
</g>
</g>
</g>
</g>
<g>
<g>
<g>
<g>
<use xlink:href="#path_5c2f23c5979d46f256b9c2b13ae25d22"/>
</g>
</g>
</g>
</g>
<g>
<g>
<g>
<g>
<use xlink:href="#path_9b067c7fada3da5448f941724a01f991"/>
</g>
</g>
</g>
</g>
<g>
<g>
<g>
<g>
<use xlink:href="#path_543946909ca98053e9df2044d43d8e9f"/>
</g>
</g>
</g>
</g>
<g>
<g>
<g>
<g>
<use xlink:href="#path_ccad783d240959bedd3427ed1bc5730a"/>
</g>
</g>
</g>
</g>
<g>
<g>
<g>
<g>
<use xlink:href="#path_15c38203dcd408f8ef3e3c61b29d9dc5"/>
</g>
</g>
</g>
</g>
</g>
</svg>