<svg xmlns="http://www.w3.org/2000/svg" xmlns:xlink="http://www.w3.org/1999/xlink" width="500" zoomAndPan="magnify" viewBox="0 0 375 374.999991" height="500" preserveAspectRatio="xMidYMid meet" version="1.0"><defs><g/><clipPath id="12c261aa42"><path d="M 291 122 L 313 122 L 313 194.625 L 291 194.625 Z M 291 122 " clip-rule="nonzero"/></clipPath><clipPath id="6fa3a2513e"><path d="M 270.617188 112 L 293 112 L 293 125 L 270.617188 125 Z M 270.617188 112 " clip-rule="nonzero"/></clipPath><clipPath id="7ff3a17e34"><path d="M 283 100.125 L 295 100.125 L 295 125 L 283 125 Z M 283 100.125 " clip-rule="nonzero"/></clipPath><clipPath id="044b52efb0"><path d="M 310 136 L 343 136 L 343 194.625 L 310 194.625 Z M 310 136 " clip-rule="nonzero"/></clipPath><clipPath id="39bdd7720d"><path d="M 342 135 L 357.617188 135 L 357.617188 142 L 342 142 Z M 342 135 " clip-rule="nonzero"/></clipPath><clipPath id="87438935ba"><path d="M 355 133 L 357.617188 133 L 357.617188 140 L 355 140 Z M 355 133 " clip-rule="nonzero"/></clipPath></defs><g clip-path="url(#12c261aa42)"><path fill="#45462a" d="M 311.179688 194.617188 C 311.703125 192.648438 312.136719 190.644531 312.386719 188.601562 C 313.367188 180.746094 312.425781 172.449219 310.480469 164.246094 C 307.644531 152.277344 302.480469 140.445312 296.632812 130.363281 C 295.050781 127.636719 293.386719 125.054688 291.742188 122.609375 C 291.65625 122.480469 291.484375 122.445312 291.355469 122.53125 C 291.226562 122.613281 291.191406 122.789062 291.273438 122.917969 C 292.835938 125.398438 294.367188 128.039062 295.894531 130.785156 C 301.523438 140.890625 306.71875 152.585938 309.542969 164.46875 C 311.46875 172.566406 312.210938 180.722656 311.53125 188.511719 C 311.355469 190.539062 311.132812 192.542969 310.75 194.519531 C 310.722656 194.636719 310.800781 194.753906 310.917969 194.78125 C 311.035156 194.8125 311.15625 194.734375 311.179688 194.617188 Z M 311.179688 194.617188 " fill-opacity="1" fill-rule="evenodd"/></g><g clip-path="url(#6fa3a2513e)"><path fill="#45462a" d="M 292.105469 123.773438 C 292.132812 123.722656 292.140625 123.660156 292.121094 123.601562 C 292.121094 123.503906 292.125 123.417969 292.105469 123.316406 C 292.042969 122.972656 291.855469 122.652344 291.679688 122.320312 C 291.195312 121.421875 290.5 120.566406 289.988281 119.792969 C 289.222656 118.652344 288.5 117.480469 287.6875 116.371094 C 287.136719 115.621094 286.546875 114.902344 285.886719 114.234375 C 285.339844 113.683594 284.644531 113.066406 283.882812 112.65625 C 283.332031 112.363281 282.746094 112.175781 282.144531 112.183594 C 281.5625 112.1875 281.027344 112.363281 280.527344 112.632812 C 279.507812 113.183594 278.632812 114.164062 277.652344 114.683594 C 277.214844 114.921875 276.742188 115.09375 276.257812 115.238281 C 275.078125 115.582031 273.824219 115.753906 272.683594 116.160156 C 272.167969 116.34375 271.5 116.699219 271.132812 117.183594 C 270.835938 117.578125 270.714844 118.046875 270.933594 118.578125 C 271.320312 119.53125 272.078125 120.0625 272.984375 120.371094 C 274.199219 120.785156 275.691406 120.78125 276.773438 120.957031 C 277.144531 121.015625 277.515625 121.085938 277.886719 121.167969 C 278.25 121.25 278.609375 121.34375 278.960938 121.457031 C 279.253906 121.550781 279.53125 121.671875 279.808594 121.796875 C 280.976562 122.339844 282.050781 123.09375 283.273438 123.53125 C 284 123.78125 284.722656 123.890625 285.445312 123.933594 C 286.488281 123.992188 287.535156 123.902344 288.613281 123.925781 C 288.964844 123.933594 289.316406 123.976562 289.667969 124.027344 C 290.167969 124.109375 290.667969 124.234375 291.171875 124.328125 C 291.519531 124.390625 291.867188 124.433594 292.21875 124.46875 C 292.398438 124.5 292.566406 124.375 292.597656 124.195312 C 292.621094 124.015625 292.5 123.847656 292.320312 123.820312 Z M 291.65625 123.675781 C 291.589844 123.585938 291.519531 123.503906 291.460938 123.402344 C 291.183594 122.949219 290.914062 122.453125 290.589844 121.988281 C 290.164062 121.375 289.714844 120.773438 289.34375 120.226562 C 288.585938 119.09375 287.863281 117.933594 287.058594 116.832031 C 286.53125 116.109375 285.972656 115.414062 285.34375 114.773438 C 284.84375 114.265625 284.21875 113.691406 283.527344 113.316406 C 283.089844 113.078125 282.628906 112.921875 282.152344 112.925781 C 281.691406 112.925781 281.269531 113.066406 280.875 113.277344 C 279.847656 113.820312 278.96875 114.796875 277.988281 115.3125 C 277.5 115.570312 276.988281 115.757812 276.457031 115.910156 C 275.285156 116.246094 274.046875 116.410156 272.914062 116.808594 C 272.507812 116.953125 271.972656 117.21875 271.679688 117.597656 C 271.523438 117.800781 271.453125 118.042969 271.566406 118.320312 C 271.875 119.070312 272.488281 119.472656 273.207031 119.710938 C 274.386719 120.105469 275.835938 120.070312 276.886719 120.234375 C 277.269531 120.292969 277.660156 120.355469 278.039062 120.4375 C 278.433594 120.515625 278.820312 120.613281 279.195312 120.734375 C 279.515625 120.835938 279.824219 120.960938 280.128906 121.097656 C 281.28125 121.617188 282.339844 122.351562 283.539062 122.761719 C 284.195312 122.988281 284.839844 123.085938 285.492188 123.125 C 286.527344 123.183594 287.566406 123.105469 288.636719 123.136719 C 289.148438 123.152344 289.660156 123.21875 290.164062 123.324219 C 290.664062 123.425781 291.160156 123.558594 291.65625 123.675781 Z M 291.65625 123.675781 " fill-opacity="1" fill-rule="evenodd"/></g><path fill="#45462a" d="M 283.507812 112.863281 C 283.550781 112.769531 283.546875 112.652344 283.515625 112.507812 C 283.480469 112.347656 283.351562 112.175781 283.328125 112.054688 C 283.273438 111.78125 283.273438 111.503906 283.304688 111.230469 C 283.335938 110.953125 283.402344 110.679688 283.515625 110.417969 C 283.636719 110.121094 283.824219 109.867188 284.042969 109.640625 C 284.40625 109.257812 284.84375 108.933594 285.230469 108.582031 C 285.796875 108.078125 286.628906 106.910156 287.460938 106.492188 C 287.886719 106.277344 288.289062 106.375 288.628906 107.046875 C 288.835938 107.457031 288.980469 107.898438 289.089844 108.351562 C 289.363281 109.464844 289.445312 110.65625 289.710938 111.738281 C 290.058594 113.140625 290.644531 114.421875 291.027344 115.785156 C 291.179688 116.335938 291.304688 116.898438 291.355469 117.492188 C 291.453125 118.535156 291.4375 119.578125 291.5 120.621094 C 291.527344 121.082031 291.5625 121.539062 291.632812 121.996094 C 291.707031 122.347656 291.734375 122.761719 291.832031 123.132812 C 291.882812 123.316406 291.941406 123.492188 292.03125 123.644531 C 292.078125 123.75 292.203125 123.792969 292.304688 123.746094 C 292.40625 123.691406 292.449219 123.574219 292.402344 123.46875 C 292.335938 123.292969 292.3125 123.097656 292.304688 122.894531 C 292.285156 122.558594 292.308594 122.21875 292.292969 121.910156 C 292.242188 121.472656 292.21875 121.03125 292.207031 120.59375 C 292.183594 119.539062 292.21875 118.484375 292.15625 117.429688 C 292.113281 116.78125 291.992188 116.164062 291.828125 115.5625 C 291.460938 114.207031 290.867188 112.933594 290.515625 111.535156 C 290.246094 110.457031 290.152344 109.265625 289.875 108.15625 C 289.746094 107.640625 289.578125 107.148438 289.339844 106.683594 C 288.878906 105.789062 288.308594 105.539062 287.75 105.59375 C 287.257812 105.644531 286.742188 105.972656 286.257812 106.417969 C 285.675781 106.957031 285.132812 107.65625 284.726562 108.027344 C 284.328125 108.394531 283.875 108.734375 283.507812 109.136719 C 283.230469 109.433594 282.996094 109.761719 282.839844 110.144531 C 282.710938 110.472656 282.621094 110.816406 282.59375 111.160156 C 282.566406 111.511719 282.601562 111.863281 282.691406 112.207031 C 282.730469 112.351562 282.832031 112.578125 282.945312 112.746094 C 282.980469 112.796875 283.050781 112.796875 283.0625 112.839844 C 283.054688 112.960938 283.148438 113.070312 283.273438 113.074219 C 283.394531 113.078125 283.5 112.984375 283.507812 112.863281 Z M 283.507812 112.863281 " fill-opacity="1" fill-rule="evenodd"/><g clip-path="url(#7ff3a17e34)"><path fill="#45462a" d="M 284.699219 107.835938 C 284.691406 107.855469 284.683594 107.871094 284.683594 107.890625 C 284.660156 108.007812 284.738281 108.121094 284.859375 108.144531 C 284.890625 108.214844 284.925781 108.128906 284.953125 108.160156 C 284.976562 108.183594 284.976562 108.132812 285.003906 108.148438 C 285.09375 108.214844 285.03125 108.050781 285.125 108.050781 C 285.171875 108.046875 285.105469 107.992188 285.15625 107.976562 C 285.21875 107.953125 285.117188 107.933594 285.15625 107.847656 C 285.171875 107.8125 284.972656 107.636719 285.074219 107.597656 C 285.082031 107.597656 285.089844 107.609375 285.097656 107.621094 L 285.097656 107.632812 C 285.097656 107.628906 285.097656 107.625 285.097656 107.621094 L 284.933594 107.097656 L 284.59375 105.554688 C 284.480469 104.898438 284.417969 104.246094 284.46875 103.605469 C 284.519531 102.984375 284.675781 102.375 284.988281 101.796875 C 285.105469 101.570312 285.253906 101.332031 285.445312 101.164062 C 285.589844 101.035156 285.757812 100.949219 285.96875 100.984375 C 286.289062 101.039062 286.601562 101.21875 286.902344 101.4375 C 287.414062 101.808594 287.886719 102.292969 288.304688 102.621094 C 288.859375 103.058594 289.644531 103.414062 290.285156 103.859375 C 290.539062 104.03125 290.761719 104.21875 290.933594 104.4375 C 291.210938 104.789062 291.347656 105.242188 291.421875 105.726562 C 291.605469 106.964844 291.394531 108.421875 291.546875 109.484375 C 291.804688 111.121094 292.421875 112.726562 292.832031 114.347656 C 293.003906 115.019531 293.140625 115.695312 293.191406 116.375 C 293.246094 117.125 293.199219 117.851562 293.097656 118.566406 C 292.871094 120.136719 292.300781 121.636719 292.054688 123.222656 C 292.027344 123.402344 292.019531 123.582031 292.007812 123.765625 C 291.976562 123.90625 292.070312 124.039062 292.210938 124.070312 C 292.351562 124.097656 292.484375 124.003906 292.511719 123.863281 C 292.5625 123.71875 292.621094 123.582031 292.664062 123.433594 C 293.0625 122.109375 293.425781 120.789062 293.722656 119.453125 C 293.949219 118.441406 294.085938 117.410156 294.035156 116.324219 C 294 115.589844 293.871094 114.859375 293.699219 114.136719 C 293.3125 112.535156 292.699219 110.953125 292.453125 109.34375 C 292.277344 108.285156 292.460938 106.824219 292.253906 105.597656 C 292.148438 104.960938 291.941406 104.386719 291.570312 103.925781 C 291.351562 103.652344 291.0625 103.414062 290.738281 103.195312 C 290.109375 102.765625 289.335938 102.421875 288.792969 101.996094 C 288.300781 101.605469 287.714844 101 287.09375 100.605469 C 286.769531 100.402344 286.4375 100.253906 286.097656 100.199219 C 285.714844 100.132812 285.386719 100.230469 285.105469 100.414062 C 284.753906 100.648438 284.480469 101.039062 284.277344 101.414062 C 283.910156 102.09375 283.722656 102.808594 283.660156 103.539062 C 283.601562 104.246094 283.660156 104.972656 283.789062 105.695312 C 283.851562 106.023438 283.90625 106.355469 283.996094 106.683594 C 284.054688 106.90625 284.125 107.121094 284.203125 107.332031 L 284.488281 107.910156 C 284.523438 107.957031 284.683594 108.019531 284.660156 108.09375 C 284.648438 108.128906 284.703125 108.046875 284.683594 108.046875 C 284.609375 108.039062 284.707031 107.96875 284.667969 107.949219 C 284.644531 107.9375 284.683594 107.921875 284.667969 107.910156 C 284.617188 107.871094 284.664062 107.863281 284.699219 107.835938 Z M 284.773438 107.746094 C 284.75 107.757812 284.710938 107.738281 284.722656 107.777344 C 284.726562 107.78125 284.726562 107.785156 284.726562 107.792969 C 284.738281 107.773438 284.753906 107.761719 284.773438 107.746094 Z M 284.84375 107.714844 C 284.824219 107.714844 284.792969 107.6875 284.792969 107.714844 C 284.792969 107.726562 284.789062 107.734375 284.785156 107.742188 C 284.804688 107.726562 284.824219 107.71875 284.84375 107.714844 Z M 284.890625 107.707031 C 284.878906 107.695312 284.875 107.683594 284.867188 107.695312 C 284.863281 107.703125 284.859375 107.707031 284.851562 107.710938 L 284.875 107.707031 Z M 284.890625 107.707031 " fill-opacity="1" fill-rule="evenodd"/></g><path fill="#45462a" d="M 284.132812 102.371094 C 284.152344 102.386719 284.175781 102.398438 284.203125 102.40625 C 284.316406 102.449219 284.445312 102.386719 284.484375 102.273438 C 284.566406 102.226562 284.449219 102.175781 284.46875 102.082031 C 284.472656 102.035156 284.402344 102.058594 284.363281 101.984375 C 284.34375 101.9375 284.304688 101.914062 284.179688 101.847656 C 284.011719 101.757812 283.667969 101.78125 283.628906 101.777344 C 283.289062 101.773438 282.941406 101.8125 282.601562 101.890625 C 282.265625 101.96875 281.9375 102.085938 281.628906 102.230469 C 281.3125 102.382812 281.074219 102.601562 280.875 102.851562 C 280.621094 103.167969 280.441406 103.542969 280.210938 103.886719 C 279.96875 104.25 279.660156 104.582031 279.398438 104.941406 C 279.269531 105.117188 279.15625 105.300781 279.058594 105.492188 C 278.804688 106.011719 278.847656 106.523438 279.078125 107.027344 C 279.453125 107.855469 280.414062 108.644531 280.722656 109.355469 C 281.011719 110.011719 281.007812 110.71875 281.226562 111.367188 C 281.300781 111.589844 281.378906 111.816406 281.535156 112.003906 C 281.605469 112.085938 281.679688 112.140625 281.773438 112.210938 C 281.835938 112.304688 281.964844 112.324219 282.058594 112.261719 C 282.148438 112.195312 282.171875 112.070312 282.109375 111.976562 C 282.082031 111.878906 282.082031 111.796875 282.058594 111.703125 C 282.019531 111.574219 281.980469 111.453125 281.941406 111.332031 C 281.792969 110.796875 281.734375 110.246094 281.609375 109.699219 C 281.5625 109.484375 281.5 109.273438 281.410156 109.0625 C 281.117188 108.347656 280.175781 107.539062 279.8125 106.699219 C 279.695312 106.425781 279.652344 106.144531 279.796875 105.867188 C 279.875 105.714844 279.96875 105.574219 280.070312 105.4375 C 280.347656 105.074219 280.667969 104.738281 280.921875 104.367188 C 281.140625 104.035156 281.304688 103.675781 281.539062 103.371094 C 281.664062 103.214844 281.800781 103.070312 282 102.972656 C 282.25 102.84375 282.515625 102.738281 282.792969 102.664062 C 283.066406 102.59375 283.351562 102.546875 283.632812 102.542969 C 283.664062 102.539062 283.910156 102.546875 284.082031 102.507812 C 284.128906 102.496094 284.164062 102.421875 284.179688 102.457031 C 284.191406 102.476562 284.195312 102.40625 284.1875 102.414062 C 284.152344 102.425781 284.152344 102.382812 284.132812 102.371094 Z M 284.105469 102.339844 C 284.109375 102.351562 284.109375 102.367188 284.125 102.367188 L 284.132812 102.371094 C 284.125 102.359375 284.113281 102.351562 284.105469 102.339844 Z M 284.058594 102.242188 C 284.046875 102.285156 284.039062 102.320312 284.097656 102.332031 L 284.101562 102.332031 C 284.082031 102.308594 284.066406 102.277344 284.058594 102.242188 Z M 284.058594 102.242188 " fill-opacity="1" fill-rule="evenodd"/><path fill="#45462a" d="M 279.144531 107.089844 C 279.179688 107.128906 279.230469 107.15625 279.289062 107.160156 C 279.410156 107.175781 279.515625 107.085938 279.527344 106.964844 C 279.558594 106.941406 279.511719 106.921875 279.53125 106.898438 C 279.597656 106.8125 279.453125 106.828125 279.433594 106.726562 C 279.425781 106.675781 279.367188 106.726562 279.328125 106.671875 C 279.292969 106.621094 279.261719 106.648438 279.160156 106.625 C 279.046875 106.597656 278.878906 106.695312 278.859375 106.699219 C 278.671875 106.792969 278.492188 106.90625 278.324219 107.035156 C 278.160156 107.160156 278.011719 107.296875 277.867188 107.4375 L 276.035156 109.371094 C 275.539062 109.878906 274.570312 110.546875 274 111.296875 C 273.683594 111.710938 273.484375 112.148438 273.480469 112.59375 C 273.480469 112.976562 273.582031 113.34375 273.738281 113.703125 C 273.980469 114.257812 274.347656 114.804688 274.597656 115.355469 C 274.625 115.421875 274.648438 115.488281 274.683594 115.550781 C 274.734375 115.625 274.792969 115.652344 274.847656 115.722656 C 274.871094 115.828125 274.980469 115.898438 275.085938 115.871094 C 275.195312 115.847656 275.261719 115.742188 275.234375 115.636719 C 275.253906 115.5 275.273438 115.386719 275.25 115.25 C 275.097656 114.320312 274.179688 113.519531 274.199219 112.601562 C 274.210938 112.203125 274.484375 111.832031 274.816406 111.472656 C 275.386719 110.867188 276.15625 110.332031 276.578125 109.902344 L 278.394531 107.957031 C 278.511719 107.832031 278.636719 107.710938 278.773438 107.601562 C 278.898438 107.496094 279.03125 107.398438 279.175781 107.320312 C 279.183594 107.316406 279.269531 107.164062 279.304688 107.207031 C 279.328125 107.234375 279.269531 107.15625 279.253906 107.175781 C 279.238281 107.183594 279.234375 107.148438 279.21875 107.15625 C 279.160156 107.191406 279.160156 107.140625 279.144531 107.089844 Z M 279.089844 106.976562 C 279.082031 106.992188 279.074219 107.007812 279.09375 107.015625 L 279.105469 107.023438 L 279.097656 107.007812 C 279.097656 107.003906 279.097656 106.992188 279.09375 106.984375 Z M 279.089844 106.976562 " fill-opacity="1" fill-rule="evenodd"/><g clip-path="url(#044b52efb0)"><path fill="#45462a" d="M 311.429688 194.40625 L 311.429688 194.410156 C 311.429688 194.410156 311.4375 194.390625 311.441406 194.371094 C 311.472656 194.25 311.578125 194.019531 311.652344 193.691406 C 311.910156 192.621094 312.15625 190.742188 312.183594 190.585938 C 312.527344 188.25 312.910156 185.9375 313.347656 183.636719 C 313.78125 181.335938 314.265625 179.046875 314.820312 176.75 C 316.214844 170.882812 318.058594 164.941406 320.585938 159.433594 C 322.296875 155.714844 324.316406 152.183594 326.769531 149.019531 C 330.808594 143.820312 335.992188 139.601562 342.773438 137.105469 C 342.917969 137.050781 342.992188 136.894531 342.941406 136.75 C 342.890625 136.605469 342.730469 136.527344 342.585938 136.582031 C 335.617188 138.996094 330.230469 143.191406 326.03125 148.433594 C 323.472656 151.621094 321.351562 155.1875 319.589844 158.976562 C 317.003906 164.539062 315.199219 170.570312 313.808594 176.511719 C 313.273438 178.832031 312.808594 181.140625 312.390625 183.460938 C 311.976562 185.78125 311.617188 188.105469 311.292969 190.460938 C 311.277344 190.613281 310.960938 192.488281 310.921875 193.597656 C 310.914062 193.941406 310.949219 194.199219 310.960938 194.328125 C 310.984375 194.5625 311.121094 194.644531 311.136719 194.648438 C 311.261719 194.679688 311.386719 194.609375 311.421875 194.488281 C 311.429688 194.460938 311.429688 194.433594 311.429688 194.40625 Z M 311.429688 194.40625 " fill-opacity="1" fill-rule="evenodd"/></g><path fill="#45462a" d="M 338.097656 168.769531 C 337.894531 168.96875 337.71875 169.164062 337.648438 169.210938 C 336.589844 169.953125 335.511719 170.65625 334.46875 171.414062 C 333.769531 171.925781 333.082031 172.464844 332.421875 173.035156 C 330.132812 174.980469 328.507812 177.585938 326.433594 179.714844 C 325.582031 180.589844 324.652344 181.386719 323.5625 182.011719 C 322.699219 182.515625 321.777344 182.921875 320.839844 183.289062 C 319.40625 183.855469 317.921875 184.335938 316.496094 184.871094 C 315.65625 185.191406 314.640625 185.574219 313.78125 186.117188 C 313.542969 186.265625 313.308594 186.414062 313.109375 186.597656 C 312.789062 186.890625 312.542969 187.230469 312.355469 187.601562 C 312.289062 187.699219 312.316406 187.828125 312.414062 187.890625 C 312.511719 187.957031 312.640625 187.929688 312.703125 187.832031 C 312.902344 187.605469 313.148438 187.433594 313.398438 187.246094 C 313.753906 186.980469 314.144531 186.730469 314.5625 186.523438 C 315.300781 186.160156 316.097656 185.890625 316.78125 185.660156 C 318.230469 185.164062 319.738281 184.75 321.191406 184.210938 C 322.191406 183.84375 323.15625 183.414062 324.070312 182.890625 C 325.238281 182.210938 326.234375 181.347656 327.140625 180.394531 C 329.175781 178.265625 330.761719 175.675781 333.019531 173.730469 C 333.5 173.316406 334 172.929688 334.507812 172.550781 C 335.703125 171.648438 336.941406 170.804688 338.160156 169.929688 C 338.320312 169.8125 339.078125 169.371094 339.445312 169.015625 C 339.691406 168.773438 339.777344 168.515625 339.753906 168.339844 C 339.726562 168.132812 339.46875 167.859375 338.976562 167.835938 C 338.375 167.800781 337.289062 167.984375 337.152344 168.003906 C 336.011719 168.167969 334.871094 168.34375 333.734375 168.554688 C 332.597656 168.765625 331.460938 169.003906 330.339844 169.300781 C 327.472656 170.058594 324.640625 171.371094 322.09375 173.097656 C 319.539062 174.828125 317.269531 176.976562 315.535156 179.402344 C 314.929688 180.25 314.347656 181.132812 313.835938 182.054688 C 313.492188 182.667969 313.1875 183.300781 312.898438 183.9375 C 312.605469 184.613281 312.386719 185.550781 312.101562 186.269531 C 312.078125 186.332031 312.042969 186.390625 312.050781 186.453125 C 312.0625 186.582031 312.066406 186.464844 312.132812 186.570312 C 312.0625 186.667969 312.085938 186.808594 312.1875 186.875 C 312.285156 186.945312 312.421875 186.921875 312.492188 186.824219 C 312.625 186.863281 312.488281 186.871094 312.625 186.855469 C 312.65625 186.851562 312.671875 186.832031 312.695312 186.808594 C 312.816406 186.703125 312.890625 186.546875 312.972656 186.394531 C 313.3125 185.765625 313.488281 184.9375 313.785156 184.355469 C 314.15625 183.601562 314.574219 182.863281 315.011719 182.136719 C 315.445312 181.410156 315.902344 180.695312 316.386719 180.003906 C 318.035156 177.664062 320.203125 175.585938 322.644531 173.902344 C 325.089844 172.214844 327.8125 170.925781 330.574219 170.171875 C 331.671875 169.875 332.777344 169.625 333.898438 169.410156 C 335.015625 169.195312 336.144531 169.015625 337.273438 168.84375 C 337.339844 168.835938 337.710938 168.800781 338.097656 168.769531 Z M 338.097656 168.769531 " fill-opacity="1" fill-rule="evenodd"/><path fill="#45462a" d="M 284.402344 148.222656 C 284.714844 148.320312 285.019531 148.433594 285.324219 148.554688 C 285.675781 148.691406 286.023438 148.84375 286.367188 149.003906 C 287.910156 149.703125 289.40625 150.542969 290.855469 151.457031 C 292.308594 152.375 293.714844 153.378906 295.066406 154.398438 C 296.550781 155.519531 297.929688 156.730469 299.238281 158.015625 C 300.550781 159.304688 301.789062 160.667969 302.996094 162.085938 C 304.898438 164.300781 306.53125 166.40625 307.855469 168.679688 C 309.167969 170.929688 310.175781 173.347656 310.824219 176.214844 C 310.882812 176.472656 310.964844 176.761719 311.070312 177.070312 C 311.3125 177.777344 311.613281 178.585938 311.867188 179.285156 C 311.988281 179.632812 312.128906 179.921875 312.179688 180.199219 C 312.179688 180.320312 312.277344 180.417969 312.398438 180.417969 C 312.523438 180.417969 312.617188 180.320312 312.617188 180.199219 C 312.675781 179.917969 312.703125 179.597656 312.667969 179.230469 C 312.65625 179.101562 312.621094 178.972656 312.59375 178.839844 C 312.378906 177.863281 311.984375 176.761719 311.84375 175.988281 C 311.179688 173.003906 310.144531 170.484375 308.773438 168.140625 C 307.414062 165.820312 305.726562 163.675781 303.761719 161.421875 C 302.515625 160 301.238281 158.636719 299.886719 157.347656 C 298.53125 156.054688 297.105469 154.835938 295.574219 153.714844 C 294.1875 152.703125 292.75 151.710938 291.265625 150.800781 C 289.777344 149.882812 288.242188 149.042969 286.660156 148.347656 L 284.484375 147.492188 C 284.433594 147.476562 284.015625 147.316406 283.78125 147.3125 C 283.507812 147.308594 283.351562 147.457031 283.300781 147.640625 C 283.242188 147.839844 283.324219 148.132812 283.574219 148.433594 C 284.023438 148.960938 285.019531 149.636719 285.21875 149.800781 C 286.582031 150.941406 287.976562 152.046875 289.28125 153.253906 C 290.132812 154.042969 290.949219 154.875 291.679688 155.792969 C 293.621094 158.230469 293.929688 161.285156 295.265625 163.902344 C 295.613281 164.589844 296.03125 165.25 296.554688 165.863281 C 297.527344 167 298.585938 168.148438 299.691406 169.25 C 300.800781 170.351562 301.953125 171.40625 303.105469 172.367188 C 305.09375 174.015625 307.089844 175.621094 308.800781 177.476562 C 309.703125 178.457031 310.496094 179.523438 311.21875 180.683594 C 311.394531 180.96875 311.585938 181.246094 311.757812 181.542969 C 311.816406 181.671875 311.972656 181.730469 312.101562 181.667969 C 312.230469 181.609375 312.289062 181.453125 312.230469 181.324219 C 312.109375 180.988281 311.992188 180.660156 311.84375 180.34375 C 311.222656 179.050781 310.378906 177.929688 309.453125 176.886719 C 307.753906 174.960938 305.691406 173.359375 303.675781 171.683594 C 302.542969 170.738281 301.410156 169.699219 300.324219 168.617188 C 299.234375 167.535156 298.1875 166.40625 297.230469 165.285156 C 296.753906 164.726562 296.375 164.125 296.054688 163.5 C 294.691406 160.835938 294.34375 157.730469 292.363281 155.25 C 291.597656 154.300781 290.75 153.433594 289.851562 152.625 C 288.527344 151.425781 287.097656 150.335938 285.707031 149.210938 C 285.578125 149.105469 285.097656 148.785156 284.660156 148.4375 C 284.570312 148.363281 284.484375 148.292969 284.402344 148.222656 Z M 284.402344 148.222656 " fill-opacity="1" fill-rule="evenodd"/><path fill="#45462a" d="M 342.839844 136.574219 L 342.734375 136.628906 C 342.679688 136.621094 342.625 136.636719 342.582031 136.671875 C 342.53125 136.707031 342.503906 136.761719 342.496094 136.820312 C 342.472656 136.878906 342.472656 136.949219 342.503906 137.007812 L 342.492188 137.023438 C 342.222656 137.257812 342.488281 136.851562 342.519531 137.09375 C 342.53125 137.183594 342.660156 137.164062 342.703125 137.167969 C 342.789062 137.171875 342.855469 137.148438 342.917969 137.101562 C 342.933594 137.089844 342.953125 137.074219 342.96875 137.050781 C 343.210938 136.933594 343.453125 136.808594 343.703125 136.699219 C 343.890625 136.621094 344.082031 136.554688 344.277344 136.5 C 345.164062 136.285156 346.070312 136.253906 346.964844 136.097656 C 347.363281 136.03125 347.753906 135.941406 348.144531 135.808594 C 348.453125 135.703125 348.730469 135.554688 348.988281 135.390625 C 349.558594 135.03125 350.054688 134.570312 350.667969 134.261719 C 351.234375 133.980469 352.308594 134.023438 353.054688 133.738281 C 353.503906 133.570312 353.84375 133.292969 353.988281 132.855469 C 354.046875 132.671875 354.066406 132.488281 354.054688 132.300781 C 354.035156 131.964844 353.914062 131.621094 353.929688 131.292969 C 353.9375 131.101562 353.988281 130.925781 354.058594 130.75 C 354.171875 130.457031 354.339844 130.179688 354.480469 129.898438 C 354.574219 129.730469 354.695312 129.492188 354.691406 129.277344 C 354.691406 129.140625 354.652344 129.011719 354.550781 128.898438 C 354.460938 128.789062 354.332031 128.714844 354.195312 128.667969 C 354.039062 128.617188 353.859375 128.597656 353.710938 128.585938 C 353.449219 128.5625 353.191406 128.554688 352.9375 128.550781 C 352.558594 128.550781 352.183594 128.566406 351.800781 128.578125 C 351.261719 128.589844 350.726562 128.589844 350.199219 128.660156 C 349.832031 128.707031 349.46875 128.789062 349.113281 128.921875 C 348.597656 129.117188 348.125 129.394531 347.683594 129.714844 C 347.046875 130.175781 346.464844 130.726562 345.871094 131.226562 C 345.472656 131.578125 345.035156 131.902344 344.632812 132.25 C 344.449219 132.40625 344.269531 132.566406 344.101562 132.738281 C 343.746094 133.089844 343.4375 133.488281 343.175781 133.914062 C 342.917969 134.34375 342.710938 134.804688 342.566406 135.285156 L 342.378906 136.320312 L 342.375 136.664062 C 342.375 136.71875 342.417969 136.878906 342.417969 136.878906 C 342.417969 136.878906 342.453125 136.707031 342.46875 136.683594 C 342.542969 136.558594 342.660156 136.519531 342.804688 136.554688 C 342.816406 136.558594 342.828125 136.566406 342.839844 136.574219 Z M 343.011719 136.683594 C 343.140625 136.597656 343.21875 136.535156 343.011719 136.632812 L 343.011719 136.640625 C 343.011719 136.652344 343.011719 136.667969 343.011719 136.683594 Z M 343.019531 136.484375 C 343.179688 136.402344 343.339844 136.320312 343.503906 136.25 C 343.714844 136.15625 343.933594 136.074219 344.15625 136.015625 C 345.046875 135.785156 345.96875 135.734375 346.871094 135.570312 C 347.238281 135.503906 347.601562 135.417969 347.960938 135.289062 C 348.222656 135.191406 348.460938 135.0625 348.6875 134.917969 C 349.269531 134.539062 349.777344 134.066406 350.40625 133.742188 C 350.980469 133.445312 352.078125 133.472656 352.835938 133.171875 C 353.101562 133.070312 353.316406 132.925781 353.398438 132.664062 C 353.4375 132.554688 353.441406 132.441406 353.4375 132.328125 C 353.421875 131.972656 353.324219 131.605469 353.351562 131.253906 C 353.371094 131 353.441406 130.761719 353.539062 130.535156 C 353.671875 130.230469 353.859375 129.941406 354.023438 129.652344 C 354.058594 129.582031 354.109375 129.5 354.144531 129.410156 C 354.167969 129.351562 354.199219 129.289062 354.15625 129.238281 C 354.113281 129.191406 354.046875 129.171875 353.980469 129.15625 C 353.875 129.132812 353.761719 129.125 353.664062 129.117188 L 351.820312 129.140625 C 351.300781 129.164062 350.785156 129.171875 350.28125 129.246094 C 349.960938 129.292969 349.644531 129.367188 349.332031 129.488281 C 348.871094 129.671875 348.453125 129.933594 348.058594 130.226562 C 347.441406 130.6875 346.878906 131.234375 346.304688 131.734375 L 344.527344 133.164062 C 344.214844 133.484375 343.941406 133.84375 343.71875 134.234375 C 343.503906 134.621094 343.339844 135.039062 343.226562 135.46875 L 343.027344 136.390625 Z M 343.019531 136.484375 " fill-opacity="1" fill-rule="evenodd"/><g clip-path="url(#39bdd7720d)"><path fill="#45462a" d="M 342.542969 136.917969 C 342.507812 136.875 342.460938 136.84375 342.398438 136.832031 C 342.28125 136.8125 342.167969 136.898438 342.148438 137.015625 C 342.128906 137.042969 342.15625 137.125 342.257812 137.269531 C 342.308594 137.339844 342.464844 137.472656 342.484375 137.496094 L 343.488281 138.128906 C 344.285156 138.59375 345.046875 139.003906 345.84375 139.324219 C 346.648438 139.652344 347.488281 139.882812 348.421875 140.023438 C 348.800781 140.074219 349.171875 140.152344 349.539062 140.238281 C 351.070312 140.609375 352.535156 141.191406 354.097656 141.429688 C 354.585938 141.503906 355.101562 141.601562 355.601562 141.585938 C 355.976562 141.570312 356.339844 141.5 356.679688 141.320312 C 357.234375 141.003906 357.34375 140.632812 357.285156 140.238281 C 357.234375 139.941406 357.082031 139.605469 356.835938 139.296875 C 356.527344 138.910156 356.097656 138.566406 355.882812 138.339844 L 355.546875 137.941406 C 355.261719 137.542969 355.292969 137.019531 355.113281 136.597656 C 355.003906 136.347656 354.847656 136.121094 354.597656 135.945312 C 354.351562 135.769531 354.074219 135.707031 353.773438 135.71875 C 353.289062 135.734375 352.746094 135.984375 352.3125 135.992188 C 352.09375 135.996094 351.878906 135.960938 351.667969 135.90625 C 351.3125 135.8125 350.964844 135.675781 350.621094 135.574219 C 350.253906 135.46875 349.871094 135.398438 349.484375 135.363281 C 349.097656 135.328125 348.710938 135.324219 348.335938 135.355469 C 348.179688 135.367188 348.0625 135.503906 348.074219 135.65625 C 348.085938 135.8125 348.222656 135.933594 348.375 135.917969 C 348.71875 135.898438 349.074219 135.90625 349.421875 135.949219 C 349.769531 135.992188 350.113281 136.0625 350.441406 136.167969 C 350.789062 136.277344 351.140625 136.425781 351.5 136.527344 C 351.765625 136.605469 352.039062 136.65625 352.316406 136.65625 C 352.753906 136.65625 353.304688 136.425781 353.792969 136.414062 C 353.933594 136.414062 354.066406 136.433594 354.179688 136.519531 C 354.3125 136.617188 354.386719 136.742188 354.445312 136.875 C 354.640625 137.351562 354.652344 137.917969 354.96875 138.359375 L 355.375 138.828125 C 355.585938 139.046875 355.980469 139.394531 356.3125 139.746094 C 356.433594 139.875 356.5625 139.988281 356.640625 140.125 C 356.699219 140.230469 356.742188 140.335938 356.726562 140.4375 C 356.707031 140.566406 356.582031 140.644531 356.382812 140.730469 C 356.128906 140.855469 355.859375 140.894531 355.585938 140.902344 C 355.125 140.910156 354.652344 140.808594 354.203125 140.738281 C 352.664062 140.492188 351.222656 139.898438 349.710938 139.523438 C 349.324219 139.425781 348.929688 139.34375 348.53125 139.28125 C 347.660156 139.152344 346.878906 138.921875 346.121094 138.621094 C 345.355469 138.320312 344.613281 137.949219 343.839844 137.515625 L 342.832031 136.949219 C 342.816406 136.941406 342.753906 136.898438 342.671875 136.878906 C 342.609375 136.863281 342.523438 136.878906 342.523438 136.878906 C 342.523438 136.878906 342.53125 136.90625 342.542969 136.917969 Z M 342.542969 136.921875 C 342.566406 136.953125 342.582031 136.992188 342.582031 137.03125 C 342.589844 136.996094 342.59375 136.957031 342.550781 136.933594 Z M 342.542969 136.921875 " fill-opacity="1" fill-rule="evenodd"/></g><path fill="#45462a" d="M 354.246094 130.046875 C 354.339844 129.984375 354.378906 129.863281 354.332031 129.753906 C 354.277344 129.640625 354.140625 129.585938 354.023438 129.640625 C 353.9375 129.519531 354.027344 129.703125 353.953125 129.632812 C 353.875 129.5625 353.988281 129.667969 353.902344 129.652344 C 353.824219 129.640625 353.847656 129.753906 353.820312 129.800781 C 353.804688 129.828125 353.816406 129.863281 353.816406 129.890625 C 353.816406 129.941406 353.839844 129.992188 353.875 130.046875 C 353.894531 130.082031 354.066406 130.15625 354.132812 130.203125 L 354.347656 130.378906 C 354.457031 130.46875 354.566406 130.566406 354.664062 130.675781 C 354.761719 130.777344 354.847656 130.890625 354.917969 131.003906 C 355.011719 131.15625 355.0625 131.328125 355.097656 131.503906 C 355.167969 131.828125 355.1875 132.164062 355.261719 132.480469 L 355.566406 133.40625 C 355.621094 133.753906 355.546875 134.007812 355.386719 134.207031 C 355.003906 134.691406 354.230469 134.882812 353.691406 135.28125 C 353.523438 135.40625 353.390625 135.550781 353.273438 135.707031 C 353.199219 135.777344 353.195312 135.894531 353.265625 135.96875 C 353.335938 136.046875 353.453125 136.046875 353.527344 135.976562 C 353.667969 135.890625 353.820312 135.847656 353.980469 135.777344 C 354.667969 135.472656 355.476562 135.183594 355.933594 134.660156 C 356.21875 134.332031 356.371094 133.902344 356.300781 133.308594 L 355.976562 132.316406 C 355.882812 131.941406 355.863281 131.535156 355.75 131.167969 C 355.691406 130.976562 355.613281 130.792969 355.503906 130.625 C 355.402344 130.480469 355.285156 130.339844 355.15625 130.207031 C 355.03125 130.078125 354.894531 129.960938 354.761719 129.855469 L 354.457031 129.671875 C 354.410156 129.648438 354.246094 129.605469 354.246094 129.605469 C 354.246094 129.605469 354.359375 129.714844 354.375 129.742188 C 354.40625 129.800781 354.402344 129.863281 354.394531 129.921875 C 354.390625 129.960938 354.339844 129.988281 354.339844 130.035156 C 354.347656 130.113281 354.238281 129.980469 354.28125 130.074219 C 354.304688 130.125 354.273438 130.078125 354.246094 130.046875 Z M 354.246094 130.046875 " fill-opacity="1" fill-rule="evenodd"/><g clip-path="url(#87438935ba)"><path fill="#45462a" d="M 355.691406 133.851562 C 355.691406 133.867188 355.679688 133.894531 355.640625 133.9375 C 355.613281 133.964844 355.648438 134.015625 355.667969 134.078125 C 355.703125 134.207031 355.925781 134.460938 355.949219 134.503906 C 356.121094 134.792969 356.285156 135.101562 356.425781 135.417969 C 356.515625 135.625 356.597656 135.839844 356.664062 136.050781 C 356.800781 136.480469 356.816406 136.835938 356.761719 137.171875 C 356.683594 137.628906 356.441406 138.03125 356.25 138.523438 C 356.199219 138.644531 356.175781 138.769531 356.132812 138.902344 C 356.078125 139.015625 356.128906 139.152344 356.242188 139.207031 C 356.359375 139.261719 356.496094 139.214844 356.550781 139.097656 C 356.628906 138.988281 356.707031 138.890625 356.773438 138.78125 C 357.078125 138.273438 357.277344 137.792969 357.371094 137.277344 C 357.449219 136.859375 357.433594 136.40625 357.273438 135.863281 C 357.183594 135.570312 357.070312 135.273438 356.933594 134.988281 C 356.804688 134.707031 356.648438 134.4375 356.492188 134.175781 C 356.46875 134.140625 356.207031 133.800781 356.207031 133.800781 C 356.207031 133.800781 356.210938 133.824219 356.21875 133.832031 C 356.355469 133.929688 356.191406 133.910156 356.140625 133.910156 C 356.152344 133.820312 356.105469 133.726562 356.011719 133.6875 C 355.902344 133.636719 355.773438 133.6875 355.722656 133.800781 C 355.597656 133.765625 355.832031 133.851562 355.691406 133.851562 Z M 356.140625 133.9375 L 356.136719 133.945312 C 356.175781 133.945312 356.234375 133.953125 356.160156 133.929688 L 356.140625 133.921875 Z M 355.691406 133.851562 L 355.683594 133.851562 C 355.554688 133.851562 355.683594 133.804688 355.691406 133.851562 Z M 355.691406 133.851562 " fill-opacity="1" fill-rule="evenodd"/></g><g fill="#45462a" fill-opacity="1"><g transform="translate(20.21163, 224.432388)"><g><path d="M 1.1875 0 L 1.1875 -0.53125 L 2.3125 -0.921875 C 3.03125 -1.171875 3.492188 -1.5 3.703125 -1.90625 C 3.921875 -2.320312 4.03125 -2.90625 4.03125 -3.65625 L 4.03125 -31.796875 C 4.03125 -32.515625 3.929688 -33.078125 3.734375 -33.484375 C 3.535156 -33.898438 3.097656 -34.234375 2.421875 -34.484375 L 1.1875 -34.96875 L 1.1875 -35.5 L 16.5625 -35.5 C 20.800781 -35.5 24.050781 -34.703125 26.3125 -33.109375 C 28.570312 -31.515625 29.703125 -29.300781 29.703125 -26.46875 C 29.703125 -24.882812 29.109375 -23.300781 27.921875 -21.71875 C 26.734375 -20.144531 24.867188 -18.929688 22.328125 -18.078125 L 29.796875 -3.234375 C 30.117188 -2.617188 30.488281 -2.125 30.90625 -1.75 C 31.320312 -1.375 31.867188 -1.039062 32.546875 -0.75 L 33.25 -0.484375 L 33.25 0 L 23.609375 0 L 15.65625 -16.953125 L 12 -16.953125 L 12 -3.65625 C 12 -2.976562 12.101562 -2.421875 12.3125 -1.984375 C 12.53125 -1.554688 12.984375 -1.234375 13.671875 -1.015625 L 14.953125 -0.53125 L 14.953125 0 Z M 12 -18.015625 L 14.578125 -18.015625 C 17.160156 -18.015625 19.023438 -18.707031 20.171875 -20.09375 C 21.316406 -21.476562 21.890625 -23.53125 21.890625 -26.25 C 21.890625 -29.007812 21.351562 -31.0625 20.28125 -32.40625 C 19.207031 -33.757812 17.394531 -34.4375 14.84375 -34.4375 L 12 -34.4375 Z M 12 -18.015625 "/></g></g></g><g fill="#45462a" fill-opacity="1"><g transform="translate(53.99113, 224.432388)"><g><path d="M 14.578125 -26.6875 C 16.910156 -26.6875 18.898438 -26.207031 20.546875 -25.25 C 22.203125 -24.300781 23.46875 -23.007812 24.34375 -21.375 C 25.21875 -19.75 25.65625 -17.894531 25.65625 -15.8125 C 25.65625 -15.414062 25.632812 -15.007812 25.59375 -14.59375 C 25.5625 -14.1875 25.492188 -13.820312 25.390625 -13.5 L 9.359375 -13.5 C 9.398438 -9.625 10.09375 -6.832031 11.4375 -5.125 C 12.78125 -3.425781 14.78125 -2.578125 17.4375 -2.578125 C 19.226562 -2.578125 20.675781 -2.863281 21.78125 -3.4375 C 22.894531 -4.007812 23.9375 -4.851562 24.90625 -5.96875 L 25.453125 -5.484375 C 24.335938 -3.515625 22.851562 -1.972656 21 -0.859375 C 19.15625 0.253906 16.941406 0.8125 14.359375 0.8125 C 11.816406 0.8125 9.554688 0.265625 7.578125 -0.828125 C 5.609375 -1.921875 4.066406 -3.488281 2.953125 -5.53125 C 1.847656 -7.582031 1.296875 -10.023438 1.296875 -12.859375 C 1.296875 -15.796875 1.941406 -18.296875 3.234375 -20.359375 C 4.523438 -22.421875 6.179688 -23.988281 8.203125 -25.0625 C 10.234375 -26.144531 12.359375 -26.6875 14.578125 -26.6875 Z M 14.421875 -25.609375 C 13.378906 -25.609375 12.488281 -25.289062 11.75 -24.65625 C 11.019531 -24.03125 10.445312 -22.921875 10.03125 -21.328125 C 9.625 -19.734375 9.398438 -17.484375 9.359375 -14.578125 L 18.5625 -14.578125 C 18.914062 -18.484375 18.769531 -21.296875 18.125 -23.015625 C 17.476562 -24.742188 16.242188 -25.609375 14.421875 -25.609375 Z M 14.421875 -25.609375 "/></g></g></g><g fill="#45462a" fill-opacity="1"><g transform="translate(81.262159, 224.432388)"><g><path d="M 1.078125 0 L 1.078125 -0.53125 L 1.828125 -0.75 C 3.085938 -1.113281 3.71875 -1.992188 3.71875 -3.390625 L 3.71875 -20.234375 C 3.71875 -21.015625 3.585938 -21.59375 3.328125 -21.96875 C 3.078125 -22.351562 2.597656 -22.613281 1.890625 -22.75 L 1.078125 -22.96875 L 1.078125 -23.515625 L 10.28125 -26.625 L 10.8125 -26.09375 L 11.25 -22.859375 C 12.5 -23.972656 13.910156 -24.890625 15.484375 -25.609375 C 17.066406 -26.328125 18.628906 -26.6875 20.171875 -26.6875 C 22.535156 -26.6875 24.351562 -26.039062 25.625 -24.75 C 26.90625 -23.457031 27.546875 -21.484375 27.546875 -18.828125 L 27.546875 -3.328125 C 27.546875 -1.929688 28.226562 -1.054688 29.59375 -0.703125 L 30.078125 -0.53125 L 30.078125 0 L 17.375 0 L 17.375 -0.53125 L 18.078125 -0.75 C 19.328125 -1.144531 19.953125 -2.023438 19.953125 -3.390625 L 19.953125 -20.546875 C 19.953125 -22.847656 18.804688 -24 16.515625 -24 C 14.941406 -24 13.21875 -23.207031 11.34375 -21.625 L 11.34375 -3.328125 C 11.34375 -1.929688 11.972656 -1.054688 13.234375 -0.703125 L 13.71875 -0.53125 L 13.71875 0 Z M 1.078125 0 "/></g></g></g><g fill="#45462a" fill-opacity="1"><g transform="translate(112.352207, 224.432388)"><g><path d="M 11.296875 0.8125 C 9.003906 0.8125 7.21875 0.238281 5.9375 -0.90625 C 4.664062 -2.0625 4.03125 -3.894531 4.03125 -6.40625 L 4.03125 -24.796875 L 0.328125 -24.796875 L 0.328125 -25.34375 L 1.609375 -25.546875 C 2.722656 -25.804688 3.679688 -26.164062 4.484375 -26.625 C 5.296875 -27.09375 6.097656 -27.722656 6.890625 -28.515625 L 11.296875 -33.40625 L 11.828125 -33.40625 L 11.671875 -25.875 L 17.703125 -25.875 L 17.703125 -24.796875 L 11.625 -24.796875 L 11.625 -5.4375 C 11.625 -4.175781 11.898438 -3.222656 12.453125 -2.578125 C 13.003906 -1.929688 13.710938 -1.609375 14.578125 -1.609375 C 15.328125 -1.609375 15.988281 -1.796875 16.5625 -2.171875 C 17.144531 -2.554688 17.722656 -3.070312 18.296875 -3.71875 L 18.828125 -3.171875 C 18.109375 -1.953125 17.117188 -0.984375 15.859375 -0.265625 C 14.609375 0.453125 13.085938 0.8125 11.296875 0.8125 Z M 11.296875 0.8125 "/></g></g></g><g fill="#45462a" fill-opacity="1"><g transform="translate(131.770037, 224.432388)"><g><path d="M 2.15625 -12.90625 L 2.15625 -14.359375 L 15.703125 -14.359375 L 15.703125 -12.90625 Z M 2.15625 -12.90625 "/></g></g></g><g fill="#45462a" fill-opacity="1"><g transform="translate(149.627992, 224.432388)"><g><path d="M 8.9375 0.8125 C 6.851562 0.8125 5.101562 0.21875 3.6875 -0.96875 C 2.269531 -2.15625 1.5625 -3.859375 1.5625 -6.078125 C 1.5625 -7.765625 2.421875 -9.316406 4.140625 -10.734375 C 5.859375 -12.148438 8.566406 -13.21875 12.265625 -13.9375 C 12.835938 -14.039062 13.484375 -14.15625 14.203125 -14.28125 C 14.921875 -14.40625 15.675781 -14.539062 16.46875 -14.6875 L 16.46875 -18.9375 C 16.46875 -21.375 16.171875 -23.082031 15.578125 -24.0625 C 14.984375 -25.050781 14.054688 -25.546875 12.796875 -25.546875 C 11.941406 -25.546875 11.257812 -25.269531 10.75 -24.71875 C 10.25 -24.164062 9.929688 -23.207031 9.796875 -21.84375 L 9.6875 -21.25 C 9.613281 -19.707031 9.234375 -18.578125 8.546875 -17.859375 C 7.867188 -17.140625 7.03125 -16.78125 6.03125 -16.78125 C 5.09375 -16.78125 4.316406 -17.066406 3.703125 -17.640625 C 3.097656 -18.210938 2.796875 -18.984375 2.796875 -19.953125 C 2.796875 -21.429688 3.304688 -22.671875 4.328125 -23.671875 C 5.347656 -24.671875 6.703125 -25.421875 8.390625 -25.921875 C 10.078125 -26.429688 11.90625 -26.6875 13.875 -26.6875 C 17.070312 -26.6875 19.539062 -25.90625 21.28125 -24.34375 C 23.019531 -22.78125 23.890625 -20.242188 23.890625 -16.734375 L 23.890625 -4.84375 C 23.890625 -3.226562 24.640625 -2.421875 26.140625 -2.421875 L 27.328125 -2.421875 L 27.8125 -1.984375 C 27.132812 -1.128906 26.390625 -0.46875 25.578125 0 C 24.773438 0.46875 23.640625 0.703125 22.171875 0.703125 C 20.585938 0.703125 19.335938 0.335938 18.421875 -0.390625 C 17.503906 -1.128906 16.90625 -2.109375 16.625 -3.328125 C 15.550781 -2.179688 14.445312 -1.203125 13.3125 -0.390625 C 12.1875 0.410156 10.726562 0.8125 8.9375 0.8125 Z M 12.21875 -2.46875 C 12.925781 -2.46875 13.59375 -2.640625 14.21875 -2.984375 C 14.851562 -3.328125 15.601562 -3.859375 16.46875 -4.578125 L 16.46875 -13.609375 C 16.101562 -13.535156 15.738281 -13.460938 15.375 -13.390625 C 15.019531 -13.316406 14.613281 -13.25 14.15625 -13.1875 C 12.5 -12.75 11.175781 -12.019531 10.1875 -11 C 9.207031 -9.976562 8.71875 -8.609375 8.71875 -6.890625 C 8.71875 -5.421875 9.054688 -4.316406 9.734375 -3.578125 C 10.421875 -2.835938 11.25 -2.46875 12.21875 -2.46875 Z M 12.21875 -2.46875 "/></g></g></g><g fill="#45462a" fill-opacity="1"><g transform="translate(177.490703, 224.432388)"><g><path d="M 2.15625 -12.90625 L 2.15625 -14.359375 L 15.703125 -14.359375 L 15.703125 -12.90625 Z M 2.15625 -12.90625 "/></g></g></g><g fill="#45462a" fill-opacity="1"><g transform="translate(195.348658, 224.432388)"><g><path d="M 1.1875 0 L 1.1875 -0.53125 L 2.265625 -0.921875 C 2.972656 -1.128906 3.441406 -1.445312 3.671875 -1.875 C 3.910156 -2.3125 4.03125 -2.890625 4.03125 -3.609375 L 4.03125 -31.796875 C 4.03125 -32.515625 3.90625 -33.085938 3.65625 -33.515625 C 3.40625 -33.941406 2.921875 -34.28125 2.203125 -34.53125 L 1.1875 -34.96875 L 1.1875 -35.5 L 14.25 -35.5 C 19.59375 -35.5 23.457031 -34.519531 25.84375 -32.5625 C 28.226562 -30.613281 29.421875 -28.046875 29.421875 -24.859375 C 29.421875 -22.804688 28.925781 -20.925781 27.9375 -19.21875 C 26.957031 -17.519531 25.335938 -16.171875 23.078125 -15.171875 C 20.816406 -14.171875 17.769531 -13.671875 13.9375 -13.671875 L 12.109375 -13.671875 L 12.109375 -3.765625 C 12.109375 -2.367188 12.804688 -1.453125 14.203125 -1.015625 L 15.8125 -0.53125 L 15.8125 0 Z M 12.109375 -14.734375 L 14.15625 -14.734375 C 15.90625 -14.734375 17.335938 -15.019531 18.453125 -15.59375 C 19.566406 -16.175781 20.390625 -17.179688 20.921875 -18.609375 C 21.460938 -20.046875 21.734375 -22.035156 21.734375 -24.578125 C 21.734375 -27.160156 21.4375 -29.171875 20.84375 -30.609375 C 20.25 -32.046875 19.378906 -33.039062 18.234375 -33.59375 C 17.085938 -34.15625 15.65625 -34.4375 13.9375 -34.4375 L 12.109375 -34.4375 Z M 12.109375 -14.734375 "/></g></g></g><g fill="#45462a" fill-opacity="1"><g transform="translate(225.739449, 224.432388)"><g><path d="M 1.234375 0 L 1.234375 -0.53125 L 1.890625 -0.75 C 3.171875 -1.1875 3.8125 -2.082031 3.8125 -3.4375 L 3.8125 -32.21875 C 3.8125 -32.9375 3.664062 -33.484375 3.375 -33.859375 C 3.09375 -34.242188 2.597656 -34.523438 1.890625 -34.703125 L 1.1875 -34.859375 L 1.1875 -35.390625 L 11.03125 -37.71875 L 11.671875 -37.234375 L 11.453125 -29.703125 L 11.453125 -11.296875 C 11.453125 -9.972656 11.460938 -8.65625 11.484375 -7.34375 C 11.503906 -6.03125 11.515625 -4.726562 11.515625 -3.4375 C 11.515625 -2.71875 11.65625 -2.132812 11.9375 -1.6875 C 12.226562 -1.238281 12.710938 -0.910156 13.390625 -0.703125 L 14.09375 -0.53125 L 14.09375 0 Z M 1.234375 0 "/></g></g></g><g fill="#45462a" fill-opacity="1"><g transform="translate(241.1231, 224.432388)"><g><path d="M 8.9375 0.8125 C 6.851562 0.8125 5.101562 0.21875 3.6875 -0.96875 C 2.269531 -2.15625 1.5625 -3.859375 1.5625 -6.078125 C 1.5625 -7.765625 2.421875 -9.316406 4.140625 -10.734375 C 5.859375 -12.148438 8.566406 -13.21875 12.265625 -13.9375 C 12.835938 -14.039062 13.484375 -14.15625 14.203125 -14.28125 C 14.921875 -14.40625 15.675781 -14.539062 16.46875 -14.6875 L 16.46875 -18.9375 C 16.46875 -21.375 16.171875 -23.082031 15.578125 -24.0625 C 14.984375 -25.050781 14.054688 -25.546875 12.796875 -25.546875 C 11.941406 -25.546875 11.257812 -25.269531 10.75 -24.71875 C 10.25 -24.164062 9.929688 -23.207031 9.796875 -21.84375 L 9.6875 -21.25 C 9.613281 -19.707031 9.234375 -18.578125 8.546875 -17.859375 C 7.867188 -17.140625 7.03125 -16.78125 6.03125 -16.78125 C 5.09375 -16.78125 4.316406 -17.066406 3.703125 -17.640625 C 3.097656 -18.210938 2.796875 -18.984375 2.796875 -19.953125 C 2.796875 -21.429688 3.304688 -22.671875 4.328125 -23.671875 C 5.347656 -24.671875 6.703125 -25.421875 8.390625 -25.921875 C 10.078125 -26.429688 11.90625 -26.6875 13.875 -26.6875 C 17.070312 -26.6875 19.539062 -25.90625 21.28125 -24.34375 C 23.019531 -22.78125 23.890625 -20.242188 23.890625 -16.734375 L 23.890625 -4.84375 C 23.890625 -3.226562 24.640625 -2.421875 26.140625 -2.421875 L 27.328125 -2.421875 L 27.8125 -1.984375 C 27.132812 -1.128906 26.390625 -0.46875 25.578125 0 C 24.773438 0.46875 23.640625 0.703125 22.171875 0.703125 C 20.585938 0.703125 19.335938 0.335938 18.421875 -0.390625 C 17.503906 -1.128906 16.90625 -2.109375 16.625 -3.328125 C 15.550781 -2.179688 14.445312 -1.203125 13.3125 -0.390625 C 12.1875 0.410156 10.726562 0.8125 8.9375 0.8125 Z M 12.21875 -2.46875 C 12.925781 -2.46875 13.59375 -2.640625 14.21875 -2.984375 C 14.851562 -3.328125 15.601562 -3.859375 16.46875 -4.578125 L 16.46875 -13.609375 C 16.101562 -13.535156 15.738281 -13.460938 15.375 -13.390625 C 15.019531 -13.316406 14.613281 -13.25 14.15625 -13.1875 C 12.5 -12.75 11.175781 -12.019531 10.1875 -11 C 9.207031 -9.976562 8.71875 -8.609375 8.71875 -6.890625 C 8.71875 -5.421875 9.054688 -4.316406 9.734375 -3.578125 C 10.421875 -2.835938 11.25 -2.46875 12.21875 -2.46875 Z M 12.21875 -2.46875 "/></g></g></g><g fill="#45462a" fill-opacity="1"><g transform="translate(268.9858, 224.432388)"><g><path d="M 1.078125 0 L 1.078125 -0.53125 L 1.828125 -0.75 C 3.085938 -1.113281 3.71875 -1.992188 3.71875 -3.390625 L 3.71875 -20.234375 C 3.71875 -21.015625 3.585938 -21.59375 3.328125 -21.96875 C 3.078125 -22.351562 2.597656 -22.613281 1.890625 -22.75 L 1.078125 -22.96875 L 1.078125 -23.515625 L 10.28125 -26.625 L 10.8125 -26.09375 L 11.25 -22.859375 C 12.5 -23.972656 13.910156 -24.890625 15.484375 -25.609375 C 17.066406 -26.328125 18.628906 -26.6875 20.171875 -26.6875 C 22.535156 -26.6875 24.351562 -26.039062 25.625 -24.75 C 26.90625 -23.457031 27.546875 -21.484375 27.546875 -18.828125 L 27.546875 -3.328125 C 27.546875 -1.929688 28.226562 -1.054688 29.59375 -0.703125 L 30.078125 -0.53125 L 30.078125 0 L 17.375 0 L 17.375 -0.53125 L 18.078125 -0.75 C 19.328125 -1.144531 19.953125 -2.023438 19.953125 -3.390625 L 19.953125 -20.546875 C 19.953125 -22.847656 18.804688 -24 16.515625 -24 C 14.941406 -24 13.21875 -23.207031 11.34375 -21.625 L 11.34375 -3.328125 C 11.34375 -1.929688 11.972656 -1.054688 13.234375 -0.703125 L 13.71875 -0.53125 L 13.71875 0 Z M 1.078125 0 "/></g></g></g><g fill="#45462a" fill-opacity="1"><g transform="translate(300.075848, 224.432388)"><g><path d="M 11.296875 0.8125 C 9.003906 0.8125 7.21875 0.238281 5.9375 -0.90625 C 4.664062 -2.0625 4.03125 -3.894531 4.03125 -6.40625 L 4.03125 -24.796875 L 0.328125 -24.796875 L 0.328125 -25.34375 L 1.609375 -25.546875 C 2.722656 -25.804688 3.679688 -26.164062 4.484375 -26.625 C 5.296875 -27.09375 6.097656 -27.722656 6.890625 -28.515625 L 11.296875 -33.40625 L 11.828125 -33.40625 L 11.671875 -25.875 L 17.703125 -25.875 L 17.703125 -24.796875 L 11.625 -24.796875 L 11.625 -5.4375 C 11.625 -4.175781 11.898438 -3.222656 12.453125 -2.578125 C 13.003906 -1.929688 13.710938 -1.609375 14.578125 -1.609375 C 15.328125 -1.609375 15.988281 -1.796875 16.5625 -2.171875 C 17.144531 -2.554688 17.722656 -3.070312 18.296875 -3.71875 L 18.828125 -3.171875 C 18.109375 -1.953125 17.117188 -0.984375 15.859375 -0.265625 C 14.609375 0.453125 13.085938 0.8125 11.296875 0.8125 Z M 11.296875 0.8125 "/></g></g></g></svg>