<svg xmlns="http://www.w3.org/2000/svg" xmlns:xlink="http://www.w3.org/1999/xlink" width="500" zoomAndPan="magnify" viewBox="0 0 375 374.999991" height="500" preserveAspectRatio="xMidYMid meet" version="1.0"><defs><clipPath id="a14101e37d"><path d="M 113.425781 190 L 186 190 L 186 262.5 L 113.425781 262.5 Z M 113.425781 190 " clip-rule="nonzero"/></clipPath><clipPath id="453d321c71"><path d="M 116 112.5 L 200 112.5 L 200 197 L 116 197 Z M 116 112.5 " clip-rule="nonzero"/></clipPath><clipPath id="5fb6f0a971"><path d="M 185 188 L 261.925781 188 L 261.925781 237 L 185 237 Z M 185 188 " clip-rule="nonzero"/></clipPath></defs><g clip-path="url(#a14101e37d)"><path fill="#45462a" d="M 181.304688 198.460938 C 180.199219 199.027344 179.054688 199.015625 177.882812 198.8125 C 177.808594 198.800781 177.738281 198.773438 177.664062 198.753906 C 175.871094 198.304688 175.828125 198.292969 174.953125 196.4375 C 173.847656 196.585938 172.75 196.539062 171.660156 196.292969 C 170.039062 195.921875 168.457031 195.382812 167.007812 194.558594 C 166.628906 194.328125 166.285156 194.054688 165.980469 193.734375 C 165.753906 193.566406 165.542969 193.378906 165.347656 193.175781 C 164.972656 192.785156 164.648438 192.351562 164.378906 191.878906 C 164.125 191.574219 163.917969 191.238281 163.761719 190.875 C 162.027344 190.984375 160.328125 191.28125 158.65625 191.761719 C 157.972656 191.957031 157.308594 192.234375 156.921875 192.933594 C 158.808594 195.871094 161.457031 197.894531 164.609375 199.109375 C 167.742188 200.3125 171.050781 200.632812 174.277344 199.347656 C 175.867188 198.714844 177.261719 199.339844 178.925781 199.566406 C 177.261719 200.6875 175.59375 201.363281 173.945312 201.925781 C 170.503906 203.09375 166.972656 203.953125 163.296875 204.074219 C 160.070312 204.175781 156.875 204.035156 153.71875 203.273438 C 153.128906 203.15625 152.699219 202.828125 152.433594 202.285156 C 150.949219 199.539062 148.5625 197.796875 145.832031 196.46875 C 143.859375 195.511719 141.726562 195.128906 139.574219 194.925781 C 138.007812 194.777344 136.472656 194.945312 134.972656 195.429688 C 134.726562 195.507812 134.445312 195.53125 134.3125 195.929688 C 134.859375 197.023438 135.507812 198.132812 136.347656 199.109375 C 138.265625 201.335938 140.605469 203.019531 143.378906 203.964844 C 146.1875 204.929688 149.0625 205.28125 151.90625 203.964844 C 152.402344 203.726562 152.917969 203.679688 153.449219 203.816406 C 155.589844 204.347656 157.769531 204.574219 159.972656 204.640625 C 160.796875 204.667969 161.675781 204.59375 162.570312 204.914062 C 162.121094 205.285156 161.746094 205.441406 161.238281 205.359375 C 160.5625 205.257812 159.878906 205.3125 159.203125 205.429688 C 154.285156 206.289062 150.261719 208.632812 147.25 212.636719 C 146.859375 213.152344 146.425781 213.707031 146.425781 214.476562 C 147.597656 214.757812 148.722656 214.742188 149.859375 214.671875 C 152.101562 214.53125 154.140625 213.746094 156.128906 212.789062 C 158.816406 211.5 160.714844 209.5 161.707031 206.671875 C 161.820312 206.347656 161.925781 206.023438 162.230469 205.816406 C 163.082031 205.238281 163.980469 204.699219 165.007812 204.585938 C 167.503906 204.316406 169.921875 203.695312 172.355469 203.125 C 172.570312 203.078125 172.785156 202.96875 173.058594 203.113281 C 171.316406 204.589844 169.542969 206.007812 168.019531 207.675781 C 165.140625 210.832031 162.238281 213.976562 159.847656 217.539062 C 159.097656 218.660156 158.132812 219.546875 156.957031 220.199219 C 155.757812 220.875 154.484375 221.324219 153.191406 221.757812 C 151.121094 222.441406 149.109375 222.367188 147.082031 221.601562 C 146.445312 221.363281 146.117188 221.011719 146.046875 220.300781 C 145.890625 218.8125 145.3125 217.449219 144.59375 216.148438 C 143.1875 213.613281 141.171875 211.652344 138.746094 210.09375 C 136.742188 208.8125 134.554688 208.40625 132.214844 208.902344 C 131.957031 208.957031 131.707031 209.054688 131.558594 209.300781 C 131.539062 209.375 131.527344 209.449219 131.523438 209.523438 C 131.523438 209.675781 131.542969 209.824219 131.570312 209.976562 C 131.730469 210.714844 131.949219 211.441406 132.226562 212.148438 C 132.5 212.855469 132.828125 213.539062 133.207031 214.195312 C 133.589844 214.851562 134.019531 215.472656 134.5 216.0625 C 134.976562 216.652344 135.5 217.199219 136.0625 217.707031 C 136.625 218.214844 137.226562 218.675781 137.863281 219.089844 C 138.5 219.503906 139.164062 219.867188 139.855469 220.175781 C 140.550781 220.484375 141.261719 220.738281 141.992188 220.9375 C 142.726562 221.136719 143.46875 221.277344 144.222656 221.359375 C 145.628906 221.515625 146.726562 222.304688 148.171875 222.652344 C 147.464844 223.097656 146.828125 223.230469 146.207031 223.320312 C 143.925781 223.65625 141.648438 223.996094 139.324219 223.882812 C 138.558594 223.84375 138.007812 223.644531 137.460938 223.070312 C 135.777344 221.324219 133.976562 219.761719 131.546875 219.007812 C 128.578125 218.082031 125.628906 217.75 122.609375 218.554688 C 121.453125 218.863281 120.269531 219.195312 119.554688 220.269531 C 119.910156 221.085938 120.601562 221.605469 120.996094 222.359375 C 117.71875 223.964844 114.457031 225.464844 113.425781 229.433594 C 115.105469 230.132812 116.777344 230.335938 118.496094 230.238281 C 121.890625 230.046875 124.914062 228.832031 127.617188 226.808594 C 128.019531 226.503906 128.371094 226.394531 128.859375 226.464844 C 131.667969 226.863281 134.367188 226.640625 136.855469 225.082031 C 137.609375 224.589844 138.4375 224.363281 139.335938 224.402344 C 140.546875 224.46875 141.753906 224.351562 142.964844 224.273438 C 143.960938 224.210938 144.9375 223.871094 146.132812 223.992188 C 145.691406 224.269531 145.402344 224.441406 145.125 224.628906 C 144.371094 225.128906 143.609375 225.546875 142.65625 225.652344 C 141.605469 225.765625 140.550781 226.03125 139.617188 226.546875 C 136.035156 228.515625 133.28125 231.214844 132.171875 235.285156 C 132.039062 235.773438 131.558594 236.1875 131.804688 236.8125 C 132.414062 237.058594 133.039062 236.96875 133.683594 236.886719 C 135.882812 236.617188 137.667969 235.4375 139.367188 234.171875 C 141.929688 232.261719 143.90625 229.917969 144.179688 226.539062 C 144.222656 226.039062 144.417969 225.714844 144.84375 225.441406 C 146.089844 224.628906 147.40625 223.960938 148.742188 223.332031 C 149.367188 223.035156 150.023438 222.871094 150.714844 222.84375 C 152.089844 222.785156 153.394531 222.375 154.667969 221.898438 C 155.734375 221.496094 156.757812 220.984375 157.960938 220.457031 C 156.914062 222.410156 155.917969 224.183594 155 225.996094 C 154.648438 226.6875 154.183594 227.09375 153.464844 227.375 C 148.234375 229.421875 144.242188 232.820312 141.988281 238.066406 C 141.5 239.214844 141.140625 240.390625 141.226562 241.730469 C 144.460938 241.628906 147.128906 240.1875 149.914062 238.445312 C 149.339844 240.082031 148.96875 241.503906 148.292969 242.828125 C 148.011719 243.417969 147.601562 243.890625 147.058594 244.246094 C 145.796875 245.105469 144.671875 246.113281 143.6875 247.273438 C 141.5 249.785156 140 252.71875 138.585938 255.707031 C 137.777344 257.414062 137.433594 259.226562 137.214844 261.078125 C 137.160156 261.515625 137.109375 261.96875 137.316406 262.46875 C 141.621094 260.933594 144.523438 257.898438 146.859375 254.097656 C 147.523438 256.421875 148.660156 258.382812 150.335938 260.183594 C 150.847656 259.605469 151.066406 259.03125 151.378906 258.519531 C 153.101562 255.707031 153.90625 252.695312 153.296875 249.398438 C 152.855469 247.023438 152.273438 244.710938 150.171875 243.160156 C 149.429688 242.617188 149.261719 241.949219 149.65625 241.085938 C 149.917969 240.503906 150.035156 239.855469 150.25 239.25 C 150.601562 238.238281 151.136719 237.335938 151.859375 236.542969 C 154.109375 234.058594 155.414062 231.199219 155.089844 227.757812 C 155.058594 227.449219 155.054688 227.191406 155.207031 226.890625 C 156.214844 224.894531 157.222656 222.898438 158.410156 221.003906 C 158.925781 220.1875 159.351562 219.304688 160.125 218.417969 C 160.183594 219.730469 160.363281 220.8125 159.914062 221.925781 C 159.535156 222.867188 159.210938 223.851562 159.117188 224.882812 C 158.726562 229.339844 160.398438 233.054688 163.371094 236.21875 C 164.324219 237.234375 165.460938 237.960938 166.78125 238.402344 C 167.289062 237.746094 167.640625 237.011719 167.835938 236.207031 C 168.207031 234.726562 168.363281 233.226562 168.308594 231.699219 C 168.21875 229.519531 167.640625 227.453125 166.742188 225.460938 C 165.546875 222.808594 163.941406 220.609375 160.921875 219.925781 C 160.605469 218.230469 160.789062 217.316406 161.734375 216.035156 C 162.339844 215.210938 162.925781 214.367188 163.601562 213.601562 C 166.332031 210.515625 168.929688 207.289062 172.144531 204.660156 C 173.285156 203.726562 174.398438 202.726562 175.644531 201.957031 C 176.757812 201.269531 178.027344 200.824219 179.207031 200.21875 C 181.164062 199.21875 183.144531 198.269531 184.972656 197.035156 C 185.144531 196.921875 185.316406 196.742188 185.550781 196.78125 C 185.65625 196.417969 185.804688 196.074219 186 195.75 C 184.457031 196.707031 182.914062 197.632812 181.304688 198.460938 Z M 181.304688 198.460938 " fill-opacity="1" fill-rule="nonzero"/></g><path fill="#45462a" d="M 197.675781 222.546875 C 197.117188 221.867188 196.722656 221.230469 196.199219 220.625 C 195.914062 220.285156 195.605469 219.960938 195.285156 219.652344 C 195.074219 219.433594 194.835938 219.246094 194.574219 219.089844 C 194.472656 219.027344 194.378906 218.953125 194.292969 218.863281 C 193.984375 218.683594 193.671875 218.511719 193.351562 218.34375 C 191.695312 217.46875 189.855469 217.070312 187.972656 217.089844 C 187.484375 217.097656 187.101562 217.050781 186.71875 216.765625 C 186.507812 216.609375 186.261719 216.449219 186.015625 216.40625 C 185.210938 216.273438 184.957031 215.710938 184.738281 215.023438 C 183.710938 211.816406 183.558594 208.554688 184.097656 205.25 C 184.378906 203.53125 184.636719 201.800781 185.078125 200.121094 C 185.214844 199.59375 185.367188 199.074219 185.546875 198.570312 C 185.410156 198.367188 185.347656 198.140625 185.355469 197.894531 C 185.355469 197.839844 185.363281 197.785156 185.367188 197.730469 C 184.863281 198.894531 184.441406 200.078125 184.324219 201.355469 C 184.246094 202.191406 184.074219 203.023438 183.664062 203.75 C 183.234375 204.515625 182.851562 205.421875 181.777344 205.5 C 179.203125 205.679688 176.875 206.453125 174.59375 207.722656 C 171.269531 209.574219 169.140625 212.316406 167.699219 215.722656 C 167.558594 216.058594 167.347656 216.410156 167.578125 216.828125 C 168.914062 217.207031 170.304688 217.195312 171.785156 217.09375 C 170.890625 220.148438 170.203125 223.144531 170.351562 226.285156 C 170.824219 226.242188 171.261719 226.097656 171.667969 225.855469 C 173.164062 225.050781 174.332031 223.875 175.453125 222.628906 C 178.015625 219.789062 179.6875 216.558594 179.855469 212.667969 C 179.886719 212.050781 180.078125 211.488281 180.429688 210.980469 C 181.292969 209.664062 181.894531 208.242188 182.238281 206.710938 C 182.40625 205.96875 182.867188 205.492188 183.570312 205.03125 C 183.492188 206.246094 183.304688 207.328125 183.273438 208.421875 C 183.195312 210.996094 183.746094 213.464844 184.390625 215.925781 C 184.515625 216.402344 184.523438 216.777344 184.273438 217.207031 C 183.542969 218.46875 183.128906 219.851562 182.828125 221.257812 C 182.402344 223.230469 182.515625 225.226562 183.230469 227.078125 C 184.386719 230.0625 186.523438 232.3125 189.117188 234.132812 C 189.390625 234.324219 189.664062 234.550781 190.03125 234.535156 C 190.890625 233.832031 191.011719 233.644531 191.410156 232.925781 C 192.25 231.410156 192.460938 229.789062 192.289062 228.089844 C 192.207031 227.253906 192.1875 226.410156 192.140625 225.53125 C 194.910156 226.226562 197.570312 226.527344 200.25 225.613281 C 200.199219 225.269531 200.097656 224.945312 199.953125 224.632812 C 199.089844 224.050781 198.332031 223.355469 197.675781 222.546875 Z M 197.675781 222.546875 " fill-opacity="1" fill-rule="nonzero"/><path fill="#45462a" d="M 181.878906 185.695312 C 182.53125 186.195312 183.148438 186.734375 183.734375 187.308594 C 184.109375 187.683594 184.472656 188.070312 184.816406 188.476562 C 184.84375 188.152344 184.90625 187.832031 185 187.515625 C 185.042969 187.277344 185.089844 187.039062 185.144531 186.796875 C 183.347656 185.109375 181.480469 183.488281 179.769531 181.703125 C 178.828125 180.722656 177.816406 179.792969 176.640625 179.058594 C 176.210938 178.792969 175.777344 178.472656 175.1875 178.992188 C 175.355469 180.023438 176.070312 180.769531 176.699219 181.539062 C 177.464844 182.476562 178.253906 183.390625 179.058594 184.289062 C 180.121094 184.421875 181.046875 185.039062 181.878906 185.695312 Z M 181.878906 185.695312 " fill-opacity="1" fill-rule="nonzero"/><path fill="#45462a" d="M 186.808594 182.558594 L 186.902344 182.382812 C 185.691406 181.148438 184.546875 179.851562 183.367188 178.582031 C 181.117188 176.160156 178.761719 173.839844 176.339844 171.585938 C 175.878906 171.15625 175.449219 170.660156 174.648438 171.082031 C 174.59375 172.097656 175.164062 172.867188 175.738281 173.628906 C 178.242188 176.964844 181.039062 180.054688 184.011719 182.949219 C 184.617188 183.542969 185.183594 184.1875 185.761719 184.828125 C 186.066406 184.050781 186.417969 183.292969 186.808594 182.558594 Z M 186.808594 182.558594 " fill-opacity="1" fill-rule="nonzero"/><path fill="#45462a" d="M 182.835938 160.824219 C 181.886719 159.414062 180.726562 158.148438 179.625 156.84375 C 179.449219 156.617188 179.234375 156.433594 178.988281 156.289062 C 178.78125 156.757812 178.492188 157.167969 178.125 157.523438 C 178.441406 158.4375 178.769531 159.328125 179.347656 160.140625 C 180.089844 161.171875 180.796875 162.230469 181.503906 163.292969 C 181.949219 162.574219 182.449219 161.894531 183.003906 161.253906 L 183.078125 161.167969 C 182.992188 161.054688 182.914062 160.941406 182.835938 160.824219 Z M 182.835938 160.824219 " fill-opacity="1" fill-rule="nonzero"/><path fill="#45462a" d="M 189.210938 169.394531 C 188.402344 169.765625 187.566406 170.078125 186.726562 170.371094 L 186.503906 170.449219 C 188.027344 172.464844 189.675781 174.378906 191.441406 176.183594 C 191.960938 175.691406 192.496094 175.207031 193.023438 174.71875 C 192.5625 173.871094 192.140625 173.089844 191.582031 172.375 C 190.789062 171.382812 190 170.386719 189.210938 169.394531 Z M 189.210938 169.394531 " fill-opacity="1" fill-rule="nonzero"/><path fill="#45462a" d="M 182.03125 172.011719 C 182.699219 173 183.371094 173.984375 184.070312 174.945312 C 185.371094 176.738281 186.679688 178.527344 188.1875 180.125 C 188.683594 179.320312 189.238281 178.554688 189.847656 177.828125 C 189.90625 177.757812 189.96875 177.691406 190.03125 177.625 C 188.558594 175.300781 186.96875 173.054688 185.265625 170.894531 C 184.191406 171.285156 183.121094 171.675781 182.03125 172.011719 Z M 182.03125 172.011719 " fill-opacity="1" fill-rule="nonzero"/><path fill="#45462a" d="M 180.585938 165.039062 C 180.046875 164.417969 179.476562 163.824219 178.875 163.261719 C 178.296875 162.730469 177.8125 162.058594 176.890625 162.308594 C 176.632812 162.949219 176.804688 163.496094 177.085938 163.996094 C 177.851562 165.347656 178.519531 166.753906 179.363281 168.058594 C 179.648438 167.003906 180.058594 165.996094 180.585938 165.039062 Z M 180.585938 165.039062 " fill-opacity="1" fill-rule="nonzero"/><path fill="#45462a" d="M 184.949219 159.160156 L 185.039062 159.070312 C 185.472656 158.617188 185.949219 158.210938 186.464844 157.847656 C 186.589844 157.722656 186.714844 157.597656 186.84375 157.480469 C 185.804688 155.867188 184.714844 154.289062 183.410156 152.863281 C 182.867188 152.265625 182.324219 151.730469 181.386719 151.742188 C 181.050781 152.605469 181.503906 153.238281 181.855469 153.855469 C 182.859375 155.640625 183.890625 157.410156 184.949219 159.160156 Z M 184.949219 159.160156 " fill-opacity="1" fill-rule="nonzero"/><path fill="#45462a" d="M 192.59375 153.890625 C 193.152344 153.601562 193.6875 153.273438 194.199219 152.90625 C 194.3125 152.820312 194.433594 152.765625 194.570312 152.734375 C 193.246094 150.753906 192.117188 148.648438 190.742188 146.703125 C 189.789062 145.355469 188.683594 144.117188 187.867188 142.667969 C 187.496094 142.007812 186.839844 141.6875 185.964844 141.71875 C 185.769531 143.054688 186.519531 143.980469 187.058594 144.925781 C 188.800781 147.976562 190.566406 151.019531 192.59375 153.890625 Z M 192.59375 153.890625 " fill-opacity="1" fill-rule="nonzero"/><path fill="#45462a" d="M 217.875 139.285156 C 212.925781 139.660156 208.0625 140.417969 203.441406 142.683594 C 203.316406 141.226562 203.871094 140.125 204.402344 138.96875 C 205.789062 138.824219 207.15625 138.597656 208.375 137.992188 C 209.597656 137.382812 210.910156 136.960938 212.160156 136.398438 C 213.507812 135.792969 214.835938 135.128906 216.160156 134.480469 C 216.777344 134.179688 217.351562 133.824219 217.472656 133.058594 C 215.503906 132.3125 210.722656 133.757812 205.089844 136.753906 C 205.210938 135.234375 205.355469 134.726562 206.007812 133.5625 C 208.234375 133.679688 210.019531 132.417969 211.847656 131.441406 C 215.832031 129.308594 216.105469 128.96875 216.382812 127.453125 C 214.476562 127.230469 212.84375 128.070312 211.1875 128.742188 C 209.53125 129.414062 208.058594 130.476562 206.347656 131.484375 C 206.484375 130.617188 206.511719 130.007812 207.179688 129.515625 C 207.847656 129.027344 208.304688 128.25 208.636719 127.457031 C 210.167969 123.789062 210.621094 119.863281 211.34375 116 C 211.410156 115.640625 211.496094 115.1875 210.945312 115.035156 C 210.414062 115.257812 210.234375 115.765625 210 116.203125 C 208.417969 119.132812 207.65625 122.371094 206.605469 125.496094 C 206.429688 125.988281 206.382812 126.492188 206.46875 127.007812 C 206.757812 128.394531 206.042969 129.5 205.695312 130.734375 C 205.234375 130.535156 205.347656 130.199219 205.289062 129.949219 C 204.742188 127.5625 204.421875 125.121094 203.539062 122.820312 C 203.289062 122.164062 203.101562 121.410156 202.296875 121.242188 C 202.050781 121.410156 201.953125 121.640625 201.996094 121.933594 C 202.101562 123.578125 202.128906 125.242188 202.355469 126.875 C 202.636719 128.894531 202.828125 130.980469 204.390625 132.566406 C 204.582031 132.746094 204.714844 132.964844 204.785156 133.222656 C 204.855469 133.476562 204.855469 133.730469 204.78125 133.988281 C 204.5625 134.800781 204.472656 135.667969 204.007812 136.421875 C 203.503906 136.164062 203.417969 135.6875 203.28125 135.28125 C 202.253906 132.25 200.671875 129.457031 199.484375 126.496094 C 199.230469 125.867188 198.949219 125.136719 198.101562 124.9375 C 197.53125 127.988281 200.324219 135.40625 203.351562 138.964844 C 203.136719 140.183594 202.851562 141.417969 202.152344 142.714844 C 201.320312 140.75 199.992188 139.324219 198.898438 137.738281 C 197.378906 135.535156 195.785156 133.390625 194.503906 131.03125 C 194.125 130.328125 193.679688 129.523438 192.695312 129.429688 C 192.382812 130.472656 192.324219 130.496094 192.648438 131.230469 C 193.148438 132.378906 193.683594 133.515625 194.296875 134.609375 C 196.207031 138.058594 198.386719 141.320312 201.199219 144.117188 C 201.496094 144.410156 201.804688 144.734375 201.640625 145.144531 C 201.328125 145.957031 201.332031 146.902344 200.582031 147.8125 C 200.1875 146.777344 199.683594 146.03125 199.160156 145.300781 C 196.5625 141.699219 194.300781 137.875 191.953125 134.109375 C 191.597656 133.539062 191.222656 132.96875 190.484375 132.796875 C 190.234375 133.925781 190.3125 134.5625 191.066406 136.039062 C 192.179688 138.222656 193.242188 140.441406 194.527344 142.523438 C 196.117188 145.105469 197.457031 147.945312 200.410156 149.546875 C 199.976562 150.847656 199.945312 152.289062 199.070312 153.785156 C 198.722656 152.078125 197.835938 150.925781 197.011719 149.71875 C 194.824219 146.527344 192.914062 143.140625 190.355469 140.210938 C 189.554688 139.292969 188.839844 138.242188 187.304688 138.171875 C 187.335938 139.476562 187.957031 140.4375 188.488281 141.394531 C 189.789062 143.738281 191.183594 146.027344 192.832031 148.140625 C 194.671875 150.492188 196.03125 153.304688 198.972656 154.660156 C 198.507812 155.746094 198.527344 156.910156 197.730469 158.3125 C 197.605469 156.84375 196.960938 155.90625 196.28125 155.042969 C 196.285156 156.234375 196.007812 157.425781 195.816406 158.609375 C 196.289062 159.085938 196.832031 159.457031 197.449219 159.730469 C 197.171875 160.835938 197.09375 161.890625 196.433594 163.042969 C 196.125 162.25 195.867188 161.621094 195.539062 161.046875 C 195.433594 161.972656 195.234375 162.878906 194.941406 163.761719 C 195.0625 163.832031 195.183594 163.902344 195.308594 163.96875 C 195.652344 164.148438 196.066406 164.269531 196.191406 164.8125 C 195.734375 166.390625 195.574219 168.132812 194.792969 170.0625 C 194.195312 168.871094 193.613281 168.105469 193.09375 167.300781 C 193.019531 167.191406 192.953125 167.082031 192.886719 166.972656 C 192.332031 167.507812 191.726562 167.980469 191.078125 168.394531 L 190.957031 168.46875 C 191.882812 169.730469 192.957031 170.808594 194.53125 171.335938 C 194.527344 172.078125 194.433594 172.808594 194.25 173.527344 C 194.601562 173.179688 194.953125 172.835938 195.328125 172.507812 C 195.429688 172.148438 195.550781 171.785156 195.6875 171.433594 C 195.914062 171.492188 196.140625 171.535156 196.363281 171.574219 C 196.621094 171.320312 196.839844 171.035156 197.019531 170.71875 C 197.359375 170.097656 198.210938 169.894531 198.8125 170.25 C 199.039062 170.382812 199.210938 170.570312 199.324219 170.8125 C 199.4375 171.050781 199.472656 171.304688 199.429688 171.566406 C 199.964844 171.496094 200.492188 171.402344 201.019531 171.308594 C 203.65625 170.828125 206.28125 170.292969 208.910156 169.773438 C 210.652344 169.429688 212.316406 168.828125 213.976562 168.222656 C 214.636719 167.980469 215.355469 167.75 215.640625 166.960938 C 214.132812 166.25 209.945312 166.449219 205.804688 167.214844 C 202.589844 167.808594 199.394531 168.476562 196.234375 169.523438 C 196.253906 167.972656 196.558594 166.746094 197.242188 165.277344 C 198.226562 165.601562 199.230469 165.730469 200.265625 165.667969 C 203.511719 165.496094 206.738281 165.128906 209.9375 164.558594 C 211.167969 164.335938 212.378906 163.988281 213.496094 163.390625 C 213.9375 163.152344 214.371094 162.917969 214.511719 162.195312 C 211.566406 161.695312 208.746094 162.171875 205.921875 162.230469 C 203.003906 162.292969 200.15625 162.523438 197.300781 164.199219 C 197.589844 162.976562 197.597656 162.070312 198.328125 161.335938 C 199.957031 161.652344 201.476562 161.203125 203.039062 160.835938 C 206.710938 159.972656 210.175781 158.476562 213.746094 157.308594 C 214.65625 157.011719 215.480469 156.445312 216.320312 155.96875 C 216.628906 155.800781 216.839844 155.519531 216.667969 154.921875 C 213.578125 154.761719 210.582031 155.785156 207.523438 156.179688 C 204.394531 156.585938 201.484375 157.871094 198.660156 159.449219 C 198.566406 158.234375 199.175781 157.390625 199.328125 156.433594 C 199.414062 155.890625 199.820312 155.675781 200.320312 155.6875 C 201.898438 155.726562 203.332031 155.175781 204.796875 154.703125 C 208.167969 153.617188 211.480469 152.402344 214.464844 150.449219 C 214.914062 150.15625 215.550781 150.007812 215.527344 149.152344 C 213.699219 148.863281 212.078125 149.6875 210.402344 150.046875 C 208.625 150.429688 206.894531 151.046875 205.140625 151.542969 C 203.449219 152.019531 201.933594 152.882812 200.246094 153.910156 C 200.699219 152.5625 200.640625 151.320312 201.390625 150.261719 C 202.132812 150.292969 202.867188 150.230469 203.59375 150.070312 C 208.121094 149 212.257812 146.910156 216.496094 145.085938 C 217.179688 144.796875 217.964844 144.46875 218.140625 143.308594 C 212.09375 143.566406 206.921875 146.191406 201.535156 148.667969 C 201.96875 147.101562 202.1875 145.753906 202.894531 144.4375 C 204.582031 144.746094 206.160156 144.285156 207.75 143.8125 C 208.894531 143.472656 210.074219 143.269531 211.261719 143.078125 C 213.710938 142.691406 216.007812 141.875 218.15625 140.636719 C 218.570312 140.398438 219.097656 140.207031 219.140625 139.605469 C 218.792969 139.117188 218.292969 139.253906 217.875 139.285156 Z M 217.875 139.285156 " fill-opacity="1" fill-rule="nonzero"/><path fill="#45462a" d="M 188.671875 156.175781 C 189.054688 155.859375 189.46875 155.59375 189.914062 155.378906 C 190.042969 155.3125 190.179688 155.265625 190.324219 155.238281 C 190.488281 155.125 190.652344 155.015625 190.816406 154.90625 C 190.125 154.074219 189.433594 153.238281 188.769531 152.378906 C 187.65625 150.941406 186.386719 149.621094 185.136719 148.296875 C 184.527344 147.648438 183.832031 147.015625 182.683594 147.402344 C 182.558594 148.488281 183.292969 149.210938 183.734375 150.019531 C 185.011719 152.347656 186.585938 154.472656 188.1875 156.578125 C 188.324219 156.414062 188.484375 156.277344 188.671875 156.175781 Z M 188.671875 156.175781 " fill-opacity="1" fill-rule="nonzero"/><path fill="#45462a" d="M 200.023438 177.554688 C 202.164062 176.957031 204.285156 176.277344 206.371094 175.515625 C 208.027344 174.910156 209.742188 174.433594 211.292969 173.554688 C 211.773438 173.28125 212.359375 173.089844 212.136719 172.152344 C 209.113281 172.304688 206.15625 172.878906 203.175781 173.230469 C 201.753906 173.398438 200.449219 173.863281 199.164062 174.460938 C 199.136719 174.710938 199.105469 174.964844 199.058594 175.222656 C 198.886719 176.226562 198.648438 177.222656 198.089844 178.0625 C 198.734375 177.914062 199.378906 177.734375 200.023438 177.554688 Z M 200.023438 177.554688 " fill-opacity="1" fill-rule="nonzero"/><path fill="#45462a" d="M 206.542969 183.320312 C 201.914062 184.144531 197.316406 185.082031 192.894531 186.921875 C 192.820312 187.007812 192.742188 187.089844 192.664062 187.171875 C 192.160156 187.925781 191.558594 188.589844 190.855469 189.167969 C 190.683594 190.167969 190.589844 191.117188 190.113281 192.050781 L 189.097656 190.902344 C 188.851562 191.15625 188.609375 191.417969 188.375 191.675781 C 188.25 192 188.089844 192.308594 187.886719 192.589844 C 188.273438 192.800781 188.671875 192.980469 189.082031 193.132812 C 189.15625 193.160156 189.230469 193.1875 189.304688 193.222656 C 192.503906 192.222656 195.734375 191.304688 199.011719 190.597656 C 201.042969 190.148438 203.089844 189.804688 205.15625 189.566406 C 203.679688 189.539062 201.785156 189.722656 199.5625 190.136719 C 196.746094 190.664062 193.855469 190.933594 191.152344 192.566406 C 191.292969 191.097656 191.496094 189.992188 192.058594 188.816406 C 193.285156 188.929688 194.527344 188.988281 195.742188 188.613281 C 197.046875 188.199219 198.382812 187.90625 199.707031 187.554688 C 202.203125 186.894531 204.515625 185.785156 206.796875 184.601562 C 207.207031 184.386719 207.605469 184.152344 207.492188 183.582031 C 207.230469 183.261719 206.878906 183.257812 206.542969 183.320312 Z M 206.542969 183.320312 " fill-opacity="1" fill-rule="nonzero"/><path fill="#45462a" d="M 202.585938 178.5 C 200.863281 179.039062 199.117188 179.53125 197.417969 180.210938 C 197.195312 180.652344 196.929688 181.074219 196.671875 181.492188 C 196.328125 182.054688 195.953125 182.59375 195.582031 183.132812 C 195.566406 183.179688 195.546875 183.222656 195.527344 183.265625 C 195.4375 183.457031 195.332031 183.640625 195.210938 183.816406 C 195.273438 183.796875 195.332031 183.777344 195.390625 183.753906 C 198.628906 182.464844 202.046875 181.734375 205.328125 180.582031 C 207.320312 179.878906 209.300781 179.140625 211.1875 178.191406 C 211.722656 177.921875 212.398438 177.730469 212.390625 176.921875 C 210.984375 176.519531 207.152344 177.074219 202.585938 178.5 Z M 202.585938 178.5 " fill-opacity="1" fill-rule="nonzero"/><g clip-path="url(#453d321c71)"><path fill="#45462a" d="M 199.488281 171.441406 C 199.351562 170.699219 199.304688 169.785156 198.542969 169.519531 C 197.691406 169.226562 197.085938 169.964844 196.570312 170.566406 C 195.015625 172.386719 193.273438 174.007812 191.542969 175.644531 C 189.011719 178.046875 186.996094 180.792969 185.757812 184.09375 C 185.328125 185.242188 184.980469 186.410156 184.855469 187.660156 C 184.21875 187.417969 184.050781 186.855469 183.621094 186.65625 C 182.339844 186.066406 182.050781 184.882812 181.71875 183.699219 C 181.574219 183.1875 181.414062 182.683594 181.246094 182.183594 C 180.570312 180.175781 179.851562 178.183594 179.277344 176.140625 C 179.113281 175.5625 179.207031 175.164062 179.5 174.667969 C 180.476562 173.015625 182.160156 172.375 183.765625 171.683594 C 185.785156 170.816406 187.984375 170.402344 189.929688 169.304688 C 191.042969 168.671875 192.171875 168.007812 193.035156 167.078125 C 194.644531 165.347656 195.421875 163.167969 195.8125 160.875 C 196.117188 159.09375 196.265625 157.28125 196.476562 155.484375 C 196.554688 154.867188 196.582031 154.25 196.433594 153.632812 C 196.121094 152.320312 195.402344 151.921875 194.199219 152.515625 C 190.261719 154.449219 186.480469 156.5625 183.488281 159.925781 C 180.933594 162.800781 179.296875 166.015625 178.613281 169.761719 C 178.507812 170.300781 178.523438 170.875 178.152344 171.589844 C 177.226562 167.738281 176.742188 164.03125 176.144531 160.226562 C 177.039062 159.667969 177.699219 158.859375 178.367188 158.03125 C 181.234375 154.46875 182 150.375 181.523438 145.953125 C 181.425781 145.152344 181.164062 144.40625 180.738281 143.722656 C 180.453125 143.242188 180.039062 142.9375 179.546875 142.710938 C 179.054688 142.484375 178.640625 142.519531 178.253906 142.96875 C 177.808594 143.464844 177.34375 143.933594 176.851562 144.378906 C 176.027344 145.160156 175.257812 146.023438 174.15625 146.4375 C 174.078125 146.332031 173.980469 146.261719 173.984375 146.195312 C 174.03125 144.652344 174.089844 143.105469 174.152344 141.5625 C 174.175781 141.0625 174.492188 140.769531 174.914062 140.566406 C 175.710938 140.175781 176.519531 139.816406 177.296875 139.398438 C 180.242188 137.808594 183.324219 136.4375 185.621094 133.847656 C 189.472656 129.503906 191.273438 124.546875 190.410156 118.726562 C 190.339844 118.148438 190.152344 117.609375 189.84375 117.117188 C 189.441406 116.5 188.765625 116.292969 188.136719 116.613281 C 187.941406 116.71875 187.796875 116.894531 187.613281 117.015625 C 186.128906 118.003906 185.089844 119.476562 183.664062 120.542969 C 181.617188 122.066406 179.417969 123.410156 177.6875 125.335938 C 177.648438 125.378906 177.53125 125.355469 177.332031 125.371094 C 176.5 123.210938 175.109375 121.324219 173.722656 119.453125 C 171.785156 116.847656 169.492188 114.601562 166.679688 112.925781 C 166.292969 112.695312 165.898438 112.523438 165.386719 112.738281 C 165.058594 113.652344 164.9375 114.59375 165.019531 115.5625 C 165.144531 117.019531 165.148438 118.476562 165.027344 119.933594 C 164.925781 121.339844 164.757812 122.765625 164.863281 124.167969 C 165.238281 129 167.066406 133.222656 170.453125 136.722656 C 171.160156 137.453125 171.945312 138.105469 172.644531 138.839844 C 173.15625 139.378906 173.695312 139.953125 173.621094 140.785156 C 173.441406 142.722656 173.285156 144.65625 173.3125 146.605469 C 173.3125 146.96875 173.273438 147.347656 172.886719 147.503906 C 171.707031 147.988281 170.902344 148.972656 169.929688 149.722656 C 166.683594 152.253906 165.09375 155.605469 165.121094 159.71875 C 165.121094 161.046875 165.234375 162.363281 165.457031 163.675781 C 165.515625 163.992188 165.640625 164.324219 165.472656 164.734375 C 164.5 164.238281 163.5625 163.917969 162.902344 163.058594 C 162.503906 162.546875 161.894531 162.207031 161.386719 161.78125 C 160.648438 161.164062 159.914062 160.539062 159.277344 160.003906 C 159.171875 159.457031 159.398438 159.167969 159.546875 158.847656 C 160.046875 157.769531 160.609375 156.707031 160.910156 155.554688 C 161.597656 152.914062 161.164062 150.386719 160.0625 147.9375 C 158.863281 145.269531 157.207031 142.855469 155.859375 140.269531 C 155.121094 138.859375 154.371094 137.457031 153.609375 136.058594 C 153.359375 135.597656 153.105469 135.125 152.675781 134.785156 C 151.9375 134.191406 151.527344 134.25 150.871094 134.9375 C 150.347656 135.488281 150.261719 136.203125 150.066406 136.867188 C 149.535156 138.640625 149.289062 140.492188 148.65625 142.238281 C 147.628906 145.074219 146.964844 147.980469 146.878906 151.195312 C 145.757812 150.523438 144.777344 149.9375 143.792969 149.355469 C 143.367188 149.105469 143.277344 148.652344 143.152344 148.234375 C 142.882812 147.347656 142.734375 146.410156 142.355469 145.574219 C 140.304688 141.066406 136.75 138.21875 132.0625 136.886719 C 128.171875 135.78125 124.128906 135.699219 120.105469 135.753906 C 119.226562 135.765625 118.347656 135.960938 117.570312 136.433594 C 116.652344 136.988281 116.53125 137.816406 117.292969 138.59375 C 117.816406 139.128906 118.378906 139.628906 118.921875 140.144531 C 119.949219 141.121094 121.113281 141.972656 121.84375 143.207031 C 122.65625 144.585938 123.632812 145.835938 124.65625 147.050781 C 126.335938 149.042969 128.226562 150.707031 130.910156 151.234375 C 133.144531 151.671875 135.304688 151.390625 137.441406 150.742188 C 138.875 150.304688 140.300781 149.839844 141.722656 149.359375 C 142.140625 149.21875 142.445312 149.304688 142.828125 149.5 C 144.140625 150.160156 145.289062 151.066406 146.535156 151.816406 C 146.929688 152.054688 147.226562 152.347656 147.253906 152.847656 C 147.34375 154.449219 148.101562 155.792969 148.859375 157.152344 C 150.226562 159.605469 152.308594 160.695312 155.082031 160.597656 C 156.011719 160.566406 156.933594 160.472656 157.847656 160.324219 C 158.15625 160.273438 158.464844 160.179688 158.734375 160.398438 C 159.929688 161.351562 161.113281 162.3125 162.332031 163.292969 C 161.929688 163.640625 161.617188 163.5 161.335938 163.488281 C 158.886719 163.394531 156.488281 163.675781 154.128906 164.332031 C 151.554688 165.042969 149.078125 165.988281 147.195312 168.011719 C 145.929688 169.371094 144.636719 170.703125 143.449219 172.128906 C 142.132812 173.707031 140.691406 175.089844 138.917969 176.144531 C 137.445312 177.019531 137.523438 178.40625 139.011719 179.222656 C 140.675781 180.140625 142.449219 180.59375 144.363281 180.464844 C 145.914062 180.363281 147.441406 180.136719 148.921875 179.660156 C 151.113281 178.957031 153.246094 178.070312 155.199219 176.867188 C 157.445312 175.480469 159.824219 174.25 161.601562 172.207031 C 162.296875 171.40625 162.980469 170.605469 163.554688 169.707031 C 164.367188 168.449219 165.242188 167.238281 166.644531 166.574219 C 166.785156 166.628906 166.917969 166.691406 167.046875 166.769531 C 167.910156 167.402344 168.527344 168.285156 169.3125 168.996094 C 173.3125 172.640625 176.824219 176.707031 179.949219 181.125 C 180.75 182.257812 181.050781 183.570312 181.476562 184.878906 C 181.28125 184.882812 181.1875 184.910156 181.109375 184.886719 C 180.941406 184.839844 180.777344 184.773438 180.617188 184.691406 C 179.191406 183.929688 177.679688 183.628906 176.058594 183.496094 C 172.585938 183.210938 169.089844 182.941406 165.75 181.808594 C 164.871094 181.511719 164.035156 181.089844 163.144531 180.835938 C 161.738281 180.4375 161.261719 180.773438 161.121094 182.21875 C 160.976562 183.730469 161.207031 185.226562 161.609375 186.667969 C 162.644531 190.390625 164.386719 193.640625 167.988281 195.527344 C 169.902344 196.53125 171.902344 197.175781 174.101562 196.804688 C 176.453125 196.40625 178.808594 196.039062 181.148438 195.597656 C 182.695312 195.300781 184.085938 195.515625 185.371094 196.335938 C 185.441406 196.136719 185.527344 195.945312 185.625 195.761719 C 185.316406 195.632812 185.042969 195.425781 184.769531 195.269531 C 183.738281 194.691406 182.667969 194.652344 181.558594 194.839844 C 179.121094 195.261719 176.691406 195.710938 174.25 196.121094 C 173.058594 196.320312 171.882812 196.253906 170.726562 195.914062 C 166.660156 194.773438 164.265625 191.976562 162.75 188.210938 C 162.113281 186.628906 161.886719 184.976562 161.710938 183.308594 C 161.644531 182.71875 161.726562 182.15625 161.964844 181.613281 C 162.609375 181.234375 163.214844 181.550781 163.734375 181.796875 C 167.160156 183.4375 170.867188 183.734375 174.554688 184.128906 C 175.039062 184.179688 175.523438 184.230469 176.007812 184.261719 C 179.699219 184.441406 182.523438 186.269531 184.847656 188.984375 C 186.089844 190.441406 186.636719 192.195312 186.738281 194.402344 C 185.414062 191.65625 183.328125 190.492188 180.679688 190.070312 C 178.527344 189.734375 176.363281 189.800781 174.207031 189.691406 C 171.148438 189.539062 168.820312 188.207031 167.226562 185.59375 C 167.070312 185.339844 166.953125 185.019531 166.511719 185.023438 C 166.273438 185.292969 166.363281 185.476562 166.488281 185.675781 C 167.367188 187.089844 168.589844 188.183594 169.90625 189.15625 C 170.65625 189.710938 171.640625 189.804688 172.535156 189.988281 C 173.5625 190.195312 174.628906 190.214844 175.691406 190.242188 C 177.933594 190.300781 180.195312 190.40625 182.351562 191.136719 C 184.363281 191.820312 185.734375 193.316406 186.09375 195.074219 C 186.28125 194.847656 186.492188 194.640625 186.726562 194.457031 C 186.949219 194.28125 187.183594 194.128906 187.429688 193.992188 C 187.445312 193.664062 187.539062 193.363281 187.710938 193.082031 C 188.480469 191.867188 189.523438 190.894531 190.585938 189.988281 C 193.914062 187.140625 196.28125 183.597656 198.078125 179.675781 C 199.265625 177.085938 200.027344 174.359375 199.488281 171.441406 Z M 136.148438 148.445312 C 134.84375 148.339844 133.675781 147.773438 132.554688 147.148438 C 130.289062 145.882812 128.332031 144.257812 126.753906 142.191406 C 125.589844 140.671875 124.367188 139.21875 122.46875 138.570312 C 122.1875 138.476562 121.921875 138.253906 121.53125 138.476562 C 121.636719 138.859375 122 138.953125 122.292969 139.066406 C 123.707031 139.605469 124.742188 140.621094 125.640625 141.785156 C 126.964844 143.507812 128.390625 145.113281 130.175781 146.390625 C 132.609375 148.132812 135.191406 149.359375 138.273438 149.171875 C 138.621094 149.148438 138.949219 149.222656 139.261719 149.382812 C 138.777344 149.578125 138.304688 149.800781 137.8125 149.964844 C 135.34375 150.800781 132.855469 151.140625 130.269531 150.371094 C 128.628906 149.878906 127.375 148.914062 126.230469 147.71875 C 124.914062 146.339844 123.746094 144.84375 122.730469 143.230469 C 121.640625 141.511719 120.03125 140.332031 118.613281 138.957031 C 118.183594 138.546875 117.445312 138.238281 117.597656 137.542969 C 117.742188 136.863281 118.523438 136.789062 119.089844 136.601562 C 120.25 136.214844 121.464844 136.414062 122.644531 136.445312 C 125.164062 136.519531 127.667969 136.753906 130.15625 137.15625 C 134.371094 137.8125 137.75 139.917969 140.394531 143.226562 C 141.339844 144.410156 142.085938 146.496094 142.285156 148.25 C 140.246094 148.5625 138.199219 148.628906 136.148438 148.445312 Z M 158.558594 159.21875 C 155.253906 157.183594 153.222656 154.421875 152.984375 150.472656 C 152.882812 148.742188 153.070312 147.03125 153.136719 145.316406 C 153.191406 143.945312 153.09375 142.582031 153.0625 141.214844 C 153.042969 140.359375 152.597656 139.652344 152.277344 138.808594 C 152.089844 139.214844 152.160156 139.519531 152.210938 139.820312 C 152.621094 142.277344 152.546875 144.738281 152.390625 147.214844 C 152.289062 148.835938 152.269531 150.457031 152.5625 152.089844 C 153.023438 154.664062 154.273438 156.6875 156.324219 158.257812 C 156.839844 158.648438 157.332031 159.0625 157.972656 159.578125 C 155.75 160.0625 153.722656 160.21875 151.753906 159.324219 C 150.671875 158.832031 149.988281 157.839844 149.402344 156.871094 C 147.707031 154.066406 147.375 151.019531 147.898438 147.804688 C 148.398438 144.699219 149.636719 141.796875 150.289062 138.734375 C 150.457031 137.957031 150.660156 137.1875 150.867188 136.421875 C 151.019531 135.867188 151.199219 135.3125 151.835938 135.070312 C 152.597656 135.199219 152.84375 135.847656 153.144531 136.425781 C 154.332031 138.6875 155.464844 140.992188 156.714844 143.226562 C 157.488281 144.609375 158.359375 145.945312 159.019531 147.394531 C 159.4375 148.320312 159.804688 149.265625 160.152344 150.21875 C 161.007812 152.566406 160.574219 154.835938 159.636719 157.046875 C 159.332031 157.769531 158.9375 158.460938 158.558594 159.21875 Z M 164.9375 166.929688 C 164.382812 167.441406 163.910156 168.019531 163.515625 168.664062 C 162.152344 170.882812 160.445312 172.742188 158.21875 174.113281 C 157.050781 174.832031 155.917969 175.597656 154.738281 176.289062 C 151.777344 178.03125 148.613281 179.203125 145.183594 179.632812 C 143.125 179.890625 141.222656 179.480469 139.410156 178.578125 C 138.246094 178 138.183594 177.265625 139.300781 176.667969 C 141.226562 175.636719 142.609375 174.078125 143.980469 172.441406 C 145.28125 170.890625 146.675781 169.402344 148.128906 167.988281 C 150.160156 166.003906 152.777344 165.136719 155.484375 164.589844 C 157.816406 164.125 160.171875 163.695312 162.574219 164.265625 C 163.363281 164.449219 164.089844 164.714844 164.804688 165.253906 C 164.484375 165.585938 164.207031 165.488281 163.960938 165.460938 C 162.085938 165.253906 160.261719 165.546875 158.460938 166.042969 C 156.863281 166.492188 155.4375 167.261719 154.183594 168.355469 C 152.980469 169.390625 151.863281 170.523438 150.703125 171.613281 C 149.242188 172.984375 147.699219 174.222656 145.746094 174.832031 C 145.332031 174.957031 144.90625 175.109375 144.429688 175.65625 C 146.425781 175.105469 148.175781 174.574219 149.617188 173.347656 C 150.367188 172.730469 151.078125 172.074219 151.753906 171.378906 C 152.730469 170.355469 153.773438 169.402344 154.878906 168.527344 C 156.863281 166.933594 159.144531 166.042969 161.699219 165.953125 C 162.921875 165.910156 164.148438 165.917969 165.34375 166.097656 C 165.460938 166.570312 165.148438 166.734375 164.9375 166.929688 Z M 179.953125 167.070312 C 181.578125 162.277344 184.902344 158.898438 189.027344 156.21875 C 190.503906 155.25 192.03125 154.367188 193.613281 153.570312 C 194.125 153.308594 194.664062 153.152344 195.175781 152.953125 C 195.933594 153.386719 196 154.125 195.917969 154.726562 C 195.527344 157.738281 195.40625 160.800781 194.390625 163.710938 C 193.5 166.273438 191.554688 167.796875 189.265625 168.972656 C 187.296875 169.984375 185.136719 170.507812 183.058594 171.238281 C 183.007812 171.257812 182.921875 171.183594 182.851562 171.152344 C 182.785156 170.863281 183.042969 170.792969 183.191406 170.652344 C 183.960938 169.914062 184.640625 169.121094 185.050781 168.117188 C 186.273438 165.140625 188.199219 162.613281 190.238281 160.167969 C 190.753906 159.554688 191.433594 159.128906 192.09375 158.679688 C 192.484375 158.410156 192.945312 158.203125 193.160156 157.519531 C 191.777344 158.328125 190.492188 158.984375 189.53125 160.144531 C 187.75 162.296875 186.113281 164.542969 184.984375 167.109375 C 184.410156 168.429688 183.648438 169.582031 182.539062 170.515625 C 181.433594 171.449219 180.347656 172.414062 178.992188 173.597656 C 178.9375 171.152344 179.265625 169.089844 179.953125 167.070312 Z M 172.816406 138.113281 C 167.628906 133.472656 165.0625 128.019531 165.625 121.207031 C 165.785156 119.277344 165.921875 117.335938 165.695312 115.390625 C 165.625 114.792969 165.585938 114.15625 165.929688 113.515625 C 167.136719 113.667969 168.007812 114.449219 168.847656 115.160156 C 171.820312 117.671875 174.191406 120.664062 175.960938 124.125 C 176.0625 124.324219 176.121094 124.539062 176.226562 124.734375 C 176.71875 125.660156 176.617188 126.378906 175.980469 127.347656 C 175 128.835938 173.90625 130.3125 173.378906 132.15625 C 172.753906 131.921875 172.585938 131.492188 172.375 131.117188 C 171.421875 129.453125 170.78125 127.675781 170.445312 125.789062 C 170.1875 124.3125 169.976562 122.828125 169.765625 121.339844 C 169.59375 120.246094 169.292969 119.183594 168.863281 118.160156 C 168.6875 117.71875 168.453125 117.324219 167.773438 117.199219 C 167.945312 117.886719 168.351562 118.300781 168.566406 118.804688 C 169.210938 120.296875 169.308594 121.890625 169.511719 123.457031 C 169.886719 126.320312 170.402344 129.148438 171.949219 131.640625 C 172.621094 132.714844 173.046875 133.707031 172.765625 135.03125 C 172.574219 135.9375 172.78125 136.929688 172.816406 138.113281 Z M 173.496094 137.527344 C 173.0625 135.214844 173.597656 133.046875 174.5625 130.96875 C 175.964844 127.933594 178.175781 125.566406 180.808594 123.554688 C 183.042969 121.839844 185.417969 120.296875 187.304688 118.160156 C 187.703125 117.710938 188.175781 117.144531 188.859375 117.320312 C 189.695312 117.535156 189.753906 118.378906 189.84375 119.050781 C 190.289062 122.410156 189.78125 125.636719 188.363281 128.722656 C 187.335938 130.964844 185.789062 132.824219 184.078125 134.566406 C 183.574219 135.078125 182.945312 135.410156 182.359375 135.800781 C 180.007812 137.367188 177.53125 138.703125 174.707031 139.683594 C 174.691406 137.652344 175.269531 135.902344 176.242188 134.261719 C 177.15625 132.71875 178.464844 131.539062 179.835938 130.410156 C 181.429688 129.089844 183.140625 127.910156 184.664062 126.5 C 185.175781 126.011719 185.644531 125.488281 186.074219 124.925781 C 186.398438 124.515625 186.71875 124.082031 186.671875 123.507812 L 186.648438 123.496094 C 185.5 124.835938 184.425781 126.25 182.972656 127.273438 C 181.5625 128.265625 180.273438 129.402344 178.941406 130.488281 C 176.425781 132.539062 174.695312 135.066406 174.261719 138.359375 C 174.242188 138.480469 174.15625 138.589844 174.054688 138.808594 C 173.636719 138.433594 173.578125 137.976562 173.496094 137.527344 Z M 167.800781 161.351562 C 168.875 158.4375 170.898438 156.257812 173.269531 154.355469 C 174.589844 153.292969 175.664062 152.035156 176.605469 150.382812 C 176.289062 150.535156 176.1875 150.550781 176.140625 150.613281 C 174.9375 152.214844 173.410156 153.480469 171.90625 154.777344 C 169.914062 156.5 168.339844 158.542969 167.332031 161.011719 C 167.042969 161.71875 166.933594 162.453125 166.746094 163.175781 C 166.644531 163.59375 166.644531 164.046875 166.355469 164.472656 C 165.824219 163.496094 165.945312 162.453125 165.835938 161.464844 C 165.332031 156.976562 166.703125 153.238281 170.242188 150.300781 C 172.046875 148.800781 174.074219 147.632812 175.894531 146.160156 C 176.757812 145.460938 177.496094 144.644531 178.285156 143.878906 C 178.503906 143.664062 178.671875 143.394531 179.039062 143.300781 C 180.050781 143.492188 180.589844 144.1875 180.796875 145.167969 C 181.484375 148.460938 181.246094 151.652344 179.746094 154.707031 C 178.410156 157.445312 176.4375 159.554688 173.765625 161.058594 C 171.582031 162.285156 169.339844 163.425781 167.136719 164.90625 C 167.058594 163.570312 167.394531 162.453125 167.800781 161.351562 Z M 177.519531 176.738281 C 175.464844 174.136719 173.21875 171.714844 170.777344 169.472656 C 169.738281 168.519531 168.769531 167.488281 167.777344 166.484375 C 167.597656 166.300781 167.398438 166.101562 167.425781 165.800781 C 168.394531 164.753906 174.015625 161.375 175.53125 160.992188 C 176.476562 167.042969 177.539062 172.976562 179.183594 178.855469 C 178.628906 178.148438 178.074219 177.441406 177.519531 176.738281 Z M 198.992188 174.007812 C 198.703125 177.097656 197.492188 179.875 195.886719 182.511719 C 194.035156 185.558594 191.777344 188.238281 189.011719 190.492188 C 188.402344 190.988281 187.886719 191.601562 187.277344 192.214844 C 186.65625 191.390625 186.660156 190.5625 186.890625 189.820312 C 187.46875 187.964844 188.160156 186.152344 189.585938 184.730469 C 190.304688 184.011719 190.980469 183.261719 191.707031 182.554688 C 192.710938 181.582031 193.246094 180.328125 193.773438 179.042969 C 193.554688 179.34375 193.320312 179.632812 193.113281 179.9375 C 192.144531 181.371094 190.96875 182.632812 189.726562 183.820312 C 188.320312 185.164062 187.304688 186.710938 186.769531 188.582031 C 186.691406 188.835938 186.589844 189.082031 186.476562 189.320312 C 186.410156 189.417969 186.335938 189.511719 186.253906 189.597656 C 185.625 189.101562 185.347656 188.507812 185.4375 187.691406 C 185.5625 186.632812 185.8125 185.605469 186.183594 184.605469 C 187.410156 181.207031 189.476562 178.371094 192.152344 175.984375 C 193.746094 174.585938 195.242188 173.089844 196.636719 171.492188 C 197.089844 170.964844 197.511719 170.386719 198.371094 170.222656 C 199.273438 171.382812 199.113281 172.734375 198.992188 174.007812 Z M 198.992188 174.007812 " fill-opacity="1" fill-rule="nonzero"/></g><path fill="#45462a" d="M 187.222656 122.472656 C 187.15625 122.882812 187.085938 123.285156 186.671875 123.507812 L 186.648438 123.5 C 186.605469 123.027344 186.96875 122.78125 187.222656 122.472656 Z M 187.222656 122.472656 " fill-opacity="1" fill-rule="nonzero"/><path fill="#45462a" d="M 183.375 132.945312 C 184.660156 131.617188 185.539062 130.011719 186.546875 128.484375 C 186.042969 131.496094 181.871094 135.722656 178.816406 136.308594 C 180.363281 134.945312 182.105469 134.257812 183.375 132.945312 Z M 183.375 132.945312 " fill-opacity="1" fill-rule="nonzero"/><path fill="#45462a" d="M 189.730469 157.367188 C 190.820312 156.109375 192.269531 155.238281 193.472656 155.207031 C 192.230469 155.828125 191.113281 156.683594 189.730469 157.367188 Z M 189.730469 157.367188 " fill-opacity="1" fill-rule="nonzero"/><path fill="#45462a" d="M 172.75 121.769531 C 173.691406 123.148438 174.949219 124.347656 175.335938 126.371094 C 174.203125 125.757812 174.226562 124.640625 173.613281 123.976562 C 172.996094 123.3125 172.597656 122.496094 172.113281 121.761719 C 172.410156 121.492188 172.628906 121.59375 172.75 121.769531 Z M 172.75 121.769531 " fill-opacity="1" fill-rule="nonzero"/><path fill="#45462a" d="M 191.769531 165.222656 C 192.492188 164.179688 192.835938 162.992188 193.183594 161.792969 C 193.65625 164.195312 191.589844 167.113281 188.875 167.925781 C 189.671875 166.753906 191.019531 166.316406 191.769531 165.222656 Z M 191.769531 165.222656 " fill-opacity="1" fill-rule="nonzero"/><path fill="#45462a" d="M 195.921875 178.476562 C 196.421875 176.65625 197.054688 174.875 197.484375 173.039062 C 197.507812 177.511719 194.804688 184.75 190.070312 187.960938 C 190.894531 186.253906 192.667969 185.300781 193.566406 183.644531 C 194.460938 181.988281 195.410156 180.339844 195.921875 178.476562 Z M 195.921875 178.476562 " fill-opacity="1" fill-rule="nonzero"/><path fill="#45462a" d="M 179.078125 147.199219 C 179.097656 146.792969 178.855469 146.304688 179.480469 145.925781 C 180.15625 149.34375 179.132812 152.339844 177.617188 155.234375 C 176.28125 157.792969 175.054688 159.042969 173.5 159.238281 C 176.917969 156.871094 178.117188 153.484375 179.058594 149.964844 C 179.289062 149.074219 179.039062 148.121094 179.078125 147.199219 Z M 179.078125 147.199219 " fill-opacity="1" fill-rule="nonzero"/><path fill="#45462a" d="M 176.332031 186.179688 C 177.878906 185.550781 180.316406 186.433594 182.257812 188.316406 C 180.371094 187.355469 178.542969 186.265625 176.332031 186.179688 Z M 176.332031 186.179688 " fill-opacity="1" fill-rule="nonzero"/><path fill="#45462a" d="M 155.535156 144.976562 C 157.332031 145.710938 159.300781 149.46875 159.53125 152.242188 C 159.6875 154.160156 159.128906 156.320312 158.179688 156.90625 C 158.730469 154.746094 159.199219 152.6875 158.59375 150.597656 C 158.003906 148.589844 157.011719 146.800781 155.535156 144.976562 Z M 155.535156 144.976562 " fill-opacity="1" fill-rule="nonzero"/><path fill="#45462a" d="M 179.523438 194.019531 C 178.789062 194.84375 177.792969 195.101562 176.777344 195.207031 C 175.042969 195.386719 173.367188 195.195312 171.777344 194.355469 C 170.617188 193.734375 169.347656 193.355469 168.285156 192.523438 C 167.507812 191.914062 166.9375 191.148438 166.339844 190.386719 C 166.238281 190.257812 166.164062 190.078125 166.402344 189.832031 C 166.871094 190.101562 167.148438 190.601562 167.535156 190.972656 C 170.171875 193.46875 173.230469 194.882812 176.941406 194.609375 C 177.835938 194.546875 178.636719 194.171875 179.523438 194.019531 Z M 179.523438 194.019531 " fill-opacity="1" fill-rule="nonzero"/><path fill="#45462a" d="M 159.976562 169.691406 C 160.082031 170.042969 160.054688 170.203125 159.929688 170.355469 C 157.300781 173.585938 154.101562 175.945312 150.035156 177.109375 C 147.902344 177.71875 145.8125 178.40625 143.550781 178.191406 C 142.910156 178.128906 142.269531 178.105469 141.792969 177.527344 C 144.09375 177.714844 146.355469 177.78125 148.5625 176.988281 C 150.714844 176.214844 152.945312 175.683594 154.871094 174.320312 C 156.746094 173 158.289062 171.328125 159.976562 169.691406 Z M 159.976562 169.691406 " fill-opacity="1" fill-rule="nonzero"/><path fill="#45462a" d="M 150.210938 146.71875 C 149.6875 148.820312 149.546875 150.960938 149.46875 153.125 C 148.90625 150.902344 149.019531 148.742188 150.210938 146.71875 Z M 150.210938 146.71875 " fill-opacity="1" fill-rule="nonzero"/><path fill="#45462a" d="M 153.9375 166.085938 C 154.089844 166.019531 154.246094 165.914062 154.410156 166.085938 C 154.539062 166.429688 154.273438 166.582031 154.046875 166.675781 C 152.171875 167.445312 151.003906 169.035156 149.644531 170.40625 C 148.902344 171.15625 148.109375 171.855469 147.324219 172.5625 C 147.25 172.628906 147.082031 172.59375 146.96875 172.605469 C 146.734375 172.320312 146.96875 172.191406 147.117188 172.0625 C 148.488281 170.882812 149.726562 169.570312 150.953125 168.238281 C 151.792969 167.304688 152.789062 166.589844 153.9375 166.085938 Z M 153.9375 166.085938 " fill-opacity="1" fill-rule="nonzero"/><path fill="#45462a" d="M 140.1875 145.933594 C 140.253906 146.03125 140.253906 146.179688 140.332031 146.503906 C 139.496094 146.191406 139.199219 145.65625 138.84375 145.160156 C 137.949219 143.90625 137.035156 142.691406 135.839844 141.664062 C 134.148438 140.210938 132.230469 139.5 130.054688 139.335938 C 129.628906 139.304688 129.164062 139.441406 128.769531 139.132812 C 128.765625 138.691406 129.109375 138.800781 129.324219 138.804688 C 131.78125 138.8125 133.976562 139.460938 135.945312 141.066406 C 137.652344 142.460938 138.90625 144.191406 140.1875 145.933594 Z M 140.1875 145.933594 " fill-opacity="1" fill-rule="nonzero"/><path fill="#45462a" d="M 133.578125 145.84375 C 134.632812 146.261719 135.699219 146.628906 137.09375 146.847656 C 134.328125 147.882812 129.25 144.105469 128.335938 141.367188 C 129.410156 142.285156 129.9375 143.335938 130.871094 143.96875 C 131.78125 144.582031 132.519531 145.425781 133.578125 145.84375 Z M 133.578125 145.84375 " fill-opacity="1" fill-rule="nonzero"/><g clip-path="url(#5fb6f0a971)"><path fill="#45462a" d="M 261.210938 231.636719 C 261.085938 231.203125 260.921875 230.777344 260.796875 230.339844 C 259.863281 227.089844 258.964844 223.828125 257.660156 220.695312 C 256.902344 218.878906 256.199219 217.039062 255.40625 215.234375 C 254.953125 214.164062 254.417969 213.136719 253.800781 212.148438 C 252.082031 209.472656 250.257812 206.871094 248.15625 204.460938 C 245.8125 201.785156 243.269531 199.328125 240.410156 197.238281 C 236.972656 194.726562 233.308594 192.59375 229.210938 191.28125 C 225.933594 190.234375 222.652344 189.210938 219.226562 188.8125 C 217.875 188.65625 216.503906 188.660156 215.140625 188.605469 C 212.511719 188.503906 209.894531 188.519531 207.265625 188.820312 C 204.753906 189.105469 202.242188 189.390625 199.773438 189.953125 C 197.265625 190.527344 194.730469 191 192.25 191.695312 C 190.707031 192.128906 189.164062 192.648438 187.765625 193.515625 C 187.117188 193.917969 186.71875 194.152344 186.363281 194.257812 C 186.128906 194.578125 185.914062 194.910156 185.71875 195.257812 L 185.765625 195.277344 C 185.117188 196.128906 185.246094 196.972656 185.316406 197.839844 C 185.441406 199.3125 185.675781 200.738281 186.335938 202.082031 C 186.554688 202.53125 186.628906 203.046875 186.792969 203.523438 C 187.695312 206.152344 188.414062 208.832031 189.558594 211.382812 C 190.4375 213.339844 191.695312 215.046875 192.710938 216.902344 C 193.984375 219.230469 195.730469 221.203125 197.5 223.140625 C 198.378906 224.105469 199.402344 224.953125 200.433594 225.757812 C 201.585938 226.660156 202.820312 227.457031 204.023438 228.292969 C 207.109375 230.433594 210.367188 232.238281 213.902344 233.519531 C 215.902344 234.246094 217.917969 234.925781 220.023438 235.242188 C 221.726562 235.492188 223.429688 235.726562 225.132812 235.953125 C 229.554688 236.535156 233.988281 236.664062 238.4375 236.335938 C 242.21875 236.054688 245.992188 235.675781 249.765625 235.320312 C 251.878906 235.125 253.996094 234.925781 256.101562 234.671875 C 257.359375 234.519531 258.601562 234.304688 259.835938 234.023438 C 261.121094 233.734375 261.5625 232.890625 261.210938 231.636719 Z M 259.164062 233.425781 C 258.015625 233.617188 256.859375 233.742188 255.703125 233.867188 C 252.382812 234.21875 249.066406 234.59375 245.742188 234.886719 C 243.375 235.09375 241 235.214844 238.621094 235.320312 C 235.996094 235.4375 233.363281 235.621094 230.738281 235.539062 C 228.21875 235.464844 225.695312 235.164062 223.195312 234.828125 C 220.992188 234.535156 218.761719 234.3125 216.65625 233.535156 C 214.570312 232.761719 212.46875 232.023438 210.453125 231.097656 C 207.128906 229.574219 204.117188 227.515625 201.210938 225.320312 C 199.71875 224.1875 198.261719 223.003906 197.148438 221.464844 C 197.058594 221.339844 196.957031 221.226562 196.847656 221.121094 C 194.289062 218.59375 192.644531 215.433594 190.941406 212.347656 C 189.527344 209.78125 188.632812 206.960938 187.796875 204.144531 C 187.582031 203.417969 187.445312 202.652344 187.121094 201.972656 C 186.410156 200.472656 186.320312 198.859375 186.09375 197.265625 C 186.007812 196.671875 186.171875 196.171875 186.472656 195.699219 C 188.355469 195.894531 200.476562 200.40625 203.585938 202.078125 C 203.78125 202.875 204.019531 203.75 204.203125 204.636719 C 204.796875 207.519531 205.542969 210.34375 206.710938 213.050781 C 207.152344 214.070312 207.472656 215.144531 207.90625 216.167969 C 209.640625 220.261719 211.515625 224.285156 213.800781 228.105469 C 214.058594 228.542969 214.351562 228.953125 214.671875 229.339844 C 214.804688 229.496094 215.066406 229.546875 215.496094 229.742188 C 210.601562 221.003906 206.480469 212.238281 204.492188 202.457031 C 204.921875 202.59375 205.210938 202.664062 205.484375 202.777344 C 207.082031 203.417969 208.652344 204.113281 210.269531 204.695312 C 211.171875 205.019531 211.734375 205.484375 211.863281 206.480469 C 212.078125 208.109375 212.902344 209.535156 213.511719 211.03125 C 213.613281 211.285156 213.820312 211.503906 214.167969 212.027344 C 214.195312 211.476562 214.269531 211.242188 214.207031 211.058594 C 213.972656 210.390625 213.710938 209.730469 213.421875 209.085938 C 212.964844 208.070312 212.726562 207.007812 212.445312 205.714844 L 214.46875 206.640625 C 214.71875 209.652344 215.929688 212.269531 217.121094 214.878906 C 217.460938 215.628906 217.664062 216.492188 218.519531 217.238281 C 218.332031 215.828125 217.453125 214.960938 217.113281 213.875 C 216.785156 212.8125 216.402344 211.769531 216.0625 210.710938 C 215.714844 209.617188 215.097656 208.574219 215.386719 207.210938 C 215.828125 207.355469 216.261719 207.449219 216.65625 207.625 C 219.652344 208.980469 222.597656 210.433594 225.375 212.203125 C 225.882812 212.527344 226.453125 212.757812 227.011719 212.996094 C 227.660156 213.273438 228.046875 213.726562 228.28125 214.398438 C 229.132812 216.882812 230.007812 219.359375 230.910156 221.828125 C 232.195312 225.34375 233.769531 228.734375 235.488281 232.058594 C 235.617188 232.300781 235.835938 232.496094 236.210938 232.625 C 236.160156 232.410156 236.148438 232.179688 236.058594 231.980469 C 235.464844 230.644531 234.925781 229.269531 234.242188 227.976562 C 232.726562 225.09375 231.722656 222.019531 230.585938 218.992188 C 230.160156 217.855469 229.753906 216.710938 229.359375 215.5625 C 229.238281 215.207031 229.195312 214.820312 229.0625 214.214844 C 232.355469 215.65625 235.136719 217.464844 237.921875 219.324219 C 237.910156 220.414062 238.363281 221.296875 239.261719 222 C 239.039062 221.40625 238.820312 220.8125 238.535156 220.042969 C 238.875 220.136719 239.105469 220.152344 239.28125 220.257812 C 243.492188 222.78125 247.519531 225.570312 251.363281 228.625 C 251.757812 228.933594 252.109375 229.308594 252.5 229.628906 C 252.914062 229.96875 253.300781 230.363281 254.054688 230.453125 C 253.171875 228.878906 251.769531 228.039062 250.488281 226.851562 C 251.292969 226.5 252.042969 226.511719 252.75 226.355469 C 253.460938 226.199219 254.242188 226.304688 254.980469 225.816406 C 253.90625 225.546875 251.425781 225.816406 249.769531 226.367188 L 247.769531 224.949219 L 249.304688 223.980469 C 248.609375 223.648438 248.179688 223.988281 247.734375 224.109375 C 247.285156 224.226562 246.886719 224.3125 246.441406 224.003906 C 244.566406 222.71875 242.667969 221.46875 240.648438 220.125 C 241.019531 219.917969 241.28125 219.703125 241.578125 219.609375 C 243.066406 219.140625 244.5625 218.683594 246.070312 218.261719 C 247.773438 217.785156 249.492188 217.359375 251.195312 216.894531 C 251.566406 216.789062 252.011719 216.75 252.175781 216.136719 C 251.960938 216.089844 251.734375 215.96875 251.558594 216.015625 C 249.203125 216.589844 246.839844 217.152344 244.503906 217.796875 C 243.1875 218.160156 241.894531 218.597656 240.632812 219.113281 C 239.878906 219.421875 239.304688 219.347656 238.667969 218.882812 C 234.765625 216.042969 230.464844 213.894531 226.203125 211.671875 C 224.320312 210.6875 222.496094 209.597656 220.628906 208.582031 C 219.75 208.105469 218.835938 207.691406 217.738281 207.148438 C 219.910156 205.667969 222.214844 204.96875 224.429688 204.082031 C 226.644531 203.199219 228.847656 202.398438 231.066406 201.5625 C 233.3125 200.726562 235.691406 200.289062 238.242188 199.402344 C 237.757812 199.171875 237.554688 198.992188 237.359375 199.003906 C 237.007812 199.039062 236.664062 199.117188 236.332031 199.242188 C 234.3125 199.890625 232.226562 200.3125 230.253906 201.140625 C 228.71875 201.78125 227.089844 202.199219 225.535156 202.800781 C 222.800781 203.851562 220.023438 204.8125 217.453125 206.253906 C 216.875 206.582031 216.328125 206.625 215.734375 206.332031 C 215.054688 206 214.359375 205.695312 213.585938 205.335938 C 215.175781 203.695312 217.449219 203.585938 219.140625 202.339844 C 216.816406 202.707031 214.734375 203.6875 212.601562 204.820312 L 203.0625 200.859375 C 203.941406 199.40625 205.789062 199.320312 206.832031 197.832031 C 204.875 198.273438 203.570312 199.441406 201.933594 200.269531 L 197.113281 198.386719 C 198.378906 197.226562 199.808594 196.507812 201.230469 195.863281 C 203.300781 194.925781 205.4375 194.128906 207.578125 193.363281 C 209.148438 192.800781 210.769531 192.386719 212.359375 191.898438 C 212.609375 191.804688 212.851562 191.699219 213.085938 191.578125 C 212.332031 191.289062 209.984375 191.773438 207.289062 192.746094 C 205.34375 193.449219 203.394531 194.152344 201.480469 194.945312 C 199.628906 195.714844 197.851562 196.660156 196.242188 197.996094 C 194.285156 197.480469 188.296875 195.238281 187.390625 194.660156 C 188.363281 193.972656 189.363281 193.382812 190.472656 193.050781 C 193.816406 192.058594 197.207031 191.261719 200.636719 190.59375 C 203.871094 189.960938 207.109375 189.398438 210.402344 189.367188 C 213.984375 189.335938 217.589844 189.164062 221.132812 189.890625 C 223.15625 190.300781 225.140625 190.90625 227.132812 191.457031 C 228.109375 191.714844 229.070312 192.023438 230.015625 192.382812 C 234.699219 194.25 238.976562 196.800781 242.769531 200.140625 C 243.285156 200.589844 243.75 201.101562 244.261719 201.609375 C 243.324219 202.390625 242.007812 202.105469 241.007812 203.230469 L 244.917969 202.308594 C 246.207031 203.085938 247.0625 204.292969 247.988281 205.417969 C 250.277344 208.1875 252.429688 211.0625 254.035156 214.296875 C 254.863281 215.964844 255.558594 217.699219 256.296875 219.414062 C 256.914062 220.855469 257.578125 222.273438 258.078125 223.753906 C 258.6875 225.570312 259.152344 227.4375 259.675781 229.285156 C 259.894531 230.0625 260.125 230.835938 260.324219 231.621094 C 260.613281 232.765625 260.335938 233.230469 259.164062 233.425781 Z M 259.164062 233.425781 " fill-opacity="1" fill-rule="nonzero"/></g><path fill="#45462a" d="M 245.535156 233.367188 L 245.265625 233.574219 C 245.164062 233.464844 245.070312 233.347656 244.988281 233.226562 C 244.125 231.75 243.257812 230.277344 242.421875 228.785156 C 242.214844 228.421875 241.960938 228.015625 242.359375 227.382812 C 243.265625 229.574219 244.707031 231.308594 245.535156 233.367188 Z M 245.535156 233.367188 " fill-opacity="1" fill-rule="nonzero"/><path fill="#45462a" d="M 242.390625 233.121094 C 241.722656 232.921875 241.558594 232.40625 241.34375 231.972656 C 239.984375 229.214844 238.636719 226.449219 237.300781 223.679688 C 236.992188 223.042969 236.707031 222.398438 236.433594 221.746094 C 236.367188 221.582031 236.390625 221.382812 236.367188 221.121094 C 236.929688 221.214844 237.027344 221.621094 237.191406 221.960938 C 238.640625 224.957031 240.09375 227.953125 241.546875 230.945312 C 241.765625 231.394531 242.085938 231.800781 242.292969 232.253906 C 242.398438 232.488281 242.359375 232.785156 242.390625 233.121094 Z M 242.390625 233.121094 " fill-opacity="1" fill-rule="nonzero"/><path fill="#45462a" d="M 244.210938 227.660156 C 245.097656 228.371094 246.125 229.996094 246.449219 231.203125 C 245.691406 230.800781 244.410156 228.773438 244.210938 227.660156 Z M 244.210938 227.660156 " fill-opacity="1" fill-rule="nonzero"/><path fill="#45462a" d="M 238.574219 230.417969 C 239.175781 230.730469 239.507812 231.191406 239.398438 231.902344 C 239.246094 231.65625 239.082031 231.421875 238.941406 231.171875 C 238.800781 230.921875 238.695312 230.671875 238.574219 230.417969 Z M 238.574219 230.417969 " fill-opacity="1" fill-rule="nonzero"/><path fill="#45462a" d="M 256.902344 223.660156 C 256.410156 224.101562 256.410156 224.101562 254.960938 224.367188 C 254.222656 224.503906 253.480469 224.699219 252.734375 224.722656 C 252.023438 224.746094 251.339844 225.332031 250.398438 224.785156 C 252.050781 223.953125 255.839844 223.335938 256.902344 223.660156 Z M 256.902344 223.660156 " fill-opacity="1" fill-rule="nonzero"/><path fill="#45462a" d="M 237.925781 227.695312 C 237.957031 227.769531 237.898438 227.882812 237.859375 228.125 C 237.015625 227.183594 233.375 219.59375 232.929688 217.890625 C 232.890625 217.738281 232.953125 217.558594 232.976562 217.351562 C 233.160156 217.4375 233.292969 217.453125 233.320312 217.515625 C 234.863281 220.90625 236.398438 224.296875 237.925781 227.695312 Z M 237.925781 227.695312 " fill-opacity="1" fill-rule="nonzero"/><path fill="#45462a" d="M 251.9375 221.847656 C 251.9375 221.953125 251.945312 222.0625 251.953125 222.167969 C 250.277344 222.664062 248.605469 223.160156 246.929688 223.640625 C 246.8125 223.671875 246.65625 223.574219 246.515625 223.535156 C 246.539062 223.414062 246.527344 223.265625 246.578125 223.238281 C 248.089844 222.421875 249.804688 222.242188 251.417969 221.742188 C 251.566406 221.695312 251.761719 221.808594 251.9375 221.847656 Z M 251.9375 221.847656 " fill-opacity="1" fill-rule="nonzero"/><path fill="#45462a" d="M 240.3125 223.320312 C 240.90625 224.28125 241.40625 225.292969 241.808594 226.347656 C 240.574219 225.328125 240.21875 224.617188 240.3125 223.320312 Z M 240.3125 223.320312 " fill-opacity="1" fill-rule="nonzero"/><path fill="#45462a" d="M 219.734375 230.328125 C 220.023438 230.757812 220.53125 231.140625 220.292969 231.914062 C 219.421875 231.34375 219.011719 230.484375 218.542969 229.714844 C 217.460938 227.933594 215.949219 226.363281 215.546875 223.941406 C 215.867188 224.171875 215.988281 224.210938 216.015625 224.285156 C 216.882812 226.527344 218.417969 228.359375 219.734375 230.328125 Z M 219.734375 230.328125 " fill-opacity="1" fill-rule="nonzero"/><path fill="#45462a" d="M 249.824219 220.542969 C 248.632812 221.210938 247.46875 221.070312 246.40625 221.375 C 247.257812 220.570312 248.410156 220.304688 249.824219 220.542969 Z M 249.824219 220.542969 " fill-opacity="1" fill-rule="nonzero"/><path fill="#45462a" d="M 229.074219 228.101562 C 228.816406 227.671875 228.667969 227.460938 228.558594 227.230469 C 227.539062 225.089844 226.523438 222.945312 225.527344 220.789062 C 225.417969 220.558594 225.441406 220.265625 225.378906 219.832031 C 226.4375 221.046875 228.863281 226.453125 229.074219 228.101562 Z M 229.074219 228.101562 " fill-opacity="1" fill-rule="nonzero"/><path fill="#45462a" d="M 243.171875 220.886719 C 243.007812 220.964844 242.761719 220.847656 242.421875 220.808594 C 243.445312 220.035156 244.933594 219.589844 246.066406 219.714844 C 245.203125 220.550781 244.078125 220.46875 243.171875 220.886719 Z M 243.171875 220.886719 " fill-opacity="1" fill-rule="nonzero"/><path fill="#45462a" d="M 229.554688 225.011719 C 229.339844 224.980469 229.199219 224.996094 229.164062 224.945312 C 227.460938 222.222656 226.902344 219.03125 225.621094 216.132812 C 225.578125 216.03125 225.667969 215.867188 225.703125 215.679688 C 226.316406 215.886719 226.425781 216.394531 226.59375 216.859375 C 227.097656 218.28125 227.570312 219.71875 228.101562 221.132812 C 228.511719 222.214844 228.996094 223.265625 229.429688 224.335938 C 229.507812 224.53125 229.511719 224.761719 229.554688 225.011719 Z M 229.554688 225.011719 " fill-opacity="1" fill-rule="nonzero"/><path fill="#45462a" d="M 253.144531 214.984375 C 252.796875 215.128906 252.457031 215.339844 252.09375 215.410156 C 248.632812 216.058594 245.199219 216.820312 241.816406 217.804688 C 241.765625 217.820312 241.671875 217.703125 241.542969 217.609375 C 242.078125 217.078125 242.773438 216.925781 243.4375 216.769531 C 245.980469 216.164062 248.535156 215.59375 251.082031 215.003906 C 251.570312 214.890625 252.046875 214.734375 252.539062 214.628906 C 252.714844 214.59375 252.910156 214.652344 253.09375 214.667969 Z M 253.144531 214.984375 " fill-opacity="1" fill-rule="nonzero"/><path fill="#45462a" d="M 209.699219 225.679688 C 210.5 226.363281 211.742188 228.546875 212.066406 229.667969 C 211.214844 229.222656 211.070312 228.382812 210.660156 227.773438 C 210.234375 227.136719 209.777344 226.488281 209.699219 225.679688 Z M 209.699219 225.679688 " fill-opacity="1" fill-rule="nonzero"/><path fill="#45462a" d="M 248.296875 215.207031 C 248.1875 215.257812 247.980469 215.089844 247.753906 215 C 248.925781 214.257812 249.234375 214.1875 250.472656 214.398438 C 249.84375 215.082031 248.964844 214.894531 248.296875 215.207031 Z M 248.296875 215.207031 " fill-opacity="1" fill-rule="nonzero"/><path fill="#45462a" d="M 216.949219 221.808594 C 217.816406 222.589844 219.019531 224.933594 219.316406 226.40625 C 218.542969 225.742188 217.132812 222.992188 216.949219 221.808594 Z M 216.949219 221.808594 " fill-opacity="1" fill-rule="nonzero"/><path fill="#45462a" d="M 223.140625 223.757812 C 223.246094 223.972656 223.25 224.226562 223.304688 224.460938 C 221.074219 220.882812 219.320312 217.109375 217.667969 213.289062 C 217.601562 213.136719 217.675781 212.921875 217.683594 212.714844 C 217.851562 212.765625 217.992188 212.769531 218.027344 212.828125 C 219.742188 216.46875 221.445312 220.113281 223.140625 223.757812 Z M 223.140625 223.757812 " fill-opacity="1" fill-rule="nonzero"/><path fill="#45462a" d="M 235.328125 218.109375 C 235.746094 218.558594 235.746094 218.558594 235.761719 219.128906 C 235.234375 218.949219 235.144531 218.625 235.328125 218.109375 Z M 235.328125 218.109375 " fill-opacity="1" fill-rule="nonzero"/><path fill="#45462a" d="M 212.351562 221.125 C 213.40625 222.273438 214.65625 224.753906 215.078125 226.433594 C 214.347656 225.386719 213.964844 224.511719 213.472656 223.707031 C 212.980469 222.902344 212.503906 222.089844 212.351562 221.125 Z M 212.351562 221.125 " fill-opacity="1" fill-rule="nonzero"/><path fill="#45462a" d="M 208.667969 227.117188 C 208.460938 226.953125 208.199219 226.828125 208.066406 226.617188 C 206.007812 223.28125 202.320312 215.578125 202.339844 214.015625 C 203.113281 214.355469 203.207031 215.121094 203.480469 215.722656 C 204.003906 216.863281 204.464844 218.039062 204.921875 219.210938 C 205.816406 221.472656 207.070312 223.542969 208.203125 225.679688 C 208.433594 226.105469 208.636719 226.550781 208.667969 227.117188 Z M 208.667969 227.117188 " fill-opacity="1" fill-rule="nonzero"/><path fill="#45462a" d="M 241.949219 214.707031 C 241.003906 215.222656 240.246094 215.347656 239.457031 215.183594 C 240.195312 214.917969 240.867188 214.34375 241.949219 214.707031 Z M 241.949219 214.707031 " fill-opacity="1" fill-rule="nonzero"/><path fill="#45462a" d="M 214.085938 220.746094 C 214.417969 221.585938 215.011719 222.371094 214.921875 223.472656 C 214.125 222.488281 212.894531 219.589844 212.714844 218.367188 C 213.207031 218.609375 213.238281 218.597656 214.085938 220.746094 Z M 214.085938 220.746094 " fill-opacity="1" fill-rule="nonzero"/><path fill="#45462a" d="M 243.207031 211.589844 C 242.878906 211.851562 242.710938 212.078125 242.492188 212.144531 C 240.523438 212.761719 238.546875 213.355469 236.574219 213.964844 C 236.195312 214.082031 235.832031 214.265625 235.445312 214.359375 C 235.179688 214.421875 234.886719 214.378906 234.605469 214.386719 C 235.613281 213.460938 241.488281 211.679688 243.207031 211.589844 Z M 243.207031 211.589844 " fill-opacity="1" fill-rule="nonzero"/><path fill="#45462a" d="M 222.882812 219.050781 L 222.609375 219.1875 C 222.4375 219.027344 222.277344 218.855469 222.128906 218.671875 C 221.820312 218.207031 219.316406 212.25 219.117188 211.519531 C 219.558594 211.449219 219.757812 211.722656 219.894531 212.03125 C 220.429688 213.230469 220.929688 214.441406 221.46875 215.636719 C 221.902344 216.597656 222.382812 217.539062 222.820312 218.5 C 222.894531 218.65625 222.867188 218.867188 222.882812 219.050781 Z M 222.882812 219.050781 " fill-opacity="1" fill-rule="nonzero"/><path fill="#45462a" d="M 224.867188 217.890625 C 224.714844 217.6875 224.507812 217.511719 224.414062 217.285156 C 223.394531 214.90625 223.066406 213.535156 223.1875 212.308594 C 223.238281 212.304688 223.289062 212.308594 223.335938 212.320312 C 223.382812 212.332031 223.417969 212.355469 223.445312 212.398438 C 223.539062 212.570312 223.621094 212.753906 223.683594 212.941406 C 224.128906 214.558594 224.566406 216.179688 224.867188 217.890625 Z M 224.867188 217.890625 " fill-opacity="1" fill-rule="nonzero"/><path fill="#45462a" d="M 208.875 224.011719 C 208.269531 223.3125 208.085938 222.855469 208.140625 222.167969 C 208.921875 222.546875 208.84375 223.117188 208.875 224.011719 Z M 208.875 224.011719 " fill-opacity="1" fill-rule="nonzero"/><path fill="#45462a" d="M 247.367188 207.527344 C 247.289062 207.699219 247.261719 207.84375 247.207031 207.859375 C 242.851562 208.933594 238.605469 210.382812 234.339844 211.738281 C 234.277344 211.757812 234.171875 211.652344 233.882812 211.492188 C 234.691406 210.960938 235.558594 210.558594 236.484375 210.28125 C 239.085938 209.46875 241.691406 208.65625 244.304688 207.890625 C 245.128906 207.652344 245.984375 207.554688 246.832031 207.414062 C 246.992188 207.390625 247.171875 207.484375 247.367188 207.527344 Z M 247.367188 207.527344 " fill-opacity="1" fill-rule="nonzero"/><path fill="#45462a" d="M 232.035156 211.789062 C 231.335938 212.425781 230.566406 212.878906 229.367188 212.734375 C 230.226562 211.96875 231.054688 211.683594 232.035156 211.789062 Z M 232.035156 211.789062 " fill-opacity="1" fill-rule="nonzero"/><path fill="#45462a" d="M 206.816406 218.886719 C 207.019531 219.402344 207.445312 219.886719 207.226562 220.597656 C 205.40625 218.742188 201.09375 206.628906 201.40625 204.128906 C 201.628906 204.492188 201.820312 204.703125 201.894531 204.953125 C 202.644531 207.355469 203.289062 209.789062 204.125 212.164062 C 204.925781 214.4375 205.917969 216.648438 206.816406 218.886719 Z M 206.816406 218.886719 " fill-opacity="1" fill-rule="nonzero"/><path fill="#45462a" d="M 234.207031 209.511719 C 232.234375 210.222656 230.25 210.910156 228.269531 211.59375 C 228.234375 211.605469 228.144531 211.457031 227.917969 211.195312 C 230.175781 210.074219 232.46875 209.367188 234.769531 208.671875 C 234.871094 208.640625 235.007812 208.761719 235.328125 208.890625 C 234.859375 209.152344 234.554688 209.386719 234.207031 209.511719 Z M 234.207031 209.511719 " fill-opacity="1" fill-rule="nonzero"/><path fill="#45462a" d="M 239.347656 207.246094 C 238.289062 207.894531 237.316406 208.085938 236.371094 208.421875 C 236.199219 207.804688 236.628906 207.679688 236.90625 207.613281 C 237.621094 207.441406 238.277344 206.847656 239.347656 207.246094 Z M 239.347656 207.246094 " fill-opacity="1" fill-rule="nonzero"/><path fill="#45462a" d="M 209.945312 214.460938 C 211.007812 216.597656 211.351562 217.648438 211.339844 218.589844 C 210.378906 217.199219 209.847656 215.757812 209.945312 214.460938 Z M 209.945312 214.460938 " fill-opacity="1" fill-rule="nonzero"/><path fill="#45462a" d="M 244.59375 203.386719 C 244.675781 203.890625 244.242188 203.933594 243.949219 204.027344 C 242.75 204.402344 241.535156 204.742188 240.332031 205.089844 C 237.574219 205.894531 234.816406 206.6875 232.1875 207.855469 C 231.84375 208.007812 231.449219 208.039062 231.078125 208.128906 C 231.046875 208.023438 231.019531 207.921875 230.988281 207.8125 C 231.132812 207.6875 231.257812 207.519531 231.421875 207.449219 C 235.613281 205.710938 239.976562 204.515625 244.324219 203.25 C 244.390625 203.230469 244.492188 203.332031 244.59375 203.386719 Z M 244.59375 203.386719 " fill-opacity="1" fill-rule="nonzero"/><path fill="#45462a" d="M 214.394531 212.765625 C 215.078125 213.304688 215.148438 214.082031 215.335938 214.816406 C 214.625 214.304688 214.417969 213.570312 214.394531 212.765625 Z M 214.394531 212.765625 " fill-opacity="1" fill-rule="nonzero"/><path fill="#45462a" d="M 213.25 214.277344 C 213.003906 214.121094 212.820312 214.078125 212.769531 213.96875 C 211.664062 211.546875 210.695312 209.078125 209.976562 206.503906 C 209.902344 206.238281 209.96875 205.933594 209.976562 205.566406 C 210.246094 205.65625 210.316406 205.65625 210.332031 205.6875 C 210.433594 205.855469 210.519531 206.03125 210.585938 206.214844 C 211.460938 208.859375 212.335938 211.503906 213.25 214.277344 Z M 213.25 214.277344 " fill-opacity="1" fill-rule="nonzero"/><path fill="#45462a" d="M 199.167969 218.695312 C 198.96875 218.476562 198.792969 218.332031 198.675781 218.144531 C 196.90625 215.320312 195.574219 212.28125 194.375 209.183594 C 194.316406 209.027344 194.375 208.820312 194.386719 208.394531 C 194.652344 208.789062 194.835938 208.972656 194.917969 209.191406 C 196.097656 212.355469 197.707031 215.3125 199.292969 218.28125 C 199.324219 218.339844 199.242188 218.460938 199.167969 218.695312 Z M 199.167969 218.695312 " fill-opacity="1" fill-rule="nonzero"/><path fill="#45462a" d="M 239.042969 203.652344 C 238.3125 204.460938 237.566406 204.660156 236.398438 204.667969 C 237.269531 203.929688 237.964844 203.601562 239.042969 203.652344 Z M 239.042969 203.652344 " fill-opacity="1" fill-rule="nonzero"/><path fill="#45462a" d="M 217.363281 210.59375 C 216.953125 209.976562 216.765625 209.636719 217.230469 209.183594 Z M 217.363281 210.59375 " fill-opacity="1" fill-rule="nonzero"/><path fill="#45462a" d="M 226.027344 205.917969 C 225.71875 206.054688 225.472656 206.167969 225.253906 205.714844 C 226 204.851562 227.089844 204.589844 228.105469 204.230469 C 229.15625 203.859375 230.207031 203.445312 231.296875 203.257812 C 231.339844 203.351562 231.378906 203.445312 231.417969 203.539062 C 231.289062 203.648438 231.175781 203.800781 231.027344 203.863281 C 230.425781 204.117188 229.808594 204.335938 229.203125 204.585938 C 228.144531 205.015625 227.082031 205.457031 226.027344 205.917969 Z M 226.027344 205.917969 " fill-opacity="1" fill-rule="nonzero"/><path fill="#45462a" d="M 195.128906 214.476562 C 195.445312 214.960938 195.605469 215.546875 195.832031 216.09375 C 194.867188 215.242188 194.253906 214.183594 194.039062 212.679688 C 195.007812 213.15625 194.792969 213.957031 195.128906 214.476562 Z M 195.128906 214.476562 " fill-opacity="1" fill-rule="nonzero"/><path fill="#45462a" d="M 198.261719 211.042969 C 199.105469 212.148438 199.304688 213.191406 199.625 214.183594 C 198.828125 213.402344 198.269531 212.519531 198.261719 211.042969 Z M 198.261719 211.042969 " fill-opacity="1" fill-rule="nonzero"/><path fill="#45462a" d="M 216.515625 205.871094 C 216.460938 205.894531 216.34375 205.796875 216.175781 205.714844 C 216.878906 204.835938 217.9375 204.5625 218.851562 204.148438 C 220.445312 203.421875 221.941406 202.441406 223.722656 202.164062 C 223.769531 202.15625 223.851562 202.289062 223.902344 202.371094 C 223.925781 202.40625 223.914062 202.472656 223.917969 202.53125 C 221.453125 203.648438 218.984375 204.761719 216.515625 205.871094 Z M 216.515625 205.871094 " fill-opacity="1" fill-rule="nonzero"/><path fill="#45462a" d="M 222.949219 200.390625 C 222.441406 201.175781 221.871094 201.398438 220.972656 201.550781 C 221.488281 200.71875 222.0625 200.507812 222.949219 200.390625 Z M 222.949219 200.390625 " fill-opacity="1" fill-rule="nonzero"/><path fill="#45462a" d="M 192.96875 210.054688 C 193.214844 210.507812 193.585938 210.980469 193.277344 211.597656 C 192.003906 210.097656 190.023438 205.027344 189.890625 202.792969 C 190.144531 203.140625 190.339844 203.335938 190.449219 203.570312 C 190.59375 203.898438 190.707031 204.230469 190.789062 204.578125 C 191.292969 206.492188 192.019531 208.316406 192.96875 210.054688 Z M 192.96875 210.054688 " fill-opacity="1" fill-rule="nonzero"/><path fill="#45462a" d="M 197.363281 209.164062 C 197.425781 209.371094 197.476562 209.582031 197.515625 209.796875 C 196.863281 209.351562 196.855469 209.355469 196.015625 207.5 C 195.601562 206.582031 195.210938 205.644531 194.835938 204.71875 C 194.476562 203.832031 194.082031 202.953125 193.824219 202.035156 C 193.582031 201.167969 192.980469 200.351562 193.296875 199.050781 C 193.585938 199.59375 193.769531 199.863281 193.875 200.15625 C 194.320312 201.390625 194.699219 202.652344 195.171875 203.871094 C 195.867188 205.640625 196.632812 207.394531 197.363281 209.164062 Z M 197.363281 209.164062 " fill-opacity="1" fill-rule="nonzero"/><path fill="#45462a" d="M 212.367188 202.839844 C 211.699219 203.253906 211.394531 203.710938 210.710938 203.355469 C 211.089844 202.867188 211.4375 202.574219 212.367188 202.839844 Z M 212.367188 202.839844 " fill-opacity="1" fill-rule="nonzero"/><path fill="#45462a" d="M 214.582031 201.894531 C 214.136719 202.078125 213.710938 202.457031 213.171875 202.144531 C 213.734375 201.398438 213.734375 201.398438 215.433594 200.703125 C 216.367188 200.328125 217.296875 199.949219 218.234375 199.574219 C 219.121094 199.222656 220.003906 198.851562 220.910156 198.542969 C 221.777344 198.246094 222.597656 197.671875 223.613281 198.195312 C 221.847656 198.890625 220.082031 199.578125 218.328125 200.292969 C 217.070312 200.816406 215.835938 201.378906 214.582031 201.894531 Z M 214.582031 201.894531 " fill-opacity="1" fill-rule="nonzero"/><path fill="#45462a" d="M 229.421875 193.964844 C 229.113281 194.296875 229 194.523438 228.832031 194.582031 C 227.402344 195.066406 225.988281 195.609375 224.527344 195.96875 C 222.515625 196.449219 220.570312 197.121094 218.695312 197.984375 C 218.117188 198.257812 217.53125 198.597656 216.726562 198.390625 C 216.832031 198.160156 216.839844 198.023438 216.90625 197.992188 C 219.171875 196.882812 221.492188 195.925781 223.953125 195.375 C 225.695312 194.984375 227.320312 194.109375 229.421875 193.964844 Z M 229.421875 193.964844 " fill-opacity="1" fill-rule="nonzero"/><path fill="#45462a" d="M 193.214844 205.738281 C 193.226562 205.78125 193.097656 205.871094 192.953125 206.015625 C 192.816406 205.804688 192.644531 205.625 192.585938 205.414062 C 191.90625 203.046875 190.84375 200.796875 190.472656 198.34375 C 190.453125 198.226562 190.554688 198.09375 190.671875 197.769531 C 190.847656 198.132812 190.980469 198.320312 191.042969 198.53125 C 191.777344 200.929688 192.5 203.332031 193.214844 205.738281 Z M 193.214844 205.738281 " fill-opacity="1" fill-rule="nonzero"/><path fill="#45462a" d="M 195.699219 202.023438 C 195.082031 201.527344 194.894531 200.878906 194.980469 199.902344 C 195.6875 200.597656 195.542969 201.359375 195.699219 202.023438 Z M 195.699219 202.023438 " fill-opacity="1" fill-rule="nonzero"/><path fill="#45462a" d="M 199.882812 198.515625 C 199.820312 198.542969 199.703125 198.453125 199.492188 198.371094 C 201.101562 196.933594 203.570312 195.882812 204.863281 196.042969 C 204.832031 196.132812 204.824219 196.277344 204.761719 196.304688 C 203.140625 197.050781 201.515625 197.789062 199.882812 198.515625 Z M 199.882812 198.515625 " fill-opacity="1" fill-rule="nonzero"/><path fill="#45462a" d="M 210.03125 194.296875 C 209.167969 195.222656 208.097656 194.875 207.332031 195.402344 C 207.566406 194.796875 207.558594 194.785156 208.417969 194.523438 C 208.871094 194.382812 209.292969 194.058594 210.03125 194.296875 Z M 210.03125 194.296875 " fill-opacity="1" fill-rule="nonzero"/><path fill="#45462a" d="M 201.984375 192.671875 C 200.214844 193.871094 198.292969 194.769531 196.328125 195.984375 C 196.308594 195.097656 196.753906 194.929688 197.132812 194.734375 C 198.703125 193.941406 200.074219 192.6875 201.984375 192.671875 Z M 201.984375 192.671875 " fill-opacity="1" fill-rule="nonzero"/></svg>