<svg xmlns="http://www.w3.org/2000/svg" xmlns:xlink="http://www.w3.org/1999/xlink" width="500" zoomAndPan="magnify" viewBox="0 0 375 374.999991" height="500" preserveAspectRatio="xMidYMid meet" version="1.0"><defs><clipPath id="ffccd78711"><path d="M 112.515625 114.65625 L 262.46875 114.65625 L 262.46875 260.15625 L 112.515625 260.15625 Z M 112.515625 114.65625 " clip-rule="nonzero"/></clipPath></defs><g clip-path="url(#ffccd78711)"><path fill="#45462a" d="M 147.652344 251.339844 C 146.601562 253.699219 144.386719 256.816406 141.621094 257.515625 C 142.582031 258.449219 143.6875 259.0625 145.058594 258.886719 C 145.84375 258.769531 146.046875 260.167969 145.261719 260.285156 C 142.058594 260.75 140.132812 258.128906 138.5625 255.679688 C 136.550781 252.535156 135.152344 249.503906 134.746094 245.777344 C 134.484375 243.417969 134.453125 241.027344 133.929688 238.695312 C 133.523438 236.863281 132.53125 235.199219 132.09375 233.367188 C 131.597656 231.238281 132.328125 228.761719 134.714844 228.355469 C 135.125 228.296875 135.328125 228.878906 134.890625 228.996094 C 130.898438 230.015625 134.015625 235.085938 134.714844 237.300781 C 135.472656 239.6875 135.5625 242.191406 135.851562 244.640625 C 136.230469 247.726562 137.015625 250.4375 138.621094 253.117188 C 139.261719 254.195312 140.019531 255.59375 140.980469 256.789062 C 142.320312 256.378906 143.425781 255.855469 144.503906 254.777344 C 145.613281 253.671875 146.371094 252.300781 147.328125 251.078125 C 147.476562 250.84375 147.765625 251.136719 147.652344 251.339844 Z M 169.761719 247.960938 C 174.074219 245.515625 177.742188 241.753906 179.839844 237.300781 C 180.015625 236.949219 180.480469 237.210938 180.421875 237.53125 C 179.519531 242.25 174.042969 246.332031 170.023438 248.398438 C 169.734375 248.574219 169.46875 248.136719 169.761719 247.960938 Z M 238.191406 213.03125 C 235.046875 212.1875 231.871094 212.332031 228.667969 212.214844 C 226.25 212.128906 223.480469 211.984375 221.410156 210.585938 C 221.179688 210.410156 221.324219 210.03125 221.617188 210.121094 C 224.644531 210.875 227.441406 211.371094 230.558594 211.519531 C 233.210938 211.632812 235.804688 211.808594 238.335938 212.652344 C 238.542969 212.710938 238.453125 213.089844 238.191406 213.03125 Z M 215.789062 229.609375 C 214.128906 229.082031 212.148438 228.328125 210.953125 226.984375 C 210.808594 226.8125 210.980469 226.550781 211.1875 226.667969 C 211.914062 227.074219 212.585938 227.65625 213.3125 228.0625 C 214.128906 228.53125 214.972656 228.9375 215.875 229.257812 C 216.082031 229.347656 215.992188 229.667969 215.789062 229.609375 Z M 235.160156 160.972656 C 236.035156 159.632812 237.785156 158.382812 239.472656 158.875 C 239.734375 158.964844 239.765625 159.34375 239.472656 159.402344 C 238.773438 159.546875 238.074219 159.574219 237.375 159.867188 C 236.675781 160.1875 235.976562 160.625 235.484375 161.207031 C 235.335938 161.382812 235.046875 161.148438 235.160156 160.972656 Z M 226.160156 178.015625 C 220.449219 183.902344 215.496094 190.835938 207.398438 193.367188 C 207.195312 193.425781 207.109375 193.105469 207.3125 193.046875 C 211.507812 191.503906 214.972656 188.796875 218.003906 185.5625 C 220.539062 182.851562 222.78125 179.734375 225.78125 177.519531 C 226.074219 177.316406 226.394531 177.785156 226.160156 178.015625 Z M 200.992188 158.964844 C 199.855469 159.808594 199.445312 162.691406 199.066406 164.003906 C 198.601562 165.664062 198.136719 167.296875 197.726562 168.957031 C 197.667969 169.160156 197.351562 169.070312 197.40625 168.867188 C 197.960938 166.277344 198.542969 163.710938 199.242188 161.179688 C 199.535156 160.160156 199.621094 158.585938 200.875 158.554688 C 201.105469 158.527344 201.136719 158.847656 200.992188 158.964844 Z M 211.945312 144.105469 C 213.835938 141.019531 215.558594 137.84375 216.285156 134.261719 C 216.953125 130.851562 217.246094 127.296875 218.148438 123.949219 C 218.238281 123.65625 218.730469 123.714844 218.703125 124.035156 C 218.441406 127.589844 217.652344 131.347656 216.867188 134.84375 C 216.082031 138.394531 214.1875 141.308594 212.234375 144.308594 C 212.121094 144.484375 211.796875 144.308594 211.945312 144.105469 Z M 199.328125 173.996094 C 200.613281 166.449219 203.117188 159.3125 205.882812 152.207031 C 207.226562 148.710938 208.625 145.214844 209.816406 141.6875 C 211.070312 138.019531 211.945312 134.289062 213.050781 130.558594 C 213.140625 130.269531 213.632812 130.328125 213.605469 130.648438 C 212.816406 138.019531 209.496094 145.242188 206.816406 152.089844 C 203.992188 159.253906 201.050781 166.507812 199.679688 174.113281 C 199.621094 174.316406 199.300781 174.226562 199.328125 173.996094 Z M 142.640625 182.238281 C 146.398438 182.996094 150.125 183.929688 153.828125 184.832031 C 156.828125 185.589844 160.175781 186.203125 162.945312 187.628906 C 163.265625 187.804688 163.03125 188.242188 162.710938 188.183594 C 159.507812 187.628906 156.332031 186.378906 153.15625 185.53125 C 149.601562 184.597656 146.019531 183.667969 142.523438 182.589844 C 142.320312 182.503906 142.40625 182.210938 142.640625 182.238281 Z M 137.394531 169.507812 C 137.046875 169.394531 137.191406 168.898438 137.542969 168.957031 C 140.601562 169.625 143.367188 171.230469 145.902344 173.003906 C 146.019531 173.09375 145.902344 173.296875 145.785156 173.207031 C 143.191406 171.492188 140.339844 170.472656 137.394531 169.507812 Z M 131.804688 168.257812 C 138.417969 170.382812 145.027344 173.441406 150.972656 176.996094 C 151.144531 177.082031 151.03125 177.375 150.824219 177.316406 C 150.621094 177.257812 150.417969 177.199219 150.214844 177.140625 C 150.125 177.113281 150.125 176.96875 150.242188 176.96875 C 149.164062 176.96875 147.273438 175.570312 146.253906 175.101562 C 144.738281 174.375 143.222656 173.675781 141.679688 173.003906 C 138.359375 171.546875 134.976562 170.324219 131.628906 168.984375 C 131.191406 168.78125 131.367188 168.109375 131.804688 168.257812 Z M 157.992188 141.28125 C 158.195312 152.03125 160.207031 162.253906 165.128906 171.925781 C 165.246094 172.1875 164.894531 172.394531 164.75 172.160156 C 159.652344 162.867188 156.59375 151.972656 157.234375 141.308594 C 157.265625 140.785156 157.960938 140.785156 157.992188 141.28125 Z M 164.429688 125.839844 C 165.128906 128.027344 165.1875 130.414062 165.507812 132.65625 C 165.886719 135.308594 166.46875 137.960938 167.199219 140.550781 C 167.257812 140.8125 166.878906 140.902344 166.820312 140.667969 C 165.972656 138.105469 165.273438 135.542969 164.808594 132.859375 C 164.402344 130.386719 164.253906 127.910156 163.558594 125.492188 C 163.441406 125.054688 164.050781 124.878906 164.226562 125.257812 C 164.3125 125.140625 164.429688 125.082031 164.605469 125.113281 C 167.957031 125.695312 170.546875 128.054688 171.566406 131.289062 C 171.65625 131.523438 171.277344 131.609375 171.21875 131.375 C 170.167969 128.433594 167.519531 126.335938 164.429688 125.839844 Z M 183.597656 149.234375 C 182.054688 144.835938 180.890625 140.667969 178.0625 136.824219 C 177.949219 136.648438 178.238281 136.417969 178.355469 136.589844 C 181.152344 140.085938 183.832031 144.574219 184.066406 149.148438 C 184.09375 149.4375 183.6875 149.464844 183.597656 149.234375 Z M 181.910156 193.367188 C 182.316406 193.628906 182.695312 193.863281 183.105469 194.097656 C 183.277344 194.183594 183.453125 194.242188 183.628906 194.269531 C 184.152344 195.351562 184.617188 196.425781 185.085938 197.503906 C 184.007812 196.136719 182.929688 194.765625 181.910156 193.367188 Z M 188.144531 195.726562 C 188.289062 196.542969 188.40625 197.390625 188.492188 198.203125 C 188.230469 197.914062 187.996094 197.621094 187.734375 197.328125 C 187.066406 195.816406 186.394531 194.300781 185.8125 192.785156 C 184.675781 189.871094 183.570312 186.960938 182.519531 184.046875 C 182.957031 184.773438 183.511719 185.414062 184.179688 185.851562 C 184.53125 186.085938 184.882812 186.144531 185.171875 186.085938 C 185.289062 186.289062 185.40625 186.464844 185.550781 186.640625 C 185.550781 186.667969 185.578125 186.667969 185.609375 186.695312 C 185.523438 186.84375 185.492188 187.046875 185.550781 187.28125 C 186.21875 190.164062 187.648438 192.757812 188.144531 195.726562 Z M 198.222656 196.164062 C 197.40625 197.066406 196.5625 197.882812 195.660156 198.699219 C 196.332031 197.707031 196.941406 196.6875 197.496094 195.640625 C 197.757812 195.816406 197.992188 195.992188 198.222656 196.164062 Z M 204.691406 190.25 L 204.691406 190.222656 L 204.71875 190.25 C 204.71875 190.222656 204.71875 190.222656 204.691406 190.25 Z M 185.171875 193.574219 C 185.171875 193.574219 185.199219 193.574219 185.171875 193.574219 C 185.171875 193.574219 185.199219 193.601562 185.199219 193.628906 C 185.199219 193.601562 185.199219 193.601562 185.171875 193.574219 Z M 190.125 192.171875 C 190.125 191.941406 190.125 191.738281 190.09375 191.503906 C 190.210938 191.96875 190.300781 192.40625 190.417969 192.875 C 190.328125 192.609375 190.210938 192.378906 190.125 192.171875 Z M 196.242188 188.242188 C 196.359375 188.242188 196.476562 188.210938 196.59375 188.183594 C 196.417969 188.5625 196.210938 188.96875 196.039062 189.347656 C 196.066406 188.96875 196.15625 188.621094 196.242188 188.242188 Z M 181.765625 189.347656 C 181.703125 189.289062 181.734375 189.289062 181.765625 189.347656 Z M 181.589844 132.21875 C 181.617188 129.074219 181.152344 125.929688 180.65625 122.839844 C 180.628906 122.578125 180.160156 122.636719 180.191406 122.898438 C 180.511719 125.550781 180.597656 128.199219 180.714844 130.882812 C 180.570312 130.648438 180.421875 130.445312 180.277344 130.238281 C 178.53125 127.824219 176.289062 125.695312 173.722656 124.296875 C 173.753906 124.265625 173.78125 124.238281 173.8125 124.210938 C 173.839844 124.152344 173.898438 124.09375 173.925781 124.035156 C 174.128906 123.742188 173.753906 123.453125 173.460938 123.570312 C 174.394531 123.074219 174.890625 121.878906 175.648438 120.976562 C 176.34375 120.160156 177.160156 119.433594 177.976562 118.730469 C 178.851562 117.976562 180.511719 116.167969 181.734375 116.109375 C 182.871094 116.050781 183.222656 117.449219 183.832031 118.265625 C 186.570312 121.996094 190.941406 125.023438 190.472656 130.179688 C 190.445312 130.445312 190.589844 130.648438 190.796875 130.765625 C 188.726562 135.074219 187.96875 139.96875 187.355469 144.746094 C 187.328125 144.632812 187.300781 144.515625 187.238281 144.398438 C 187.910156 142.097656 187.355469 139.269531 187.238281 137 C 187.035156 133.328125 186.921875 129.6875 185.988281 126.101562 C 185.902344 125.78125 185.433594 125.929688 185.492188 126.25 C 186.191406 129.511719 186.25 132.832031 186.394531 136.152344 C 186.484375 138.164062 186.890625 140.582031 186.6875 142.765625 C 186.164062 141.457031 185.578125 140.171875 185.027344 138.921875 C 183.949219 136.648438 182.871094 134.378906 181.589844 132.21875 Z M 260.449219 167.148438 C 260.417969 167.148438 260.390625 167.179688 260.359375 167.179688 C 260.390625 166.917969 260.390625 166.625 260.417969 166.363281 C 260.449219 166.070312 259.953125 165.984375 259.894531 166.304688 C 259.546875 167.996094 258.789062 169.507812 258.292969 171.167969 C 258.089844 171.8125 259.078125 172.25 259.371094 171.636719 C 259.953125 170.472656 260.1875 169.101562 260.300781 167.789062 C 260.359375 167.847656 260.449219 167.878906 260.535156 167.90625 C 262.664062 168.140625 260.332031 172.917969 259.894531 173.5 C 259.835938 173.585938 259.777344 173.644531 259.71875 173.734375 C 259.457031 173.617188 259.136719 173.9375 259.253906 174.226562 C 258.527344 174.929688 257.652344 175.453125 256.808594 176.003906 C 255.496094 176.878906 254.097656 177.785156 253.894531 179.445312 C 253.835938 179.851562 254.417969 179.996094 254.652344 179.761719 C 256.078125 178.394531 257.417969 177.347656 259.019531 176.210938 C 259.3125 176.003906 259.574219 175.800781 259.808594 175.570312 C 260.15625 176.761719 260.128906 178.046875 259.574219 179.179688 C 258.964844 180.464844 257.710938 181.160156 256.980469 182.328125 C 256.078125 183.726562 255.789062 184.949219 254.273438 185.941406 C 253.019531 186.753906 251.5625 187.25 250.195312 187.804688 C 247.515625 188.882812 244.835938 189.902344 242.152344 190.863281 C 242.152344 190.863281 242.152344 190.863281 242.183594 190.835938 C 243.785156 189.902344 245.269531 188.707031 246.8125 187.660156 C 248.5625 186.464844 250.398438 185.359375 252.085938 184.074219 C 252.292969 183.929688 252.117188 183.636719 251.882812 183.753906 C 250.105469 184.6875 248.214844 185.734375 246.40625 186.871094 C 248.097656 185.183594 249.785156 183.523438 251.707031 182.09375 C 252.058594 181.832031 251.765625 181.367188 251.390625 181.539062 C 248.039062 183.054688 245.621094 185.882812 242.910156 188.269531 C 241.308594 189.699219 239.589844 190.921875 237.667969 191.882812 C 235.917969 192.785156 234.027344 193.25 232.308594 194.183594 C 232.308594 194.183594 232.308594 194.183594 232.277344 194.183594 C 230.382812 194.796875 228.460938 195.378906 226.566406 195.960938 C 229.597656 192.902344 231.578125 188.242188 235.277344 186.113281 C 235.484375 186 235.308594 185.707031 235.105469 185.824219 C 232.539062 187.222656 230.761719 189.40625 228.984375 191.679688 C 227.5 193.574219 226.074219 195.234375 224.296875 196.660156 C 223.859375 196.777344 223.421875 196.921875 222.984375 197.039062 C 223.886719 196.195312 224.703125 195.203125 225.402344 194.214844 C 228.605469 189.699219 230.707031 184.832031 235.335938 181.484375 C 235.539062 181.335938 235.335938 181.015625 235.132812 181.160156 C 231.550781 183.578125 229.191406 186.609375 226.976562 190.28125 C 225.226562 193.164062 223.394531 195.902344 220.769531 197.652344 C 218.820312 198.203125 216.839844 198.726562 214.855469 199.253906 C 212.003906 199.980469 209.117188 200.710938 206.234375 201.351562 C 204.660156 201.699219 202.824219 202.109375 201.136719 202.019531 C 201.601562 201.757812 202.070312 201.496094 202.535156 201.234375 C 205.679688 199.339844 208.796875 197.359375 211.914062 195.464844 C 212.148438 195.320312 211.945312 194.972656 211.710938 195.085938 C 209.03125 196.632812 206.320312 198.144531 203.640625 199.71875 C 202.359375 200.476562 201.078125 201.234375 199.738281 201.816406 C 199.300781 201.699219 198.863281 201.527344 198.484375 201.292969 C 199.59375 199.894531 200.523438 198.410156 201.367188 196.804688 C 201.398438 196.746094 201.429688 196.660156 201.457031 196.601562 C 201.632812 196.425781 201.777344 196.253906 201.894531 196.019531 C 202.359375 195.902344 202.765625 195.523438 202.535156 194.972656 C 202.535156 194.941406 202.503906 194.914062 202.503906 194.882812 C 203.46875 193.746094 204.488281 192.667969 205.621094 191.707031 C 206 191.386719 205.945312 190.921875 205.710938 190.601562 C 205.945312 190.601562 206.175781 190.570312 206.410156 190.457031 C 207.136719 190.105469 207.953125 189.230469 208.59375 188.183594 C 209.003906 187.804688 209.378906 187.398438 209.757812 186.988281 C 211.59375 185.035156 213.371094 183.054688 215.179688 181.105469 C 215.382812 180.871094 215.0625 180.550781 214.828125 180.753906 C 213.050781 182.558594 211.304688 184.570312 209.378906 186.347656 C 209.933594 184.570312 209.644531 182.851562 207.515625 182.589844 C 205.769531 182.355469 204.398438 183.839844 203.554688 185.183594 C 202.621094 186.640625 202.125 188.386719 202.417969 190.105469 C 202.535156 190.71875 203 190.980469 203.496094 190.949219 C 202.5625 191.621094 201.71875 192.347656 200.933594 193.136719 C 200.378906 192.816406 199.765625 192.609375 199.125 192.496094 C 200.992188 188.765625 202.503906 184.859375 203.933594 180.957031 C 204.050781 180.667969 203.582031 180.550781 203.496094 180.84375 C 201.953125 184.746094 200.347656 188.648438 198.371094 192.378906 C 198.164062 192.347656 197.992188 192.320312 197.785156 192.320312 C 196.445312 192.203125 195.804688 194.066406 196.707031 194.914062 C 196.738281 194.941406 196.796875 195 196.824219 195.027344 C 195.832031 196.601562 194.757812 198.117188 193.679688 199.601562 C 193.765625 198.378906 194 197.183594 194.320312 196.019531 C 194.667969 194.707031 195.105469 193.457031 195.425781 192.144531 C 196.359375 190.511719 197.144531 188.796875 197.902344 187.046875 C 199.707031 182.882812 201.398438 178.6875 203.144531 174.492188 C 203.234375 174.257812 202.824219 174.082031 202.710938 174.316406 C 201.050781 178.046875 199.390625 181.746094 197.726562 185.472656 C 197.875 182.792969 198.164062 178.191406 195.164062 178.101562 C 193.5625 178.046875 193.210938 179.5 193.210938 180.753906 C 193.210938 182.414062 193.007812 184.921875 193.96875 186.347656 C 194.117188 186.550781 194.320312 186.667969 194.523438 186.726562 C 194.523438 187.074219 194.699219 187.425781 194.929688 187.6875 C 194.203125 189.058594 193.242188 190.308594 192.570312 191.707031 C 192.484375 191.910156 192.398438 192.117188 192.308594 192.289062 C 192.308594 191.648438 192.28125 190.980469 192.25 190.308594 C 192.078125 185.359375 191.84375 180.40625 191.84375 175.421875 C 191.871094 165.34375 192.773438 155.265625 195.6875 145.621094 C 195.777344 145.328125 195.308594 145.183594 195.222656 145.503906 C 192.425781 154.390625 191.289062 163.65625 191.058594 172.945312 C 190.941406 177.664062 191.027344 182.386719 191.230469 187.105469 C 191.289062 188.707031 191.378906 190.339844 191.40625 191.941406 C 190.210938 186.929688 188.582031 181.917969 188.144531 176.820312 C 187.386719 167.671875 188.785156 158.382812 190.707031 149.4375 C 190.734375 149.261719 190.472656 149.175781 190.445312 149.351562 C 188.8125 156.515625 187.386719 163.710938 187.238281 171.054688 C 186.773438 162.953125 187.503906 154.855469 188.523438 146.84375 C 189.453125 139.53125 190.152344 130.820312 196.066406 125.609375 C 197.4375 124.382812 199.011719 123.453125 200.785156 122.929688 C 202.070312 122.550781 203.40625 122.402344 204.601562 121.761719 C 202.214844 124.472656 200.523438 128.085938 199.476562 131.347656 C 199.390625 131.636719 199.824219 131.753906 199.941406 131.464844 C 200.785156 129.25 201.804688 127.121094 203.117188 125.171875 C 204.3125 123.363281 205.828125 121.878906 207.109375 120.160156 C 207.195312 120.042969 207.136719 119.871094 207.019531 119.78125 C 207.28125 119.519531 207.546875 119.285156 207.835938 119.054688 C 210.023438 117.246094 212.585938 117.742188 214.421875 119.722656 L 214.449219 119.753906 C 214.539062 120.1875 215.148438 120.1875 215.207031 119.722656 C 215.179688 118.851562 215.527344 118.265625 216.253906 117.917969 C 216.722656 117.277344 217.304688 117.1875 217.972656 117.683594 C 219.109375 118.003906 219.519531 118.414062 220.1875 119.375 C 220.945312 120.453125 221.5 121.675781 221.847656 122.898438 C 222.578125 125.402344 222.605469 128.054688 222.082031 130.589844 C 221.558594 133.210938 220.507812 135.6875 219.257812 138.046875 C 218.089844 140.203125 216.546875 142.242188 215.789062 144.601562 C 215.585938 145.273438 216.578125 145.679688 216.925781 145.066406 C 216.984375 144.980469 217.011719 144.894531 217.070312 144.804688 C 217.128906 144.894531 217.273438 144.949219 217.390625 144.863281 C 219.371094 143.523438 221.0625 141.515625 223.1875 140.347656 C 222.199219 143.117188 220.449219 145.359375 218.90625 147.835938 C 217.273438 150.484375 215.90625 153.226562 214.59375 156.050781 C 214.476562 156.285156 214.828125 156.515625 214.972656 156.253906 C 216.578125 153.167969 218.351562 150.136719 220.246094 147.222656 C 221.644531 145.097656 223.828125 142.824219 223.800781 140.117188 C 223.800781 140.085938 223.800781 140.058594 223.773438 140.027344 C 224.152344 139.851562 224.558594 139.707031 224.964844 139.589844 C 228.957031 138.542969 231.695312 141.046875 232.570312 144.71875 C 232.65625 145.125 233.328125 145.15625 233.414062 144.71875 C 234.027344 141.398438 230.9375 138.628906 227.851562 138.28125 C 223.828125 137.84375 220.21875 141.078125 217.597656 143.902344 C 221.238281 137.699219 225.402344 130.707031 223.363281 123.246094 C 222.722656 120.917969 221.09375 117.363281 218.554688 116.488281 C 216.78125 115.878906 214.769531 117.1875 214.507812 118.964844 C 213.457031 117.710938 211.886719 117.042969 210.195312 117.128906 C 207.398438 117.277344 206.117188 119.925781 203.699219 120.917969 C 201.019531 122.023438 198.484375 122.171875 196.066406 124.003906 C 194.40625 125.285156 193.007812 126.890625 191.902344 128.667969 C 191.785156 126.453125 190.765625 124.472656 189.398438 122.664062 C 188.492188 121.5 187.445312 120.421875 186.484375 119.316406 C 185.375 118.0625 184.648438 116.578125 183.597656 115.324219 C 182.054688 113.519531 179.550781 115.820312 178.269531 116.925781 C 176.113281 118.792969 173.664062 120.859375 172.847656 123.714844 C 172.847656 123.742188 172.847656 123.773438 172.847656 123.773438 C 170.695312 122.78125 168.335938 122.289062 165.800781 122.578125 C 165.332031 122.636719 165.304688 123.363281 165.800781 123.335938 C 178.414062 122.753906 183.949219 138.949219 186.6875 148.621094 C 186.714844 148.710938 186.773438 148.796875 186.832031 148.855469 C 185.902344 156.082031 185.316406 163.363281 185.667969 170.644531 C 185.957031 176.761719 187.503906 182.765625 188.257812 188.796875 C 187.851562 188.125 187.472656 187.453125 187.210938 186.726562 C 187.125 186.433594 186.921875 186.261719 186.714844 186.203125 C 187.851562 183.753906 186.597656 178.308594 183.6875 177.8125 C 181.878906 177.492188 181.210938 179.007812 181.328125 180.464844 C 178.5 172.363281 175.9375 164.148438 173.722656 155.875 C 173.636719 155.582031 173.199219 155.703125 173.285156 155.992188 C 175.441406 164.585938 177.859375 173.09375 180.773438 181.484375 C 181.824219 184.511719 182.929688 187.511719 184.066406 190.484375 C 183.714844 189.988281 183.308594 189.550781 182.898438 189.113281 C 180.773438 184.859375 178.820312 180.550781 177.042969 176.152344 C 173.488281 167.296875 170.753906 158.148438 168.480469 148.882812 C 168.421875 148.710938 168.160156 148.769531 168.1875 148.972656 C 169.996094 158.761719 172.90625 168.285156 176.636719 177.492188 C 178.0625 180.988281 179.609375 184.453125 181.269531 187.832031 C 181.210938 187.804688 181.152344 187.746094 181.121094 187.714844 C 180.511719 187.308594 179.460938 187.542969 179.140625 188.242188 C 179.023438 188.472656 178.96875 188.707031 178.910156 188.941406 C 175.296875 183.433594 172.265625 177.492188 170.546875 171.113281 C 170.460938 170.820312 170.050781 170.9375 170.113281 171.230469 C 171.714844 178.074219 174.773438 184.308594 178.675781 190.132812 C 180.511719 192.875 182.492188 195.523438 184.558594 198.085938 C 184.96875 198.582031 185.347656 199.105469 185.753906 199.632812 C 184.296875 199.019531 182.753906 198.496094 181.328125 197.882812 C 181.007812 197.738281 180.714844 198.203125 181.035156 198.378906 C 182.957031 199.28125 184.9375 200.449219 186.949219 201.234375 C 187.007812 201.320312 187.066406 201.410156 187.152344 201.46875 C 187.355469 201.816406 187.589844 202.167969 187.824219 202.515625 C 187.765625 202.515625 187.675781 202.515625 187.589844 202.546875 C 187.238281 202.632812 186.890625 202.75 186.542969 202.863281 C 184.179688 202.050781 181.675781 201.527344 179.316406 200.679688 C 175.9375 199.515625 172.617188 198.144531 169.441406 196.515625 C 169.207031 196.398438 168.976562 196.746094 169.238281 196.894531 C 173.898438 199.542969 179.199219 202.078125 184.558594 203.390625 C 182.695312 203.679688 180.976562 203.855469 178.996094 203.535156 C 176.984375 203.1875 175.035156 202.546875 173.109375 201.90625 C 172.761719 201.789062 172.644531 202.3125 172.964844 202.429688 C 175.210938 203.300781 178.003906 204.4375 180.714844 204.671875 C 180.539062 204.730469 180.367188 204.789062 180.191406 204.816406 C 177.160156 205.605469 174.304688 205.605469 171.246094 204.992188 C 165.914062 203.945312 161.167969 202.777344 155.660156 203.242188 C 145.726562 204.117188 132.882812 207.410156 126.617188 197.066406 C 126.441406 196.777344 125.890625 196.953125 126.035156 197.328125 C 129.9375 208.109375 143.949219 206.214844 152.777344 205.136719 C 155.808594 204.757812 158.835938 204.46875 161.894531 204.730469 C 164.460938 204.933594 166.933594 205.632812 169.441406 206.1875 C 156.566406 207.964844 145.699219 216.617188 136.085938 224.890625 C 135.355469 225.5 136.40625 226.519531 137.132812 225.9375 C 147.359375 217.371094 157.671875 208.515625 171.335938 206.59375 C 171.421875 206.625 171.539062 206.625 171.625 206.652344 C 172.996094 206.886719 174.304688 206.972656 175.617188 206.941406 C 173.78125 207.671875 172.003906 208.515625 170.285156 209.363281 C 166.789062 211.082031 163.179688 212.972656 160.148438 215.480469 C 158.835938 216.558594 157.757812 217.78125 156.828125 219.179688 C 155.632812 221.015625 154.261719 222.09375 152.601562 223.460938 C 149.953125 225.617188 147.707031 228.644531 146.71875 231.9375 C 146.660156 232.140625 146.953125 232.257812 147.066406 232.085938 C 148.785156 228.355469 150.882812 225.648438 154.175781 223.230469 C 156.796875 221.304688 157.992188 218.363281 160.46875 216.265625 C 166.03125 211.546875 172.996094 209.070312 179.695312 206.417969 C 182.433594 205.867188 185.113281 204.933594 187.824219 203.972656 C 187.941406 203.972656 188.054688 203.945312 188.113281 203.855469 C 188.320312 203.738281 188.464844 203.535156 188.492188 203.332031 C 188.667969 203.535156 188.8125 203.738281 189.015625 203.945312 C 184.9375 205.28125 180.917969 206.914062 177.25 209.101562 C 172.761719 211.78125 169.46875 215.390625 166.847656 219.878906 C 165.304688 222.527344 163.875 225.179688 161.953125 227.597656 C 160.03125 230.015625 157.816406 232.203125 155.835938 234.558594 C 152.660156 238.347656 149.921875 242.804688 149.980469 247.902344 C 149.980469 248.136719 150.332031 248.136719 150.332031 247.902344 C 150.621094 241.902344 154.320312 237.359375 158.195312 233.105469 C 161.691406 229.289062 164.605469 225.472656 167.199219 220.984375 C 169.878906 216.351562 173.054688 212.625 177.6875 209.855469 C 181.210938 207.730469 185.054688 206.300781 188.902344 204.902344 C 188.550781 205.226562 188.203125 205.546875 187.851562 205.835938 C 185.578125 207.847656 183.425781 209.914062 181.328125 212.101562 C 177.191406 216.410156 173.578125 221.042969 170.257812 225.996094 C 170.113281 226.199219 170.429688 226.375 170.578125 226.171875 C 173.8125 221.773438 177.363281 217.519531 181.121094 213.558594 C 182.84375 211.75 184.617188 210.003906 186.453125 208.3125 C 187.5625 207.292969 188.695312 206.128906 189.949219 205.167969 C 189.046875 208.429688 187.765625 211.546875 186.015625 214.460938 C 184.9375 216.296875 183.6875 218.011719 182.289062 219.617188 C 181.269531 220.808594 179.898438 221.859375 179.257812 223.316406 C 178.472656 225.152344 178.382812 227.074219 177.335938 228.878906 C 176.289062 230.6875 174.832031 232.257812 173.285156 233.6875 C 170.257812 236.484375 166.820312 238.785156 164.050781 241.902344 C 163.875 242.105469 164.167969 242.425781 164.371094 242.222656 C 167.226562 239.046875 170.898438 236.804688 174.042969 233.949219 C 176.898438 231.355469 178.734375 228.472656 179.664062 224.714844 C 180.25 222.414062 182.316406 220.898438 183.773438 219.121094 C 184.9375 217.695312 185.957031 216.179688 186.890625 214.578125 C 188.550781 211.722656 189.832031 208.664062 190.707031 205.488281 C 190.734375 205.515625 190.796875 205.574219 190.824219 205.605469 C 190.910156 205.71875 191 205.808594 191.113281 205.867188 C 191.378906 206.097656 191.609375 206.332031 191.871094 206.566406 C 191.902344 206.59375 191.929688 206.59375 191.960938 206.59375 C 191.667969 209.070312 190.503906 211.632812 189.746094 213.875 C 188.753906 216.789062 187.707031 219.675781 186.542969 222.527344 C 186.453125 222.761719 186.863281 222.9375 186.949219 222.703125 C 188.320312 219.585938 189.628906 216.46875 190.765625 213.265625 C 191.582031 210.933594 192.835938 208.3125 192.804688 205.777344 C 193.210938 205.632812 193.621094 205.429688 194.027344 205.195312 C 193.589844 210.644531 193.328125 216.035156 191.753906 221.335938 C 190.066406 226.957031 186.511719 231.851562 185.667969 237.738281 C 185.578125 238.289062 186.394531 238.523438 186.511719 237.96875 C 187.675781 231.9375 191.523438 226.839844 193.269531 220.957031 C 194.171875 217.925781 194.757812 214.75 195.136719 211.519531 C 195.28125 212.363281 195.425781 213.207031 195.601562 213.992188 C 196.621094 218.65625 197.816406 223.285156 199.066406 227.890625 C 199.15625 228.238281 199.679688 228.09375 199.621094 227.742188 C 198.863281 223.375 198.019531 219.03125 197.085938 214.664062 C 196.648438 212.652344 196.300781 210.644531 196.242188 208.574219 C 196.183594 206.796875 196.445312 205.078125 196.59375 203.332031 C 196.648438 203.332031 196.738281 203.300781 196.796875 203.300781 C 196.855469 203.796875 196.914062 204.320312 197 204.816406 C 196.796875 205.660156 196.972656 206.417969 197.320312 207.148438 C 197.757812 210.03125 198.308594 212.914062 199.359375 215.539062 C 200.757812 218.976562 203.175781 221.742188 206.207031 223.839844 C 206.46875 224.015625 206.699219 223.609375 206.46875 223.402344 C 201.429688 219.789062 199.652344 214.488281 198.601562 208.867188 C 199.183594 209.449219 199.824219 209.972656 200.4375 210.4375 C 202.070312 211.664062 203.757812 212.800781 205.535156 213.820312 C 207.3125 214.839844 209.789062 215.597656 210.777344 217.519531 C 210.894531 217.75 211.214844 217.546875 211.097656 217.316406 C 209.960938 215.015625 207.195312 214.140625 205.15625 212.828125 C 202.710938 211.253906 199.476562 209.417969 198.253906 206.679688 C 198.105469 205.691406 197.960938 204.671875 197.816406 203.679688 C 199.535156 205.515625 201.339844 207.265625 203.4375 208.632812 C 206.527344 210.644531 210.136719 211.519531 213.574219 212.769531 C 221.121094 215.539062 228.34375 219.441406 234.785156 224.25 C 234.957031 224.363281 235.105469 224.101562 234.957031 223.957031 C 229.074219 219.441406 222.78125 215.683594 215.933594 212.855469 C 212.382812 211.402344 208.507812 210.46875 205.15625 208.632812 C 202.765625 207.324219 200.757812 205.457031 198.863281 203.507812 C 207.167969 206.246094 216.253906 207.089844 224.878906 207.613281 C 229.570312 207.90625 234.695312 208.632812 239.355469 208.050781 C 244.105469 207.441406 247.660156 203.566406 252.671875 204.964844 C 253.339844 205.167969 253.691406 204.234375 253.136719 203.855469 C 249.613281 201.554688 245.5625 204.261719 242.210938 205.605469 C 237.609375 207.441406 231.78125 206.359375 226.945312 206.097656 C 219.109375 205.691406 211.480469 204.847656 203.875 203.390625 C 206.816406 203.039062 209.847656 202.019531 212.121094 201.4375 C 219.898438 199.484375 227.617188 197.214844 235.191406 194.59375 C 238.921875 193.3125 242.621094 191.941406 246.289062 190.511719 C 249.289062 189.347656 252.933594 188.386719 255.554688 186.433594 C 256.515625 185.707031 257.070312 184.890625 257.621094 183.8125 C 258.410156 182.238281 259.808594 181.21875 260.625 179.707031 C 261.527344 177.988281 261.4375 176.121094 260.566406 174.550781 C 261.058594 173.996094 261.46875 173.382812 261.757812 172.683594 C 262.339844 171.546875 263.507812 166.449219 260.449219 167.148438 Z M 241.074219 225.296875 C 242.039062 224.132812 242.386719 223.140625 242.472656 221.65625 C 242.53125 220.753906 242.5625 219.90625 243.347656 219.355469 C 243.640625 219.148438 244.019531 219.441406 244.019531 219.734375 C 244.046875 220.375 243.816406 220.984375 243.726562 221.625 C 243.640625 222.210938 243.582031 222.820312 243.40625 223.402344 C 243.058594 224.394531 242.417969 225.296875 241.511719 225.851562 C 241.132812 226.054688 240.8125 225.585938 241.074219 225.296875 Z M 207.488281 233.570312 C 210.71875 235.492188 213.75 234.472656 217.21875 234.734375 C 218.878906 234.882812 220.304688 235.609375 221.90625 236.046875 C 223.65625 236.511719 225.375 236.394531 227.0625 235.929688 C 224.644531 234.328125 222.488281 232.519531 219.75 231.386719 C 219.578125 231.296875 219.695312 231.007812 219.867188 231.09375 C 222.636719 232.203125 225.753906 233.484375 227.820312 235.726562 C 230.441406 234.882812 232.832031 233.6875 235.074219 232.203125 C 235.046875 232.171875 235.015625 232.113281 234.988281 232.054688 C 233.648438 227.714844 229.394531 225.9375 225.753906 223.78125 C 225.519531 223.636719 225.722656 223.316406 225.957031 223.433594 C 229.597656 225.238281 234.785156 227.25 235.628906 231.792969 C 236.179688 231.414062 236.707031 231.007812 237.261719 230.570312 C 237.667969 230.25 238.132812 230.628906 237.957031 231.09375 C 236.589844 234.242188 232.21875 235.636719 229.277344 236.773438 C 227.355469 237.503906 225.316406 238.027344 223.21875 237.824219 C 221.0625 237.621094 219.199219 236.425781 217.070312 236.191406 C 214.945312 235.957031 212.816406 236.453125 210.691406 236.074219 C 209.117188 235.785156 207.660156 235.113281 206.378906 234.125 C 203.816406 232.171875 201.746094 229.257812 200.203125 226.492188 C 200 226.140625 200.523438 225.820312 200.757812 226.171875 C 202.710938 228.9375 204.488281 231.792969 207.488281 233.570312 Z M 251.445312 217.199219 C 251.738281 219.410156 249.84375 221.363281 248.535156 222.878906 C 248.039062 223.433594 247.425781 223.984375 247.019531 224.597656 C 246 226.023438 246.40625 226.550781 246.171875 227.917969 C 246.027344 228.792969 245.679688 229.609375 245.125 230.335938 C 244.484375 231.183594 243.582031 231.910156 242.5625 232.171875 C 241.398438 235.550781 238.105469 237.445312 234.785156 238.347656 C 229.976562 239.628906 224.792969 239.949219 219.867188 240.589844 C 215.730469 241.144531 211.1875 241.84375 207.253906 240.007812 C 203.816406 238.40625 201.136719 234.675781 200.058594 231.121094 C 199.855469 230.425781 200.785156 230.164062 201.136719 230.65625 C 203.613281 233.976562 204.808594 237.707031 209.148438 239.074219 C 212.703125 240.183594 216.605469 239.511719 220.1875 239.046875 C 224.296875 238.523438 228.492188 238.171875 232.570312 237.472656 C 236.242188 236.832031 239.675781 235.464844 241.601562 232.257812 C 241.398438 232.257812 241.222656 232.230469 241.019531 232.203125 C 240.757812 232.140625 240.667969 231.707031 240.929688 231.589844 C 241.921875 231.121094 243 230.804688 243.785156 230.015625 C 245.152344 228.644531 244.746094 227.335938 245.097656 225.675781 C 245.417969 224.191406 246.726562 223.140625 247.6875 222.0625 C 248.214844 221.480469 248.738281 220.867188 249.175781 220.257812 C 249.875 219.265625 250.457031 217.664062 249.992188 216.441406 C 249.667969 215.625 248.5625 215.015625 248.039062 214.3125 C 247.105469 213.003906 246.929688 211.488281 247.542969 210.003906 C 247.628906 209.769531 248.097656 209.769531 248.039062 210.0625 C 247.746094 212.476562 248.765625 213.527344 250.28125 215.101562 C 250.863281 215.710938 251.328125 216.351562 251.445312 217.199219 Z M 254.914062 207.527344 C 255.175781 208.488281 254.503906 209.101562 253.777344 209.59375 C 252.378906 210.527344 250.835938 211.632812 249.289062 212.304688 C 248.914062 212.476562 248.417969 211.984375 248.796875 211.664062 C 249.613281 210.992188 250.542969 210.5 251.445312 209.945312 C 251.972656 209.625 253.71875 208.894531 254.011719 208.109375 C 253.050781 208.050781 252.234375 207.496094 251.824219 206.59375 C 251.707031 206.359375 251.914062 206.15625 252.117188 206.15625 C 250.574219 205.371094 248.535156 206.769531 247.25 207.613281 C 245.792969 208.574219 244.660156 209.796875 243.464844 211.050781 C 243.289062 211.226562 242.96875 210.992188 243.113281 210.789062 C 244.339844 208.75 246.261719 207.117188 248.359375 206.011719 C 249.757812 205.28125 251.503906 204.46875 252.84375 205.691406 C 253.164062 205.984375 252.726562 206.566406 252.378906 206.300781 C 252.378906 206.300781 252.347656 206.300781 252.347656 206.273438 C 252.816406 206.941406 253.574219 207.292969 254.386719 207.175781 C 254.59375 207.148438 254.855469 207.265625 254.914062 207.527344 Z M 186.65625 239.660156 C 187.355469 243.125 186.21875 246.972656 184.355469 249.882812 C 183.832031 250.726562 182.898438 252.449219 181.792969 252.5625 C 180.714844 252.679688 180.308594 250.875 179.550781 250.785156 C 179.550781 250.902344 179.519531 250.992188 179.460938 251.105469 C 176.871094 255.273438 171.363281 256.757812 166.90625 257.953125 C 163.933594 258.769531 160.847656 259.585938 157.730469 259.585938 C 154.554688 259.613281 151.496094 258.566406 148.320312 258.476562 C 147.972656 258.476562 147.972656 257.953125 148.320312 257.921875 C 151.089844 257.660156 153.738281 258.15625 156.507812 258.214844 C 159.507812 258.273438 162.421875 257.632812 165.304688 256.847656 C 170.316406 255.507812 174.742188 254.109375 178.414062 250.292969 C 178.675781 250.03125 178.996094 250.058594 179.230469 250.203125 C 179.753906 249.972656 179.839844 249.972656 180.453125 250.234375 C 181.09375 250.496094 180.773438 250.785156 181.472656 250.933594 C 182.492188 251.136719 182.8125 250.058594 183.335938 249.242188 C 185.171875 246.242188 185.464844 243.152344 185.636719 239.746094 C 185.667969 239.25 186.542969 239.074219 186.65625 239.660156 Z M 154.902344 170.121094 C 155.226562 170.121094 155.546875 170.121094 155.894531 170.121094 C 156.214844 170.148438 156.566406 170.089844 156.855469 170.121094 C 156.886719 170.121094 156.941406 170.121094 156.972656 170.121094 C 158.429688 172.363281 160.03125 174.550781 161.835938 176.558594 C 161.984375 176.703125 162.128906 176.792969 162.304688 176.820312 C 162.710938 177.578125 163.148438 178.308594 163.585938 179.035156 C 161.167969 176.910156 158.808594 174.753906 156.507812 172.421875 C 155.777344 171.695312 155.050781 170.9375 154.292969 170.207031 C 154.46875 170.148438 154.671875 170.121094 154.902344 170.121094 Z M 115.109375 172.945312 C 115.839844 170.675781 115.984375 168.257812 117.703125 166.449219 C 119.976562 164.089844 123.382812 163.246094 125.859375 161.089844 C 125.976562 161.148438 126.121094 161.179688 126.296875 161.117188 C 130.433594 159.808594 134.308594 159.546875 138.472656 160.855469 C 142.347656 162.082031 145.757812 164.410156 148.816406 167.003906 C 154.148438 171.492188 158.691406 177.433594 164.78125 180.957031 C 165.449219 181.976562 166.148438 182.96875 166.90625 183.957031 C 168.945312 186.667969 171.1875 189.230469 173.664062 191.5625 C 176.113281 193.894531 178.878906 196.515625 181.910156 198.058594 C 182.550781 198.378906 183.335938 197.535156 182.726562 196.980469 C 180.160156 194.679688 177.277344 192.816406 174.800781 190.425781 C 172.207031 187.949219 169.789062 185.242188 167.664062 182.328125 C 163.644531 176.820312 160.527344 170.675781 158.488281 164.148438 C 157.265625 160.214844 156.449219 156.167969 155.835938 152.089844 C 155.253906 148.097656 154.378906 143.726562 155.398438 139.738281 C 156.246094 136.445312 158.109375 133.53125 159.246094 130.355469 C 159.710938 129.074219 160.0625 127.734375 160.148438 126.367188 C 160.207031 125.664062 159.914062 124.617188 160.121094 123.949219 C 161.023438 120.859375 162.972656 123.421875 163.671875 124.328125 C 163.933594 124.675781 164.460938 124.238281 164.285156 123.859375 C 163.527344 122.460938 161.722656 120.335938 159.972656 121.585938 C 158.253906 122.8125 159.128906 126.394531 158.71875 128.113281 C 158.136719 130.53125 156.972656 132.746094 155.921875 135.019531 C 155.574219 133.675781 155.019531 132.308594 154.640625 131.027344 C 154.554688 130.734375 154.089844 130.851562 154.175781 131.144531 C 154.585938 132.746094 154.816406 134.582031 155.429688 136.152344 C 155.339844 136.386719 155.226562 136.589844 155.136719 136.824219 C 154.875 137.492188 154.640625 138.191406 154.4375 138.863281 C 152.953125 135.863281 150.765625 132.335938 150.738281 129.015625 C 150.738281 128.726562 150.273438 128.726562 150.273438 129.015625 C 150.183594 132.773438 152.3125 136.707031 154.058594 139.96875 C 154.089844 140.027344 154.117188 140.058594 154.148438 140.085938 C 153.738281 142.007812 153.679688 143.992188 153.828125 146.058594 C 154.351562 153.371094 155.660156 160.535156 158.050781 167.296875 C 155.253906 160.363281 152.136719 153.488281 150.5625 146.203125 C 150.503906 145.914062 150.039062 146.03125 150.097656 146.320312 C 151 151.128906 152.601562 155.671875 154.351562 160.246094 C 155.019531 162.023438 155.632812 163.917969 156.300781 165.808594 C 155.574219 164.527344 154.875 163.246094 154.207031 161.933594 C 151.757812 157.214844 149.050781 152.410156 148.058594 147.105469 C 147.097656 142.066406 146.746094 136.269531 147.300781 131.171875 C 147.59375 128.492188 148.523438 125.664062 150.621094 123.890625 C 152.863281 121.996094 155.894531 122.054688 158.167969 123.800781 C 158.515625 124.09375 158.894531 123.511719 158.632812 123.21875 C 155.660156 119.722656 150.449219 121.5 148.085938 124.761719 C 144.621094 129.539062 145.496094 136.707031 145.84375 142.214844 C 146.046875 145.328125 146.484375 148.445312 147.476562 151.417969 C 148.496094 154.390625 149.980469 157.214844 151.378906 160.011719 C 152.953125 163.15625 154.613281 166.304688 156.476562 169.277344 C 156.359375 169.21875 156.273438 169.1875 156.128906 169.160156 C 155.777344 169.101562 155.398438 169.042969 155.019531 169.042969 C 154.527344 169.015625 153.828125 168.957031 153.390625 169.246094 C 151.46875 167.355469 149.484375 165.546875 147.300781 163.917969 C 141.503906 159.574219 132.765625 156.109375 125.800781 159.894531 C 125.597656 160.011719 125.511719 160.1875 125.511719 160.390625 C 122.21875 162.984375 117.382812 163.65625 115.402344 167.703125 C 114.324219 169.917969 113.769531 172.511719 112.894531 174.8125 C 112.082031 177.023438 112.664062 178.65625 113.800781 180.636719 C 114.238281 181.394531 115.429688 180.695312 114.964844 179.9375 C 114.0625 178.425781 113.535156 177.054688 114.121094 175.308594 C 114.410156 174.550781 114.820312 173.792969 115.109375 172.945312 Z M 123.324219 195.785156 C 119.976562 194.765625 117.789062 191.328125 116.597656 187.601562 C 116.566406 187.570312 116.507812 187.570312 116.480469 187.542969 C 116.21875 187.398438 116.246094 187.105469 116.390625 186.929688 C 115.664062 184.394531 115.371094 181.746094 115.460938 179.707031 C 115.546875 178.015625 115.984375 176.441406 116.769531 174.929688 C 117.820312 172.976562 118.402344 171.199219 118.925781 169.042969 C 119.539062 166.480469 120.5 164.03125 123.179688 163.101562 C 123.585938 162.953125 123.734375 163.566406 123.355469 163.742188 C 119.945312 165.140625 120.179688 169.246094 119.394531 172.1875 C 118.925781 173.910156 118.050781 175.308594 117.441406 176.851562 C 125.539062 179.761719 133.636719 182.707031 141.738281 185.648438 C 145.84375 187.132812 149.980469 188.648438 154.089844 190.164062 C 158.023438 191.621094 161.894531 193.25 166.003906 194.183594 C 166.207031 194.214844 166.121094 194.503906 165.914062 194.476562 C 157.585938 192.902344 149.484375 189.320312 141.53125 186.464844 C 133.40625 183.550781 125.277344 180.636719 117.148438 177.695312 C 116.917969 178.425781 116.769531 179.210938 116.742188 180.054688 C 116.714844 182.53125 117.148438 185.125 118.113281 187.484375 C 120.964844 189.027344 123.964844 190.308594 127.082031 191.242188 C 130.054688 192.144531 133.113281 192.609375 136.144531 193.28125 C 139.058594 193.953125 141.300781 195.234375 143.804688 196.835938 C 146.660156 198.640625 149.804688 199.953125 153.097656 200.679688 C 153.273438 200.710938 153.214844 201 153.011719 200.972656 C 149.980469 200.359375 147.15625 199.429688 144.445312 197.914062 C 141.359375 196.164062 138.734375 194.5625 135.210938 193.863281 C 129.386719 192.699219 123.910156 191.328125 118.664062 188.707031 C 119.859375 191.125 121.546875 193.25 123.820312 194.738281 C 124.34375 195.058594 123.996094 195.992188 123.324219 195.785156 Z M 231.054688 153.167969 C 231.289062 153.632812 231.550781 154.273438 231.898438 154.738281 C 230.09375 155.613281 228.402344 156.664062 226.859375 158.003906 C 223.714844 160.742188 221.265625 164.121094 217.597656 166.128906 C 218.527344 164.675781 219.460938 163.246094 220.480469 161.847656 C 223.277344 158.03125 227.09375 154.972656 230.152344 151.359375 C 230.382812 152 230.761719 152.585938 231.054688 153.167969 Z M 233.121094 145.824219 C 229.453125 151.738281 223.625 155.703125 219.429688 161.179688 C 217.1875 164.089844 215.234375 167.238281 213.253906 170.324219 C 210.980469 173.820312 208.300781 177.285156 206.46875 180.988281 C 206.175781 181.597656 206.992188 182.328125 207.457031 181.746094 C 208.011719 181.046875 208.566406 180.347656 209.058594 179.589844 C 209.148438 179.675781 209.320312 179.707031 209.46875 179.589844 C 212.613281 176.96875 216.371094 175.101562 219.402344 172.335938 C 222.519531 169.449219 224.121094 165.226562 227.703125 162.839844 C 227.964844 162.664062 227.734375 162.253906 227.441406 162.402344 C 223.917969 164.644531 222.257812 168.429688 219.34375 171.316406 C 216.691406 173.964844 212.90625 175.363281 210.195312 177.929688 C 211.59375 175.773438 212.90625 173.53125 214.273438 171.402344 C 215.121094 170.0625 215.964844 168.722656 216.808594 167.382812 C 216.867188 167.382812 216.925781 167.382812 216.984375 167.382812 C 220.21875 166.335938 222.605469 163.972656 224.964844 161.671875 C 228.140625 158.554688 231.347656 156.253906 235.597656 154.796875 C 237.347656 154.214844 239.183594 153.515625 241.019531 153.195312 C 243.582031 152.757812 244.308594 155.351562 245.941406 156.664062 C 248.359375 158.644531 251.882812 159.050781 253.921875 161.496094 C 253.746094 161.496094 253.601562 161.496094 253.429688 161.496094 C 251.445312 161.410156 249.554688 161.234375 247.570312 161.527344 C 239.152344 162.722656 232.832031 168.957031 227.820312 175.363281 C 227.617188 175.625 227.964844 176.035156 228.199219 175.742188 C 232.191406 170.964844 236.851562 166.421875 242.765625 164.207031 C 244.835938 163.421875 246.960938 162.984375 249.144531 162.894531 C 246.757812 165.285156 244.425781 167.46875 241.628906 169.480469 C 239.09375 171.316406 236.503906 173.121094 234.316406 175.335938 C 231.8125 177.871094 230.472656 180.929688 228.898438 184.074219 C 226.890625 188.152344 223.859375 191.300781 219.546875 192.902344 C 219.316406 192.988281 219.429688 193.339844 219.636719 193.25 C 222.78125 192.144531 225.519531 190.308594 227.53125 187.628906 C 230.121094 184.132812 231.171875 179.792969 234.171875 176.53125 C 236.675781 173.792969 239.824219 171.753906 242.824219 169.566406 C 245.386719 167.703125 248.359375 165.632812 250.019531 162.839844 C 250.515625 162.839844 251.011719 162.839844 251.535156 162.894531 C 253.019531 163.011719 254.503906 163.21875 255.992188 162.984375 C 256.574219 162.894531 260.796875 161.933594 260.941406 163.304688 C 260.828125 163.21875 260.652344 163.21875 260.535156 163.363281 C 257.652344 166.714844 254.796875 169.710938 251.011719 172.074219 C 250.746094 172.25 250.980469 172.625 251.242188 172.480469 C 254.796875 170.585938 258.234375 167.9375 260.535156 164.585938 C 260.59375 165.082031 261.265625 165.488281 261.671875 165.023438 C 263.070312 163.390625 261.847656 161.207031 259.835938 160.855469 C 258.4375 160.59375 256.980469 161.003906 255.527344 161.292969 C 255.527344 161.292969 255.527344 161.265625 255.496094 161.265625 C 253.660156 158.089844 249.902344 157.742188 247.164062 155.703125 C 245.707031 154.625 245.152344 152.523438 243.4375 151.796875 C 241.804688 151.128906 239.910156 151.828125 238.308594 152.292969 C 236.53125 152.816406 234.8125 153.398438 233.121094 154.128906 C 232.976562 153.515625 232.539062 152.902344 232.191406 152.4375 C 231.753906 151.828125 231.230469 151.1875 230.558594 150.808594 C 231.753906 149.351562 232.800781 147.804688 233.617188 146.058594 C 233.765625 145.796875 233.328125 145.503906 233.121094 145.824219 " fill-opacity="1" fill-rule="nonzero"/></g></svg>